<?xml version="1.0" encoding="UTF-8" standalone="no"?><svg xmlns="http://www.w3.org/2000/svg" xmlns:xlink="http://www.w3.org/1999/xlink" contentStyleType="text/css" height="453px" preserveAspectRatio="none" style="width:1003px;height:453px;background:#FFFFFF;" version="1.1" viewBox="0 0 1003 453" width="1003px" zoomAndPan="magnify"><defs/><g><rect fill="none" height="26.2969" id="_title" style="stroke:none;stroke-width:1.0;" width="208" x="390.5" y="5"/><text fill="#000000" font-family="sans-serif" font-size="14" font-weight="bold" lengthAdjust="spacing" textLength="198" x="395.5" y="22.9951">NodeState State Machine</text><g id="elem_mainNote"><path d="M165,43.2969 L165,98.6953 L417,98.6953 L417,53.2969 L407,43.2969 L165,43.2969 " fill="#FEFFDD" style="stroke:#181818;stroke-width:0.5;"/><path d="M407,43.2969 L407,53.2969 L417,53.2969 L407,43.2969 " fill="#FEFFDD" style="stroke:#181818;stroke-width:1.0;"/><text fill="#000000" font-family="sans-serif" font-size="13" lengthAdjust="spacing" textLength="231" x="171" y="60.3638">This diagram represents the allowed</text><text fill="#000000" font-family="sans-serif" font-size="13" lengthAdjust="spacing" textLength="210" x="179" y="75.4966">state transitions for Node::State.</text><text fill="#000000" font-family="sans-serif" font-size="13" lengthAdjust="spacing" textLength="4" x="171" y="90.6294"> </text></g><g id="elem_requirements"><path d="M452,43.2969 L452,98.6953 L996,98.6953 L996,53.2969 L986,43.2969 L452,43.2969 " fill="#FEFFDD" style="stroke:#181818;stroke-width:0.5;"/><path d="M986,43.2969 L986,53.2969 L996,53.2969 L986,43.2969 " fill="#FEFFDD" style="stroke:#181818;stroke-width:1.0;"/><text fill="#000000" font-family="sans-serif" font-size="13" lengthAdjust="spacing" textLength="93" x="458" y="60.3638">Requirements:</text><text fill="#000000" font-family="sans-serif" font-size="13" lengthAdjust="spacing" textLength="511" x="466" y="75.4966">* Custom Nodes must implement state change per API: request_statechange().</text><text fill="#000000" font-family="sans-serif" font-size="13" lengthAdjust="spacing" textLength="515" x="466" y="90.6294">* Custom Nodes must implement srv_change_nodestate() service per template.</text></g><g id="Start"><rect fill="#F1F1F1" height="50" rx="12.5" ry="12.5" style="stroke:#181818;stroke-width:0.5;" width="66" x="64" y="45.7969"/><line style="stroke:#181818;stroke-width:0.5;" x1="64" x2="130" y1="72.0938" y2="72.0938"/><text fill="#000000" font-family="sans-serif" font-size="14" lengthAdjust="spacing" textLength="46" x="74" y="63.792">START</text></g><g id="Initializing"><rect fill="#F1F1F1" height="50" rx="12.5" ry="12.5" style="stroke:#181818;stroke-width:0.5;" width="101" x="46.5" y="159.2969"/><line style="stroke:#181818;stroke-width:0.5;" x1="46.5" x2="147.5" y1="185.5938" y2="185.5938"/><text fill="#000000" font-family="sans-serif" font-size="14" lengthAdjust="spacing" textLength="81" x="56.5" y="177.292">INITIALIZING</text></g><g id="Initialized"><rect fill="#F1F1F1" height="50" rx="12.5" ry="12.5" style="stroke:#181818;stroke-width:0.5;" width="97" x="231.5" y="159.2969"/><line style="stroke:#181818;stroke-width:0.5;" x1="231.5" x2="328.5" y1="185.5938" y2="185.5938"/><text fill="#000000" font-family="sans-serif" font-size="14" lengthAdjust="spacing" textLength="77" x="241.5" y="177.292">INITIALIZED</text></g><g id="Running"><rect fill="#F1F1F1" height="50" rx="12.5" ry="12.5" style="stroke:#181818;stroke-width:0.5;" width="84" x="274" y="270.2969"/><line style="stroke:#181818;stroke-width:0.5;" x1="274" x2="358" y1="296.5938" y2="296.5938"/><text fill="#000000" font-family="sans-serif" font-size="14" lengthAdjust="spacing" textLength="64" x="284" y="288.292">RUNNING</text></g><g id="Paused"><rect fill="#F1F1F1" height="50" rx="12.5" ry="12.5" style="stroke:#181818;stroke-width:0.5;" width="77" x="514.5" y="397.2969"/><line style="stroke:#181818;stroke-width:0.5;" x1="514.5" x2="591.5" y1="423.5938" y2="423.5938"/><text fill="#000000" font-family="sans-serif" font-size="14" lengthAdjust="spacing" textLength="57" x="524.5" y="415.292">PAUSED</text></g><g id="Reset"><rect fill="#F1F1F1" height="50" rx="12.5" ry="12.5" style="stroke:#181818;stroke-width:0.5;" width="66" x="7" y="397.2969"/><line style="stroke:#181818;stroke-width:0.5;" x1="7" x2="73" y1="423.5938" y2="423.5938"/><text fill="#000000" font-family="sans-serif" font-size="14" lengthAdjust="spacing" textLength="46" x="17" y="415.292">RESET</text></g><g id="Finished"><rect fill="#F1F1F1" height="50" rx="12.5" ry="12.5" style="stroke:#181818;stroke-width:0.5;" width="83" x="287.5" y="397.2969"/><line style="stroke:#181818;stroke-width:0.5;" x1="287.5" x2="370.5" y1="423.5938" y2="423.5938"/><text fill="#000000" font-family="sans-serif" font-size="14" lengthAdjust="spacing" textLength="63" x="297.5" y="415.292">FINISHED</text></g><ellipse cx="19" cy="70.7969" fill="#222222" rx="10" ry="10" style="stroke:none;stroke-width:1.0;"/><ellipse cx="416" cy="422.2969" fill="none" rx="10" ry="10" style="stroke:#222222;stroke-width:1.0;"/><ellipse cx="416.5" cy="422.7969" fill="#222222" rx="6" ry="6" style="stroke:none;stroke-width:1.0;"/><!--MD5=[a0be3251f15ef50a7257de6fc99fd504]
link *start to Start--><g id="link_*start_Start"><path d="M29.05,70.7969 C38.92,70.7969 48.79,70.7969 58.66,70.7969 " fill="none" id="*start-to-Start" style="stroke:#181818;stroke-width:1.0;"/><polygon fill="#181818" points="63.82,70.7969,54.82,66.7969,58.82,70.7969,54.82,74.7969,63.82,70.7969" style="stroke:#181818;stroke-width:1.0;"/></g><!--MD5=[7d5090e5c356ddbc634d7949e2fc201a]
link Start to Initializing--><g id="link_Start_Initializing"><path d="M97,95.9869 C97,112.9369 97,135.6869 97,153.7169 " fill="none" id="Start-to-Initializing" style="stroke:#181818;stroke-width:1.0;"/><polygon fill="#181818" points="97,159.1469,101,150.1469,97,154.1469,93,150.1469,97,159.1469" style="stroke:#181818;stroke-width:1.0;"/></g><!--MD5=[5a5012dc9fbeba115ae89de12434dbeb]
link Initializing to Initialized--><g id="link_Initializing_Initialized"><path d="M147.75,184.2969 C173.91,184.2969 200.06,184.2969 226.21,184.2969 " fill="none" id="Initializing-to-Initialized" style="stroke:#181818;stroke-width:1.0;"/><polygon fill="#181818" points="231.44,184.2969,222.44,180.2969,226.44,184.2969,222.44,188.2969,231.44,184.2969" style="stroke:#181818;stroke-width:1.0;"/></g><!--MD5=[ab18a37a8768a044ac08609c3d98c9b8]
link Initialized to Running--><g id="link_Initialized_Running"><path d="M287.99,209.4869 C293.44,225.9969 300.69,247.9469 306.45,265.3869 " fill="none" id="Initialized-to-Running" style="stroke:#181818;stroke-width:1.0;"/><polygon fill="#181818" points="308.03,270.1769,309.0052,260.3764,306.4617,265.4292,301.4089,262.8857,308.03,270.1769" style="stroke:#181818;stroke-width:1.0;"/></g><!--MD5=[460b617430db8e983a60237dca68f2ed]
link Running to Reset--><g id="link_Running_Reset"><path d="M273.77,300.1269 C209.81,306.7569 92.55,322.4069 62,350.2969 C50.37,360.9169 44.83,377.5369 42.21,392.0369 " fill="none" id="Running-to-Reset" style="stroke:#181818;stroke-width:1.0;"/><polygon fill="#181818" points="41.38,397.2569,46.7433,388.9964,42.1649,392.3189,38.8425,387.7405,41.38,397.2569" style="stroke:#181818;stroke-width:1.0;"/></g><!--MD5=[0b2dc882ae68c2ce168590d5f036bbc0]
link Reset to Running--><g id="link_Reset_Running"><path d="M62.29,397.1069 C77.7,381.6869 99.43,362.4069 122,350.2969 C168.58,325.2969 227.82,310.9869 268.51,303.4669 " fill="none" id="Reset-to-Running" style="stroke:#181818;stroke-width:1.0;"/><polygon fill="#181818" points="273.88,302.4969,264.3067,300.1836,268.9618,303.3976,265.7478,308.0527,273.88,302.4969" style="stroke:#181818;stroke-width:1.0;"/><text fill="#000000" font-family="sans-serif" font-size="13" lengthAdjust="spacing" textLength="189" x="123" y="363.3638">Must implement base_reset()</text></g><!--MD5=[88ce390a908cc5002cb306073da19763]
link Reset to Initializing--><g id="link_Reset_Initializing"><path d="M39.39,397.1269 C39.45,383.3069 40.21,365.7169 43,350.2969 C51.88,301.3169 71.78,246.8569 84.78,214.3769 " fill="none" id="Reset-to-Initializing" style="stroke:#181818;stroke-width:1.0;"/><polygon fill="#181818" points="86.81,209.3569,79.7354,216.2089,84.9408,213.9943,87.1553,219.1997,86.81,209.3569" style="stroke:#181818;stroke-width:1.0;"/></g><!--MD5=[4ead78a200b3c47734444cdc7268760a]
link Running to Paused--><g id="link_Running_Paused"><path d="M358.19,299.8569 C397.89,305.1569 456.28,318.2069 497,350.2969 C510.71,361.1069 520.3,378.1269 528.47,392.7969 " fill="none" id="Running-to-Paused" style="stroke:#181818;stroke-width:1.0;"/><polygon fill="#181818" points="530.97,397.2669,530.0714,387.4591,528.5309,392.9022,523.0878,391.3617,530.97,397.2669" style="stroke:#181818;stroke-width:1.0;"/></g><!--MD5=[0b6f5eecfd6b7d9789c0c0117b0581f3]
link Paused to Running--><g id="link_Paused_Running"><path d="M560.6,397.2669 C557.24,381.7169 547.13,362.2169 532,350.2969 C483.94,312.4269 411.25,301.0669 363.17,297.6869 " fill="none" id="Paused-to-Running" style="stroke:#181818;stroke-width:1.0;"/><polygon fill="#181818" points="358.02,297.3469,366.7383,301.9284,363.0092,297.6747,367.2629,293.9456,358.02,297.3469" style="stroke:#181818;stroke-width:1.0;"/></g><!--MD5=[c130f4c3aaddf8c30b53e0c830bcbfde]
link Running to Finished--><g id="link_Running_Finished"><path d="M318.51,320.3969 C320.64,340.8869 323.7,370.3769 325.97,392.1769 " fill="none" id="Running-to-Finished" style="stroke:#181818;stroke-width:1.0;"/><polygon fill="#181818" points="326.5,397.2669,329.5527,387.9031,325.9855,392.2934,321.5951,388.7262,326.5,397.2669" style="stroke:#181818;stroke-width:1.0;"/><text fill="#000000" font-family="sans-serif" font-size="13" lengthAdjust="spacing" textLength="182" x="324" y="363.3638">Typically from Deconstructor</text></g><!--MD5=[f3edc34042f787149cb4b2f443172939]
link Finished to *end--><g id="link_Finished_*end"><path d="M370.8,422.2969 C380.72,422.2969 390.65,422.2969 400.57,422.2969 " fill="none" id="Finished-to-*end" style="stroke:#181818;stroke-width:1.0;"/><polygon fill="#181818" points="405.76,422.2969,396.76,418.2969,400.76,422.2969,396.76,426.2969,405.76,422.2969" style="stroke:#181818;stroke-width:1.0;"/></g><!--MD5=[7e0a070170552c480f32f25cd9d46708]
@startuml
title NodeState State Machine
note "This diagram represents the allowed\n  state transitions for Node::State.\n" as mainNote
note "Requirements:\n  * Custom Nodes must implement state change per API: request_statechange().\n  * Custom Nodes must implement srv_change_nodestate() service per template." as requirements
state "START" as Start
state "INITIALIZING" as Initializing
state "INITIALIZED" as Initialized
state "RUNNING" as Running
state "PAUSED" as Paused
state "RESET" as Reset
state "FINISHED" as Finished

[*] -> Start
Start - -> Initializing 
Initializing -> Initialized
Initialized - -> Running
Running - -> Reset
Reset - -> Running: Must implement base_reset()
Reset - -> Initializing
Running - -> Paused
Paused - -> Running
Running - -> Finished: Typically from Deconstructor
Finished -> [*]
@enduml

PlantUML version 1.2022.8(Sun Sep 25 04:00:33 CDT 2022)
(GPL source distribution)
Java Runtime: OpenJDK Runtime Environment
JVM: OpenJDK 64-Bit Server VM
Default Encoding: UTF-8
Language: en
Country: US
--></g></svg>