<?xml version="1.0" encoding="UTF-8" standalone="no"?><svg xmlns="http://www.w3.org/2000/svg" xmlns:xlink="http://www.w3.org/1999/xlink" contentStyleType="text/css" height="696px" preserveAspectRatio="none" style="width:1640px;height:696px;background:#FFFFFF;" version="1.1" viewBox="0 0 1640 696" width="1640px" zoomAndPan="magnify"><defs/><g><rect fill="none" height="26.2969" id="_title" style="stroke:none;stroke-width:1.0;" width="292" x="667" y="5"/><text fill="#000000" font-family="sans-serif" font-size="14" font-weight="bold" lengthAdjust="spacing" textLength="282" x="672" y="22.9951">Typical Custom Node Class Diagram</text><!--MD5=[04e143e1b92f58df159b9d5ccef94150]
cluster eros--><g id="cluster_eros"><path d="M592.5,43.2969 L629.5,43.2969 A3.75,3.75 0 0 1 632,45.7969 L639,65.5938 L918.5,65.5938 A2.5,2.5 0 0 1 921,68.0938 L921,139.7969 A2.5,2.5 0 0 1 918.5,142.2969 L592.5,142.2969 A2.5,2.5 0 0 1 590,139.7969 L590,45.7969 A2.5,2.5 0 0 1 592.5,43.2969 " fill="none" style="stroke:#000000;stroke-width:1.5;"/><line style="stroke:#000000;stroke-width:1.5;" x1="590" x2="639" y1="65.5938" y2="65.5938"/><text fill="#000000" font-family="sans-serif" font-size="14" font-weight="bold" lengthAdjust="spacing" textLength="36" x="594" y="58.292">eros</text></g><!--MD5=[a64c72e827b09a6f5937344a1b1eb1a7]
cluster userPackage--><g id="cluster_userPackage"><path d="M8.5,166.2969 L111.5,166.2969 A3.75,3.75 0 0 1 114,168.7969 L121,188.5938 L1630.5,188.5938 A2.5,2.5 0 0 1 1633,191.0938 L1633,686.7969 A2.5,2.5 0 0 1 1630.5,689.2969 L8.5,689.2969 A2.5,2.5 0 0 1 6,686.7969 L6,168.7969 A2.5,2.5 0 0 1 8.5,166.2969 " fill="none" style="stroke:#000000;stroke-width:1.5;"/><line style="stroke:#000000;stroke-width:1.5;" x1="6" x2="121" y1="188.5938" y2="188.5938"/><text fill="#000000" font-family="sans-serif" font-size="14" font-weight="bold" lengthAdjust="spacing" textLength="102" x="10" y="181.292">userPackage</text></g><!--MD5=[e65fce124287dcb93d674d408f416346]
class BaseNode--><g id="elem_BaseNode"><rect codeLine="4" fill="#F1F1F1" height="48" id="BaseNode" rx="2.5" ry="2.5" style="stroke:#181818;stroke-width:0.5;" width="104" x="801" y="78.2969"/><ellipse cx="816" cy="94.2969" fill="#ADD1B2" rx="11" ry="11" style="stroke:#181818;stroke-width:1.0;"/><path d="M818.9688,99.9375 Q818.3906,100.2344 817.75,100.375 Q817.1094,100.5313 816.4063,100.5313 Q813.9063,100.5313 812.5781,98.8906 Q811.2656,97.2344 811.2656,94.1094 Q811.2656,90.9844 812.5781,89.3281 Q813.9063,87.6719 816.4063,87.6719 Q817.1094,87.6719 817.75,87.8281 Q818.4063,87.9844 818.9688,88.2813 L818.9688,91 Q818.3438,90.4219 817.75,90.1563 Q817.1563,89.875 816.5313,89.875 Q815.1875,89.875 814.5,90.9531 Q813.8125,92.0156 813.8125,94.1094 Q813.8125,96.2031 814.5,97.2813 Q815.1875,98.3438 816.5313,98.3438 Q817.1563,98.3438 817.75,98.0781 Q818.3438,97.7969 818.9688,97.2188 L818.9688,99.9375 Z " fill="#000000"/><text fill="#000000" font-family="sans-serif" font-size="14" lengthAdjust="spacing" textLength="72" x="830" y="99.1436">BaseNode</text><line style="stroke:#181818;stroke-width:0.5;" x1="802" x2="904" y1="110.2969" y2="110.2969"/><line style="stroke:#181818;stroke-width:0.5;" x1="802" x2="904" y1="118.2969" y2="118.2969"/></g><!--MD5=[c985dff760347b0f75109e7eaa49d1c5]
class BaseNodeProcess--><g id="elem_BaseNodeProcess"><rect codeLine="5" fill="#F1F1F1" height="48" id="BaseNodeProcess" rx="2.5" ry="2.5" style="stroke:#181818;stroke-width:0.5;" width="160" x="606" y="78.2969"/><ellipse cx="621" cy="94.2969" fill="#ADD1B2" rx="11" ry="11" style="stroke:#181818;stroke-width:1.0;"/><path d="M623.9688,99.9375 Q623.3906,100.2344 622.75,100.375 Q622.1094,100.5313 621.4063,100.5313 Q618.9063,100.5313 617.5781,98.8906 Q616.2656,97.2344 616.2656,94.1094 Q616.2656,90.9844 617.5781,89.3281 Q618.9063,87.6719 621.4063,87.6719 Q622.1094,87.6719 622.75,87.8281 Q623.4063,87.9844 623.9688,88.2813 L623.9688,91 Q623.3438,90.4219 622.75,90.1563 Q622.1563,89.875 621.5313,89.875 Q620.1875,89.875 619.5,90.9531 Q618.8125,92.0156 618.8125,94.1094 Q618.8125,96.2031 619.5,97.2813 Q620.1875,98.3438 621.5313,98.3438 Q622.1563,98.3438 622.75,98.0781 Q623.3438,97.7969 623.9688,97.2188 L623.9688,99.9375 Z " fill="#000000"/><text fill="#000000" font-family="sans-serif" font-size="14" lengthAdjust="spacing" textLength="128" x="635" y="99.1436">BaseNodeProcess</text><line style="stroke:#181818;stroke-width:0.5;" x1="607" x2="765" y1="110.2969" y2="110.2969"/><line style="stroke:#181818;stroke-width:0.5;" x1="607" x2="765" y1="118.2969" y2="118.2969"/></g><!--MD5=[5963d968c28ce1d32841927d42fa4c38]
class CustomNode--><g id="elem_CustomNode"><rect codeLine="12" fill="#F1F1F1" height="471.7188" id="CustomNode" rx="2.5" ry="2.5" style="stroke:#181818;stroke-width:0.5;" width="880" x="737" y="201.2969"/><ellipse cx="1127.25" cy="217.2969" fill="#ADD1B2" rx="11" ry="11" style="stroke:#181818;stroke-width:1.0;"/><path d="M1130.2188,222.9375 Q1129.6406,223.2344 1129,223.375 Q1128.3594,223.5313 1127.6563,223.5313 Q1125.1563,223.5313 1123.8281,221.8906 Q1122.5156,220.2344 1122.5156,217.1094 Q1122.5156,213.9844 1123.8281,212.3281 Q1125.1563,210.6719 1127.6563,210.6719 Q1128.3594,210.6719 1129,210.8281 Q1129.6563,210.9844 1130.2188,211.2813 L1130.2188,214 Q1129.5938,213.4219 1129,213.1563 Q1128.4063,212.875 1127.7813,212.875 Q1126.4375,212.875 1125.75,213.9531 Q1125.0625,215.0156 1125.0625,217.1094 Q1125.0625,219.2031 1125.75,220.2813 Q1126.4375,221.3438 1127.7813,221.3438 Q1128.4063,221.3438 1129,221.0781 Q1129.5938,220.7969 1130.2188,220.2188 L1130.2188,222.9375 Z " fill="#000000"/><text fill="#000000" font-family="sans-serif" font-size="14" lengthAdjust="spacing" textLength="91" x="1147.75" y="222.1436">CustomNode</text><line style="stroke:#181818;stroke-width:0.5;" x1="738" x2="1616" y1="233.2969" y2="233.2969"/><ellipse cx="748" cy="246.9453" fill="none" rx="3" ry="3" style="stroke:#038048;stroke-width:1.0;"/><text fill="#000000" font-family="sans-serif" font-size="14" lengthAdjust="spacing" textLength="218" x="757" y="250.292">const string BASE_NODE_NAME</text><ellipse cx="748" cy="263.2422" fill="none" rx="3" ry="3" style="stroke:#038048;stroke-width:1.0;"/><text fill="#000000" font-family="sans-serif" font-size="14" lengthAdjust="spacing" textLength="285" x="757" y="266.5889">const uint16_t MAJOR_RELEASE_VERSION</text><ellipse cx="748" cy="279.5391" fill="none" rx="3" ry="3" style="stroke:#038048;stroke-width:1.0;"/><text fill="#000000" font-family="sans-serif" font-size="14" lengthAdjust="spacing" textLength="286" x="757" y="282.8857">const uint16_t MINOR_RELEASE_VERSION</text><ellipse cx="748" cy="295.8359" fill="none" rx="3" ry="3" style="stroke:#038048;stroke-width:1.0;"/><text fill="#000000" font-family="sans-serif" font-size="14" lengthAdjust="spacing" textLength="212" x="757" y="299.1826">const uint16_t BUILD_NUMBER</text><ellipse cx="748" cy="312.1328" fill="none" rx="3" ry="3" style="stroke:#038048;stroke-width:1.0;"/><text fill="#000000" font-family="sans-serif" font-size="14" lengthAdjust="spacing" textLength="261" x="757" y="315.4795">const string FIRMWARE_DESCRIPTION</text><ellipse cx="748" cy="328.4297" fill="none" rx="3" ry="3" style="stroke:#038048;stroke-width:1.0;"/><text fill="#000000" font-family="sans-serif" font-size="14" lengthAdjust="spacing" textLength="382" x="757" y="331.7764">const eros::System::MainSystem DIAGNOSTIC_SYSTEM</text><ellipse cx="748" cy="344.7266" fill="none" rx="3" ry="3" style="stroke:#038048;stroke-width:1.0;"/><text fill="#000000" font-family="sans-serif" font-size="14" lengthAdjust="spacing" textLength="406" x="757" y="348.0732">const eros::System::SubSystem DIAGNOSTIC_SUBSYSTEM</text><ellipse cx="748" cy="361.0234" fill="none" rx="3" ry="3" style="stroke:#038048;stroke-width:1.0;"/><text fill="#000000" font-family="sans-serif" font-size="14" lengthAdjust="spacing" textLength="415" x="757" y="364.3701">const eros::System::Component DIAGNOSTIC_COMPONENT</text><text fill="#000000" font-family="sans-serif" font-size="14" lengthAdjust="spacing" textLength="4" x="757" y="380.667"> </text><rect fill="none" height="6" style="stroke:#C82930;stroke-width:1.0;" width="6" x="745" y="390.6172"/><text fill="#000000" font-family="sans-serif" font-size="14" lengthAdjust="spacing" textLength="219" x="757" y="396.9639">CustomNodeProcess* process;</text><line style="stroke:#181818;stroke-width:0.5;" x1="738" x2="1616" y1="404.2656" y2="404.2656"/><ellipse cx="748" cy="417.9141" fill="#84BE84" rx="3" ry="3" style="stroke:#038048;stroke-width:1.0;"/><text fill="#000000" font-family="sans-serif" font-size="14" lengthAdjust="spacing" textLength="254" x="757" y="421.2607">CustomNodeProcess* get_process()</text><ellipse cx="748" cy="434.2109" fill="#84BE84" rx="3" ry="3" style="stroke:#038048;stroke-width:1.0;"/><text fill="#000000" font-family="sans-serif" font-size="14" lengthAdjust="spacing" textLength="75" x="757" y="437.5576">bool start()</text><ellipse cx="748" cy="450.5078" fill="#84BE84" rx="3" ry="3" style="stroke:#038048;stroke-width:1.0;"/><text fill="#000000" font-family="sans-serif" font-size="14" lengthAdjust="spacing" textLength="398" x="757" y="453.8545">eros::Diagnostic::DiagnosticDefinition finish_initialization()</text><ellipse cx="748" cy="466.8047" fill="#84BE84" rx="3" ry="3" style="stroke:#038048;stroke-width:1.0;"/><text fill="#000000" font-family="sans-serif" font-size="14" lengthAdjust="spacing" textLength="113" x="757" y="470.1514">bool run_loop1()</text><ellipse cx="748" cy="483.1016" fill="#84BE84" rx="3" ry="3" style="stroke:#038048;stroke-width:1.0;"/><text fill="#000000" font-family="sans-serif" font-size="14" lengthAdjust="spacing" textLength="113" x="757" y="486.4482">bool run_loop2()</text><ellipse cx="748" cy="499.3984" fill="#84BE84" rx="3" ry="3" style="stroke:#038048;stroke-width:1.0;"/><text fill="#000000" font-family="sans-serif" font-size="14" lengthAdjust="spacing" textLength="113" x="757" y="502.7451">bool run_loop3()</text><ellipse cx="748" cy="515.6953" fill="#84BE84" rx="3" ry="3" style="stroke:#038048;stroke-width:1.0;"/><text fill="#000000" font-family="sans-serif" font-size="14" lengthAdjust="spacing" textLength="118" x="757" y="519.042">bool run_001hz()</text><ellipse cx="748" cy="531.9922" fill="#84BE84" rx="3" ry="3" style="stroke:#038048;stroke-width:1.0;"/><text fill="#000000" font-family="sans-serif" font-size="14" lengthAdjust="spacing" textLength="109" x="757" y="535.3389">bool run_01hz()</text><ellipse cx="748" cy="548.2891" fill="#84BE84" rx="3" ry="3" style="stroke:#038048;stroke-width:1.0;"/><text fill="#000000" font-family="sans-serif" font-size="14" lengthAdjust="spacing" textLength="152" x="757" y="551.6357">bool run_01hz_noisy()</text><ellipse cx="748" cy="564.5859" fill="#84BE84" rx="3" ry="3" style="stroke:#038048;stroke-width:1.0;"/><text fill="#000000" font-family="sans-serif" font-size="14" lengthAdjust="spacing" textLength="100" x="757" y="567.9326">bool run_1hz()</text><ellipse cx="748" cy="580.8828" fill="#84BE84" rx="3" ry="3" style="stroke:#038048;stroke-width:1.0;"/><text fill="#000000" font-family="sans-serif" font-size="14" lengthAdjust="spacing" textLength="109" x="757" y="584.2295">bool run_10hz()</text><ellipse cx="748" cy="597.1797" fill="#84BE84" rx="3" ry="3" style="stroke:#038048;stroke-width:1.0;"/><text fill="#000000" font-family="sans-serif" font-size="14" lengthAdjust="spacing" textLength="124" x="757" y="600.5264">void thread_loop()</text><ellipse cx="748" cy="613.4766" fill="#84BE84" rx="3" ry="3" style="stroke:#038048;stroke-width:1.0;"/><text fill="#000000" font-family="sans-serif" font-size="14" lengthAdjust="spacing" textLength="97" x="757" y="616.8232">void cleanup()</text><ellipse cx="748" cy="629.7734" fill="#84BE84" rx="3" ry="3" style="stroke:#038048;stroke-width:1.0;"/><text fill="#000000" font-family="sans-serif" font-size="14" lengthAdjust="spacing" textLength="854" x="757" y="633.1201">bool changenodestate_service(eros::srv_change_nodestate::Request&amp; req, eros::srv_change_nodestate::Response&amp; res)</text><ellipse cx="748" cy="646.0703" fill="#84BE84" rx="3" ry="3" style="stroke:#038048;stroke-width:1.0;"/><text fill="#000000" font-family="sans-serif" font-size="14" lengthAdjust="spacing" textLength="621" x="757" y="649.417">void system_commandAction_Callback(const eros::system_commandGoalConstPtr&amp; goal)</text><ellipse cx="748" cy="662.3672" fill="#84BE84" rx="3" ry="3" style="stroke:#038048;stroke-width:1.0;"/><text fill="#000000" font-family="sans-serif" font-size="14" lengthAdjust="spacing" textLength="456" x="757" y="665.7139">void command_Callback(const eros::command::ConstPtr&amp; t_msg)</text></g><!--MD5=[d6c64b4f92b7675292b8867a52f351f9]
class CustomNodeProcess--><g id="elem_CustomNodeProcess"><rect codeLine="40" fill="#F1F1F1" height="145.7813" id="CustomNodeProcess" rx="2.5" ry="2.5" style="stroke:#181818;stroke-width:0.5;" width="680" x="22" y="364.2969"/><ellipse cx="284.25" cy="380.2969" fill="#ADD1B2" rx="11" ry="11" style="stroke:#181818;stroke-width:1.0;"/><path d="M287.2188,385.9375 Q286.6406,386.2344 286,386.375 Q285.3594,386.5313 284.6563,386.5313 Q282.1563,386.5313 280.8281,384.8906 Q279.5156,383.2344 279.5156,380.1094 Q279.5156,376.9844 280.8281,375.3281 Q282.1563,373.6719 284.6563,373.6719 Q285.3594,373.6719 286,373.8281 Q286.6563,373.9844 287.2188,374.2813 L287.2188,377 Q286.5938,376.4219 286,376.1563 Q285.4063,375.875 284.7813,375.875 Q283.4375,375.875 282.75,376.9531 Q282.0625,378.0156 282.0625,380.1094 Q282.0625,382.2031 282.75,383.2813 Q283.4375,384.3438 284.7813,384.3438 Q285.4063,384.3438 286,384.0781 Q286.5938,383.7969 287.2188,383.2188 L287.2188,385.9375 Z " fill="#000000"/><text fill="#000000" font-family="sans-serif" font-size="14" lengthAdjust="spacing" textLength="147" x="304.75" y="385.1436">CustomNodeProcess</text><line style="stroke:#181818;stroke-width:0.5;" x1="23" x2="701" y1="396.2969" y2="396.2969"/><line style="stroke:#181818;stroke-width:0.5;" x1="23" x2="701" y1="404.2969" y2="404.2969"/><ellipse cx="33" cy="417.9453" fill="#84BE84" rx="3" ry="3" style="stroke:#038048;stroke-width:1.0;"/><text fill="#000000" font-family="sans-serif" font-size="14" lengthAdjust="spacing" textLength="398" x="42" y="421.292">eros::Diagnostic::DiagnosticDefinition finish_initialization()</text><ellipse cx="33" cy="434.2422" fill="#84BE84" rx="3" ry="3" style="stroke:#038048;stroke-width:1.0;"/><text fill="#000000" font-family="sans-serif" font-size="14" lengthAdjust="spacing" textLength="78" x="42" y="437.5889">void reset()</text><ellipse cx="33" cy="450.5391" fill="#84BE84" rx="3" ry="3" style="stroke:#038048;stroke-width:1.0;"/><text fill="#000000" font-family="sans-serif" font-size="14" lengthAdjust="spacing" textLength="534" x="42" y="453.8857">eros::Diagnostic::DiagnosticDefinition update(double t_dt, double t_ros_time)</text><ellipse cx="33" cy="466.8359" fill="#84BE84" rx="3" ry="3" style="stroke:#038048;stroke-width:1.0;"/><text fill="#000000" font-family="sans-serif" font-size="14" lengthAdjust="spacing" textLength="654" x="42" y="470.1826">std::vector&lt;eros::Diagnostic::DiagnosticDefinition&gt; new_commandmsg(eros::command msg)</text><ellipse cx="33" cy="483.1328" fill="#84BE84" rx="3" ry="3" style="stroke:#038048;stroke-width:1.0;"/><text fill="#000000" font-family="sans-serif" font-size="14" lengthAdjust="spacing" textLength="542" x="42" y="486.4795">std::vector&lt;eros::Diagnostic::DiagnosticDefinition&gt; check_programvariables()</text><ellipse cx="33" cy="499.4297" fill="#84BE84" rx="3" ry="3" style="stroke:#038048;stroke-width:1.0;"/><text fill="#000000" font-family="sans-serif" font-size="14" lengthAdjust="spacing" textLength="97" x="42" y="502.7764">void cleanup()</text></g><!--MD5=[1939abb9da9b86b776489d02d6272569]
reverse link BaseNode to CustomNode--><g id="link_BaseNode_CustomNode"><path codeLine="9" d="M889.53,140.8369 C905.55,157.3069 925.8,178.1169 948.09,201.0369 " fill="none" id="BaseNode-backto-CustomNode" style="stroke:#181818;stroke-width:1.0;"/><polygon fill="none" points="884.46,145.6669,875.53,126.4469,894.49,135.8969,884.46,145.6669" style="stroke:#181818;stroke-width:1.0;"/></g><!--MD5=[6efc252817ba71f823167761fb95ea28]
reverse link BaseNodeProcess to CustomNodeProcess--><g id="link_BaseNodeProcess_CustomNodeProcess"><path codeLine="10" d="M649.3,141.0169 C596.73,195.0469 498.99,295.4969 432.25,364.0969 " fill="none" id="BaseNodeProcess-backto-CustomNodeProcess" style="stroke:#181818;stroke-width:1.0;"/><polygon fill="none" points="644.51,135.8969,663.47,126.4469,654.54,145.6669,644.51,135.8969" style="stroke:#181818;stroke-width:1.0;"/></g><!--MD5=[404e3d92f346e0f23900b4a9ecd8556c]
link CustomNode to CustomNodeProcess--><g id="link_CustomNode_CustomNodeProcess"><path codeLine="49" d="M736.55,437.2969 C726.82,437.2969 717.08,437.2969 707.34,437.2969 " fill="none" id="CustomNode-to-CustomNodeProcess" style="stroke:#181818;stroke-width:1.0;"/><polygon fill="#181818" points="702.25,437.2969,711.25,441.2969,707.25,437.2969,711.25,433.2969,702.25,437.2969" style="stroke:#181818;stroke-width:1.0;"/></g><!--MD5=[ee54101366c72568f1e7dfb5e7dd2088]
@startuml
title Typical Custom Node Class Diagram

package eros {
  class BaseNode
  class BaseNodeProcess
}

package userPackage {
  BaseNode <|- - CustomNode
  BaseNodeProcess <|- - CustomNodeProcess
}
class CustomNode {
    +const string BASE_NODE_NAME
    +const uint16_t MAJOR_RELEASE_VERSION
    +const uint16_t MINOR_RELEASE_VERSION
    +const uint16_t BUILD_NUMBER
    +const string FIRMWARE_DESCRIPTION
    +const eros::System::MainSystem DIAGNOSTIC_SYSTEM
    +const eros::System::SubSystem DIAGNOSTIC_SUBSYSTEM
    +const eros::System::Component DIAGNOSTIC_COMPONENT
    +CustomNodeProcess* get_process()
    +bool start()
    +eros::Diagnostic::DiagnosticDefinition finish_initialization()
    +bool run_loop1()
    +bool run_loop2()
    +bool run_loop3()
    +bool run_001hz()
    +bool run_01hz()
    +bool run_01hz_noisy()
    +bool run_1hz()
    +bool run_10hz()
    +void thread_loop()
    +void cleanup()
    +bool changenodestate_service(eros::srv_change_nodestate::Request& req, eros::srv_change_nodestate::Response& res)
    +void system_commandAction_Callback(const eros::system_commandGoalConstPtr& goal)
    +void command_Callback(const eros::command::ConstPtr& t_msg)

    -CustomNodeProcess* process;
}
class CustomNodeProcess {
    +eros::Diagnostic::DiagnosticDefinition finish_initialization()
    +void reset()
    +eros::Diagnostic::DiagnosticDefinition update(double t_dt, double t_ros_time)
    +std::vector<eros::Diagnostic::DiagnosticDefinition> new_commandmsg(eros::command msg)
    +std::vector<eros::Diagnostic::DiagnosticDefinition> check_programvariables()
    +void cleanup()

}
CustomNode -> CustomNodeProcess
@enduml

PlantUML version 1.2022.8(Sun Sep 25 04:00:33 CDT 2022)
(GPL source distribution)
Java Runtime: OpenJDK Runtime Environment
JVM: OpenJDK 64-Bit Server VM
Default Encoding: UTF-8
Language: en
Country: US
--></g></svg>