<svg xmlns="http://www.w3.org/2000/svg" xmlns:xlink="http://www.w3.org/1999/xlink" contentStyleType="text/css" data-diagram-type="CLASS" height="647px" preserveAspectRatio="none" style="width:1970px;height:647px;background:#FFFFFF;" version="1.1" viewBox="0 0 1970 647" width="1970px" zoomAndPan="magnify"><title>Typical Custom Node Class Diagram</title><defs/><g><text fill="#000000" font-family="sans-serif" font-size="14" font-weight="bold" lengthAdjust="spacing" textLength="283.876" x="836.312" y="22.9951">Typical Custom Node Class Diagram</text><!--cluster eros--><g id="cluster_eros"><path d="M1621,221.2969 L1656.3506,221.2969 A3.75,3.75 0 0 1 1658.8506,223.7969 L1665.8506,243.5938 L1943,243.5938 A2.5,2.5 0 0 1 1945.5,246.0938 L1945.5,317.7969 A2.5,2.5 0 0 1 1943,320.2969 L1621,320.2969 A2.5,2.5 0 0 1 1618.5,317.7969 L1618.5,223.7969 A2.5,2.5 0 0 1 1621,221.2969 " fill="transparent" style="stroke:#000000;stroke-width:1.5;"/><line style="stroke:#000000;stroke-width:1.5;" x1="1618.5" x2="1665.8506" y1="243.5938" y2="243.5938"/><text fill="#000000" font-family="sans-serif" font-size="14" font-weight="bold" lengthAdjust="spacing" textLength="34.3506" x="1622.5" y="236.292">eros</text></g><!--cluster userPackage--><g id="cluster_userPackage"><path d="M1601,541.2969 L1702.9805,541.2969 A3.75,3.75 0 0 1 1705.4805,543.7969 L1712.4805,563.5938 L1961,563.5938 A2.5,2.5 0 0 1 1963.5,566.0938 L1963.5,637.7969 A2.5,2.5 0 0 1 1961,640.2969 L1601,640.2969 A2.5,2.5 0 0 1 1598.5,637.7969 L1598.5,543.7969 A2.5,2.5 0 0 1 1601,541.2969 " fill="transparent" style="stroke:#000000;stroke-width:1.5;"/><line style="stroke:#000000;stroke-width:1.5;" x1="1598.5" x2="1712.4805" y1="563.5938" y2="563.5938"/><text fill="#000000" font-family="sans-serif" font-size="14" font-weight="bold" lengthAdjust="spacing" textLength="100.9805" x="1602.5" y="556.292">userPackage</text></g><!--class BaseNode--><g id="elem_BaseNode"><rect codeLine="4" fill="#F1F1F1" height="48" id="BaseNode" rx="2.5" ry="2.5" style="stroke:#181818;stroke-width:0.5;" width="102.6289" x="1826" y="256.2969"/><ellipse cx="1841" cy="272.2969" fill="#ADD1B2" rx="11" ry="11" style="stroke:#181818;stroke-width:1;"/><path d="M1843.9688,277.9375 Q1843.3906,278.2344 1842.75,278.375 Q1842.1094,278.5313 1841.4063,278.5313 Q1838.9063,278.5313 1837.5781,276.8906 Q1836.2656,275.2344 1836.2656,272.1094 Q1836.2656,268.9844 1837.5781,267.3281 Q1838.9063,265.6719 1841.4063,265.6719 Q1842.1094,265.6719 1842.75,265.8281 Q1843.4063,265.9844 1843.9688,266.2813 L1843.9688,269 Q1843.3438,268.4219 1842.75,268.1563 Q1842.1563,267.875 1841.5313,267.875 Q1840.1875,267.875 1839.5,268.9531 Q1838.8125,270.0156 1838.8125,272.1094 Q1838.8125,274.2031 1839.5,275.2813 Q1840.1875,276.3438 1841.5313,276.3438 Q1842.1563,276.3438 1842.75,276.0781 Q1843.3438,275.7969 1843.9688,275.2188 L1843.9688,277.9375 Z " fill="#000000"/><text fill="#000000" font-family="sans-serif" font-size="14" lengthAdjust="spacing" textLength="70.6289" x="1855" y="277.1436">BaseNode</text><line style="stroke:#181818;stroke-width:0.5;" x1="1827" x2="1927.6289" y1="288.2969" y2="288.2969"/><line style="stroke:#181818;stroke-width:0.5;" x1="1827" x2="1927.6289" y1="296.2969" y2="296.2969"/></g><!--class BaseNodeProcess--><g id="elem_BaseNodeProcess"><rect codeLine="5" fill="#F1F1F1" height="48" id="BaseNodeProcess" rx="2.5" ry="2.5" style="stroke:#181818;stroke-width:0.5;" width="156.291" x="1634.5" y="256.2969"/><ellipse cx="1649.5" cy="272.2969" fill="#ADD1B2" rx="11" ry="11" style="stroke:#181818;stroke-width:1;"/><path d="M1652.4688,277.9375 Q1651.8906,278.2344 1651.25,278.375 Q1650.6094,278.5313 1649.9063,278.5313 Q1647.4063,278.5313 1646.0781,276.8906 Q1644.7656,275.2344 1644.7656,272.1094 Q1644.7656,268.9844 1646.0781,267.3281 Q1647.4063,265.6719 1649.9063,265.6719 Q1650.6094,265.6719 1651.25,265.8281 Q1651.9063,265.9844 1652.4688,266.2813 L1652.4688,269 Q1651.8438,268.4219 1651.25,268.1563 Q1650.6563,267.875 1650.0313,267.875 Q1648.6875,267.875 1648,268.9531 Q1647.3125,270.0156 1647.3125,272.1094 Q1647.3125,274.2031 1648,275.2813 Q1648.6875,276.3438 1650.0313,276.3438 Q1650.6563,276.3438 1651.25,276.0781 Q1651.8438,275.7969 1652.4688,275.2188 L1652.4688,277.9375 Z " fill="#000000"/><text fill="#000000" font-family="sans-serif" font-size="14" lengthAdjust="spacing" textLength="124.291" x="1663.5" y="277.1436">BaseNodeProcess</text><line style="stroke:#181818;stroke-width:0.5;" x1="1635.5" x2="1789.791" y1="288.2969" y2="288.2969"/><line style="stroke:#181818;stroke-width:0.5;" x1="1635.5" x2="1789.791" y1="296.2969" y2="296.2969"/></g><!--class CustomNode--><g id="elem_CustomNode"><rect fill="#F1F1F1" height="48" id="CustomNode" rx="2.5" ry="2.5" style="stroke:#181818;stroke-width:0.5;" width="122.1729" x="1825.5" y="576.2969"/><ellipse cx="1840.5" cy="592.2969" fill="#ADD1B2" rx="11" ry="11" style="stroke:#181818;stroke-width:1;"/><path d="M1843.4688,597.9375 Q1842.8906,598.2344 1842.25,598.375 Q1841.6094,598.5313 1840.9063,598.5313 Q1838.4063,598.5313 1837.0781,596.8906 Q1835.7656,595.2344 1835.7656,592.1094 Q1835.7656,588.9844 1837.0781,587.3281 Q1838.4063,585.6719 1840.9063,585.6719 Q1841.6094,585.6719 1842.25,585.8281 Q1842.9063,585.9844 1843.4688,586.2813 L1843.4688,589 Q1842.8438,588.4219 1842.25,588.1563 Q1841.6563,587.875 1841.0313,587.875 Q1839.6875,587.875 1839,588.9531 Q1838.3125,590.0156 1838.3125,592.1094 Q1838.3125,594.2031 1839,595.2813 Q1839.6875,596.3438 1841.0313,596.3438 Q1841.6563,596.3438 1842.25,596.0781 Q1842.8438,595.7969 1843.4688,595.2188 L1843.4688,597.9375 Z " fill="#000000"/><text fill="#000000" font-family="sans-serif" font-size="14" lengthAdjust="spacing" textLength="90.1729" x="1854.5" y="597.1436">CustomNode</text><line style="stroke:#181818;stroke-width:0.5;" x1="1826.5" x2="1946.6729" y1="608.2969" y2="608.2969"/><line style="stroke:#181818;stroke-width:0.5;" x1="1826.5" x2="1946.6729" y1="616.2969" y2="616.2969"/></g><!--class CustomNodeProcess--><g id="elem_CustomNodeProcess"><rect fill="#F1F1F1" height="48" id="CustomNodeProcess" rx="2.5" ry="2.5" style="stroke:#181818;stroke-width:0.5;" width="175.835" x="1614.5" y="576.2969"/><ellipse cx="1629.5" cy="592.2969" fill="#ADD1B2" rx="11" ry="11" style="stroke:#181818;stroke-width:1;"/><path d="M1632.4688,597.9375 Q1631.8906,598.2344 1631.25,598.375 Q1630.6094,598.5313 1629.9063,598.5313 Q1627.4063,598.5313 1626.0781,596.8906 Q1624.7656,595.2344 1624.7656,592.1094 Q1624.7656,588.9844 1626.0781,587.3281 Q1627.4063,585.6719 1629.9063,585.6719 Q1630.6094,585.6719 1631.25,585.8281 Q1631.9063,585.9844 1632.4688,586.2813 L1632.4688,589 Q1631.8438,588.4219 1631.25,588.1563 Q1630.6563,587.875 1630.0313,587.875 Q1628.6875,587.875 1628,588.9531 Q1627.3125,590.0156 1627.3125,592.1094 Q1627.3125,594.2031 1628,595.2813 Q1628.6875,596.3438 1630.0313,596.3438 Q1630.6563,596.3438 1631.25,596.0781 Q1631.8438,595.7969 1632.4688,595.2188 L1632.4688,597.9375 Z " fill="#000000"/><text fill="#000000" font-family="sans-serif" font-size="14" lengthAdjust="spacing" textLength="143.835" x="1643.5" y="597.1436">CustomNodeProcess</text><line style="stroke:#181818;stroke-width:0.5;" x1="1615.5" x2="1789.335" y1="608.2969" y2="608.2969"/><line style="stroke:#181818;stroke-width:0.5;" x1="1615.5" x2="1789.335" y1="616.2969" y2="616.2969"/></g><!--class CustomNode--><g id="elem_CustomNode"><rect codeLine="12" fill="#F1F1F1" height="471.7188" id="CustomNode" rx="2.5" ry="2.5" style="stroke:#181818;stroke-width:0.5;" width="872.9863" x="7" y="44.2969"/><ellipse cx="394.1567" cy="60.2969" fill="#ADD1B2" rx="11" ry="11" style="stroke:#181818;stroke-width:1;"/><path d="M397.1255,65.9375 Q396.5474,66.2344 395.9067,66.375 Q395.2661,66.5313 394.563,66.5313 Q392.063,66.5313 390.7349,64.8906 Q389.4224,63.2344 389.4224,60.1094 Q389.4224,56.9844 390.7349,55.3281 Q392.063,53.6719 394.563,53.6719 Q395.2661,53.6719 395.9067,53.8281 Q396.563,53.9844 397.1255,54.2813 L397.1255,57 Q396.5005,56.4219 395.9067,56.1563 Q395.313,55.875 394.688,55.875 Q393.3442,55.875 392.6567,56.9531 Q391.9692,58.0156 391.9692,60.1094 Q391.9692,62.2031 392.6567,63.2813 Q393.3442,64.3438 394.688,64.3438 Q395.313,64.3438 395.9067,64.0781 Q396.5005,63.7969 397.1255,63.2188 L397.1255,65.9375 Z " fill="#000000"/><text fill="#000000" font-family="sans-serif" font-size="14" lengthAdjust="spacing" textLength="90.1729" x="414.6567" y="65.1436">CustomNode</text><line style="stroke:#181818;stroke-width:0.5;" x1="8" x2="878.9863" y1="76.2969" y2="76.2969"/><ellipse cx="18" cy="89.9453" fill="transparent" rx="3" ry="3" style="stroke:#038048;stroke-width:1;"/><text fill="#000000" font-family="sans-serif" font-size="14" lengthAdjust="spacing" textLength="251.1182" x="27" y="93.292">const std::string BASE_NODE_NAME</text><ellipse cx="18" cy="106.2422" fill="transparent" rx="3" ry="3" style="stroke:#038048;stroke-width:1;"/><text fill="#000000" font-family="sans-serif" font-size="14" lengthAdjust="spacing" textLength="289.9668" x="27" y="109.5889">const uint16_t MAJOR_RELEASE_VERSION</text><ellipse cx="18" cy="122.5391" fill="transparent" rx="3" ry="3" style="stroke:#038048;stroke-width:1;"/><text fill="#000000" font-family="sans-serif" font-size="14" lengthAdjust="spacing" textLength="290.8623" x="27" y="125.8857">const uint16_t MINOR_RELEASE_VERSION</text><ellipse cx="18" cy="138.8359" fill="transparent" rx="3" ry="3" style="stroke:#038048;stroke-width:1;"/><text fill="#000000" font-family="sans-serif" font-size="14" lengthAdjust="spacing" textLength="214.7852" x="27" y="142.1826">const uint16_t BUILD_NUMBER</text><ellipse cx="18" cy="155.1328" fill="transparent" rx="3" ry="3" style="stroke:#038048;stroke-width:1;"/><text fill="#000000" font-family="sans-serif" font-size="14" lengthAdjust="spacing" textLength="295.8525" x="27" y="158.4795">const std::string FIRMWARE_DESCRIPTION</text><ellipse cx="18" cy="171.4297" fill="transparent" rx="3" ry="3" style="stroke:#038048;stroke-width:1;"/><text fill="#000000" font-family="sans-serif" font-size="14" lengthAdjust="spacing" textLength="384.7197" x="27" y="174.7764">const eros::System::MainSystem DIAGNOSTIC_SYSTEM</text><ellipse cx="18" cy="187.7266" fill="transparent" rx="3" ry="3" style="stroke:#038048;stroke-width:1;"/><text fill="#000000" font-family="sans-serif" font-size="14" lengthAdjust="spacing" textLength="406.6836" x="27" y="191.0732">const eros::System::SubSystem DIAGNOSTIC_SUBSYSTEM</text><ellipse cx="18" cy="204.0234" fill="transparent" rx="3" ry="3" style="stroke:#038048;stroke-width:1;"/><text fill="#000000" font-family="sans-serif" font-size="14" lengthAdjust="spacing" textLength="415.249" x="27" y="207.3701">const eros::System::Component DIAGNOSTIC_COMPONENT</text><text fill="#000000" font-family="sans-serif" font-size="14" lengthAdjust="spacing" textLength="4.4502" x="27" y="223.667">&#160;</text><rect fill="transparent" height="6" style="stroke:#C82930;stroke-width:1;" width="6" x="15" y="233.6172"/><text fill="#000000" font-family="sans-serif" font-size="14" lengthAdjust="spacing" textLength="214.1084" x="27" y="239.9639">CustomNodeProcess* process;</text><line style="stroke:#181818;stroke-width:0.5;" x1="8" x2="878.9863" y1="247.2656" y2="247.2656"/><ellipse cx="18" cy="260.9141" fill="#84BE84" rx="3" ry="3" style="stroke:#038048;stroke-width:1;"/><text fill="#000000" font-family="sans-serif" font-size="14" lengthAdjust="spacing" textLength="250.3047" x="27" y="264.2607">CustomNodeProcess* get_process()</text><ellipse cx="18" cy="277.2109" fill="#84BE84" rx="3" ry="3" style="stroke:#038048;stroke-width:1;"/><text fill="#000000" font-family="sans-serif" font-size="14" lengthAdjust="spacing" textLength="77.8887" x="27" y="280.5576">bool start()</text><ellipse cx="18" cy="293.5078" fill="#84BE84" rx="3" ry="3" style="stroke:#038048;stroke-width:1;"/><text fill="#000000" font-family="sans-serif" font-size="14" lengthAdjust="spacing" textLength="410.0332" x="27" y="296.8545">eros::Diagnostic::DiagnosticDefinition finish_initialization()</text><ellipse cx="18" cy="309.8047" fill="#84BE84" rx="3" ry="3" style="stroke:#038048;stroke-width:1;"/><text fill="#000000" font-family="sans-serif" font-size="14" lengthAdjust="spacing" textLength="114.5977" x="27" y="313.1514">bool run_loop1()</text><ellipse cx="18" cy="326.1016" fill="#84BE84" rx="3" ry="3" style="stroke:#038048;stroke-width:1;"/><text fill="#000000" font-family="sans-serif" font-size="14" lengthAdjust="spacing" textLength="114.5977" x="27" y="329.4482">bool run_loop2()</text><ellipse cx="18" cy="342.3984" fill="#84BE84" rx="3" ry="3" style="stroke:#038048;stroke-width:1;"/><text fill="#000000" font-family="sans-serif" font-size="14" lengthAdjust="spacing" textLength="114.5977" x="27" y="345.7451">bool run_loop3()</text><ellipse cx="18" cy="358.6953" fill="#84BE84" rx="3" ry="3" style="stroke:#038048;stroke-width:1;"/><text fill="#000000" font-family="sans-serif" font-size="14" lengthAdjust="spacing" textLength="118.7266" x="27" y="362.042">bool run_001hz()</text><ellipse cx="18" cy="374.9922" fill="#84BE84" rx="3" ry="3" style="stroke:#038048;stroke-width:1;"/><text fill="#000000" font-family="sans-serif" font-size="14" lengthAdjust="spacing" textLength="109.8193" x="27" y="378.3389">bool run_01hz()</text><ellipse cx="18" cy="391.2891" fill="#84BE84" rx="3" ry="3" style="stroke:#038048;stroke-width:1;"/><text fill="#000000" font-family="sans-serif" font-size="14" lengthAdjust="spacing" textLength="153.7266" x="27" y="394.6357">bool run_01hz_noisy()</text><ellipse cx="18" cy="407.5859" fill="#84BE84" rx="3" ry="3" style="stroke:#038048;stroke-width:1;"/><text fill="#000000" font-family="sans-serif" font-size="14" lengthAdjust="spacing" textLength="100.9121" x="27" y="410.9326">bool run_1hz()</text><ellipse cx="18" cy="423.8828" fill="#84BE84" rx="3" ry="3" style="stroke:#038048;stroke-width:1;"/><text fill="#000000" font-family="sans-serif" font-size="14" lengthAdjust="spacing" textLength="109.8193" x="27" y="427.2295">bool run_10hz()</text><ellipse cx="18" cy="440.1797" fill="#84BE84" rx="3" ry="3" style="stroke:#038048;stroke-width:1;"/><text fill="#000000" font-family="sans-serif" font-size="14" lengthAdjust="spacing" textLength="128.1055" x="27" y="443.5264">void thread_loop()</text><ellipse cx="18" cy="456.4766" fill="#84BE84" rx="3" ry="3" style="stroke:#038048;stroke-width:1;"/><text fill="#000000" font-family="sans-serif" font-size="14" lengthAdjust="spacing" textLength="100.4131" x="27" y="459.8232">void cleanup()</text><ellipse cx="18" cy="472.7734" fill="#84BE84" rx="3" ry="3" style="stroke:#038048;stroke-width:1;"/><text fill="#000000" font-family="sans-serif" font-size="14" lengthAdjust="spacing" textLength="846.9863" x="27" y="476.1201">bool changenodestate_service(eros::srv_change_nodestate::Request&amp; req, eros::srv_change_nodestate::Response&amp; res)</text><ellipse cx="18" cy="489.0703" fill="#84BE84" rx="3" ry="3" style="stroke:#038048;stroke-width:1;"/><text fill="#000000" font-family="sans-serif" font-size="14" lengthAdjust="spacing" textLength="629.3643" x="27" y="492.417">void system_commandAction_Callback(const eros::system_commandGoalConstPtr&amp; goal)</text><ellipse cx="18" cy="505.3672" fill="#84BE84" rx="3" ry="3" style="stroke:#038048;stroke-width:1;"/><text fill="#000000" font-family="sans-serif" font-size="14" lengthAdjust="spacing" textLength="459.9834" x="27" y="508.7139">void command_Callback(const eros::command::ConstPtr&amp; t_msg)</text></g><!--class CustomNodeProcess--><g id="elem_CustomNodeProcess"><rect codeLine="40" fill="#F1F1F1" height="145.7813" id="CustomNodeProcess" rx="2.5" ry="2.5" style="stroke:#181818;stroke-width:0.5;" width="684.5605" x="915" y="207.2969"/><ellipse cx="1181.1128" cy="223.2969" fill="#ADD1B2" rx="11" ry="11" style="stroke:#181818;stroke-width:1;"/><path d="M1184.0815,228.9375 Q1183.5034,229.2344 1182.8628,229.375 Q1182.2222,229.5313 1181.519,229.5313 Q1179.019,229.5313 1177.6909,227.8906 Q1176.3784,226.2344 1176.3784,223.1094 Q1176.3784,219.9844 1177.6909,218.3281 Q1179.019,216.6719 1181.519,216.6719 Q1182.2222,216.6719 1182.8628,216.8281 Q1183.519,216.9844 1184.0815,217.2813 L1184.0815,220 Q1183.4565,219.4219 1182.8628,219.1563 Q1182.269,218.875 1181.644,218.875 Q1180.3003,218.875 1179.6128,219.9531 Q1178.9253,221.0156 1178.9253,223.1094 Q1178.9253,225.2031 1179.6128,226.2813 Q1180.3003,227.3438 1181.644,227.3438 Q1182.269,227.3438 1182.8628,227.0781 Q1183.4565,226.7969 1184.0815,226.2188 L1184.0815,228.9375 Z " fill="#000000"/><text fill="#000000" font-family="sans-serif" font-size="14" lengthAdjust="spacing" textLength="143.835" x="1201.6128" y="228.1436">CustomNodeProcess</text><line style="stroke:#181818;stroke-width:0.5;" x1="916" x2="1598.5605" y1="239.2969" y2="239.2969"/><line style="stroke:#181818;stroke-width:0.5;" x1="916" x2="1598.5605" y1="247.2969" y2="247.2969"/><ellipse cx="926" cy="260.9453" fill="#84BE84" rx="3" ry="3" style="stroke:#038048;stroke-width:1;"/><text fill="#000000" font-family="sans-serif" font-size="14" lengthAdjust="spacing" textLength="410.0332" x="935" y="264.292">eros::Diagnostic::DiagnosticDefinition finish_initialization()</text><ellipse cx="926" cy="277.2422" fill="#84BE84" rx="3" ry="3" style="stroke:#038048;stroke-width:1;"/><text fill="#000000" font-family="sans-serif" font-size="14" lengthAdjust="spacing" textLength="80.7666" x="935" y="280.5889">void reset()</text><ellipse cx="926" cy="293.5391" fill="#84BE84" rx="3" ry="3" style="stroke:#038048;stroke-width:1;"/><text fill="#000000" font-family="sans-serif" font-size="14" lengthAdjust="spacing" textLength="542.3086" x="935" y="296.8857">eros::Diagnostic::DiagnosticDefinition update(double t_dt, double t_ros_time)</text><ellipse cx="926" cy="309.8359" fill="#84BE84" rx="3" ry="3" style="stroke:#038048;stroke-width:1;"/><text fill="#000000" font-family="sans-serif" font-size="14" lengthAdjust="spacing" textLength="658.5605" x="935" y="313.1826">std::vector&lt;eros::Diagnostic::DiagnosticDefinition&gt; new_commandmsg(eros::command msg)</text><ellipse cx="926" cy="326.1328" fill="#84BE84" rx="3" ry="3" style="stroke:#038048;stroke-width:1;"/><text fill="#000000" font-family="sans-serif" font-size="14" lengthAdjust="spacing" textLength="550.9492" x="935" y="329.4795">std::vector&lt;eros::Diagnostic::DiagnosticDefinition&gt; check_programvariables()</text><ellipse cx="926" cy="342.4297" fill="#84BE84" rx="3" ry="3" style="stroke:#038048;stroke-width:1;"/><text fill="#000000" font-family="sans-serif" font-size="14" lengthAdjust="spacing" textLength="100.4131" x="935" y="345.7764">void cleanup()</text></g><!--reverse link BaseNode to CustomNode--><g id="link_BaseNode_CustomNode"><path codeLine="9" d="M1878.6615,322.4196 C1880.3315,381.1596 1884.19,517.6069 1885.85,576.2569 " fill="transparent" id="BaseNode-backto-CustomNode" style="stroke:#181818;stroke-width:1;"/><polygon fill="transparent" points="1878.15,304.4269,1872.664,322.5901,1884.6591,322.2491,1878.15,304.4269" style="stroke:#181818;stroke-width:1;"/></g><!--reverse link BaseNodeProcess to CustomNodeProcess--><g id="link_BaseNodeProcess_CustomNodeProcess"><path codeLine="10" d="M1711.2064,322.4181 C1709.3664,381.1581 1705.07,517.6069 1703.22,576.2569 " fill="transparent" id="BaseNodeProcess-backto-CustomNodeProcess" style="stroke:#181818;stroke-width:1;"/><polygon fill="transparent" points="1711.77,304.4269,1705.2094,322.2302,1717.2035,322.6059,1711.77,304.4269" style="stroke:#181818;stroke-width:1;"/></g><!--link CustomNode to CustomNodeProcess--><g id="link_CustomNode_CustomNodeProcess"><path codeLine="49" d="M880.31,280.2969 C891.85,280.2969 897.39,280.2969 908.93,280.2969 " fill="transparent" id="CustomNode-to-CustomNodeProcess" style="stroke:#181818;stroke-width:1;"/><polygon fill="#181818" points="914.93,280.2969,905.93,276.2969,909.93,280.2969,905.93,284.2969,914.93,280.2969" style="stroke:#181818;stroke-width:1;"/></g><!--SRC=[hLLTRvim57tFhxXFLRerKh99Us1LfGHOnLH81CccFLcEyOXLiAbjCgNj_ljiI9eFoDPDUq7Nn-SUsyVN5yrqJc6-AHd1ERYLqgA0IAGKt1mh1Hx3cSH5hrTYSeyp2bGA1Kyz05BFJx2Ybju2Pb8GgbJlvpwrKbJEjh5Ls57X-damsAwzrJfHEMNinPj5zpErCC1R8hZIe7JgE4fBnZEOZ1CVHLFFVCQXVyYg6DUZ3qX3EFuyZL7it_cM-yMFas0QTJE3w9NCoIAuyr2q22T-V6vhdu8u_3gEVUJvYHi7i_c9cFNSSPADqhHmd10ptiJW1UFRQ9hC0nSbtvAv7vxFIgfbHz9YygSyLnIbu9Jhmpnt6iwcaH_DcxpMnRo1Z6fKDeF-PSDQ2f6ROsEfTqYpaYqnBfHcv33sw7V6cMQ2WmtK2jL3dBD7RD4ZLLbnb0jHZZhHTvte-nOw78vMZstq78YuO6hJckgYZuPxS2rO2debAKxhVHpX9AUOL-MH05bXdb5kt3NcQOhCArepGlkDUqgkKSD0BnJ7YUb3PU8BaFJX2dxFLEP-5RLKTRWLLHS08g8eC4_7n9gEN9pdI_E4-uUbSioy5JXtxUnComl8pEZeW0sfMsWxQOjkbwzHeRBBNgqmwAYpROrzx6W5kzxnzF-AhJw2yOd-RGbNPMhSxgUYMffsgr6gh-1bO2IGPWNTIjQTOKs95lBwTV8tmEcFdV_6h_wHdL0x-C_IP4N9lNtBzZ-mnf9XisjrfchDDHpqui5D-pf-0G00]--></g></svg>