<?xml version="1.0" encoding="UTF-8" standalone="no"?><svg xmlns="http://www.w3.org/2000/svg" xmlns:xlink="http://www.w3.org/1999/xlink" contentStyleType="text/css" height="207px" preserveAspectRatio="none" style="width:242px;height:207px;background:#FFFFFF;" version="1.1" viewBox="0 0 242 207" width="242px" zoomAndPan="magnify"><defs/><g><rect fill="none" height="26.2969" id="_title" style="stroke:none;stroke-width:1.0;" width="224" x="5" y="5"/><text fill="#000000" font-family="sans-serif" font-size="14" font-weight="bold" lengthAdjust="spacing" textLength="214" x="10" y="22.9951">Info Window Class Diagram</text><!--MD5=[2506e8cbce3968d97a35ac88ada47e1e]
class WindowText--><g id="elem_WindowText"><rect codeLine="2" fill="#F1F1F1" height="48" id="WindowText" rx="2.5" ry="2.5" style="stroke:#181818;stroke-width:0.5;" width="118" x="65" y="44.2969"/><ellipse cx="80" cy="60.2969" fill="#A9DCDF" rx="11" ry="11" style="stroke:#181818;stroke-width:1.0;"/><path d="M80.1094,55.6406 L78.9531,60.7188 L81.2813,60.7188 L80.1094,55.6406 Z M78.625,53.4063 L81.6094,53.4063 L84.9688,65.7969 L82.5156,65.7969 L81.75,62.7344 L78.4688,62.7344 L77.7188,65.7969 L75.2813,65.7969 L78.625,53.4063 Z " fill="#000000"/><text fill="#000000" font-family="sans-serif" font-size="14" font-style="italic" lengthAdjust="spacing" textLength="86" x="94" y="65.1436">WindowText</text><line style="stroke:#181818;stroke-width:0.5;" x1="66" x2="182" y1="76.2969" y2="76.2969"/><line style="stroke:#181818;stroke-width:0.5;" x1="66" x2="182" y1="84.2969" y2="84.2969"/></g><!--MD5=[83add7b9fa9224330e9e959a72788ec5]
class InfoWindow--><g id="elem_InfoWindow"><rect codeLine="5" fill="#F1F1F1" height="48" id="InfoWindow" rx="2.5" ry="2.5" style="stroke:#181818;stroke-width:0.5;" width="111" x="68.5" y="152.2969"/><ellipse cx="83.5" cy="168.2969" fill="#ADD1B2" rx="11" ry="11" style="stroke:#181818;stroke-width:1.0;"/><path d="M86.4688,173.9375 Q85.8906,174.2344 85.25,174.375 Q84.6094,174.5313 83.9063,174.5313 Q81.4063,174.5313 80.0781,172.8906 Q78.7656,171.2344 78.7656,168.1094 Q78.7656,164.9844 80.0781,163.3281 Q81.4063,161.6719 83.9063,161.6719 Q84.6094,161.6719 85.25,161.8281 Q85.9063,161.9844 86.4688,162.2813 L86.4688,165 Q85.8438,164.4219 85.25,164.1563 Q84.6563,163.875 84.0313,163.875 Q82.6875,163.875 82,164.9531 Q81.3125,166.0156 81.3125,168.1094 Q81.3125,170.2031 82,171.2813 Q82.6875,172.3438 84.0313,172.3438 Q84.6563,172.3438 85.25,172.0781 Q85.8438,171.7969 86.4688,171.2188 L86.4688,173.9375 Z " fill="#000000"/><text fill="#000000" font-family="sans-serif" font-size="14" lengthAdjust="spacing" textLength="79" x="97.5" y="173.1436">InfoWindow</text><line style="stroke:#181818;stroke-width:0.5;" x1="69.5" x2="178.5" y1="184.2969" y2="184.2969"/><line style="stroke:#181818;stroke-width:0.5;" x1="69.5" x2="178.5" y1="192.2969" y2="192.2969"/></g><!--MD5=[5cdb8755b779d3d68a1b6b02431b4e06]
reverse link WindowText to InfoWindow--><g id="link_WindowText_InfoWindow"><path codeLine="8" d="M124,112.3169 C124,125.8769 124,140.3369 124,151.9769 " fill="none" id="WindowText-backto-InfoWindow" style="stroke:#181818;stroke-width:1.0;"/><polygon fill="none" points="117,112.2969,124,92.2969,131,112.2969,117,112.2969" style="stroke:#181818;stroke-width:1.0;"/></g><!--MD5=[83e944e37f81c6cc4815295ea8c1031e]
@startuml
title "Info Window Class Diagram"
abstract WindowText {
    
}
class InfoWindow {

}
WindowText <|- - InfoWindow
@enduml

PlantUML version 1.2022.8(Sun Sep 25 04:00:33 CDT 2022)
(GPL source distribution)
Java Runtime: OpenJDK Runtime Environment
JVM: OpenJDK 64-Bit Server VM
Default Encoding: UTF-8
Language: en
Country: US
--></g></svg>