<svg xmlns="http://www.w3.org/2000/svg" xmlns:xlink="http://www.w3.org/1999/xlink" contentStyleType="text/css" data-diagram-type="CLASS" height="675px" preserveAspectRatio="none" style="width:799px;height:675px;background:#FFFFFF;" version="1.1" viewBox="0 0 799 675" width="799px" zoomAndPan="magnify"><title>Logger Class Diagram</title><defs/><g><text fill="#000000" font-family="sans-serif" font-size="14" font-weight="bold" lengthAdjust="spacing" textLength="172.7441" x="306.3779" y="22.9951">Logger Class Diagram</text><!--cluster eros--><g id="cluster_eros"><path d="M23,43.2969 L58.3506,43.2969 A3.75,3.75 0 0 1 60.8506,45.7969 L67.8506,65.5938 L790,65.5938 A2.5,2.5 0 0 1 792.5,68.0938 L792.5,139.7969 A2.5,2.5 0 0 1 790,142.2969 L23,142.2969 A2.5,2.5 0 0 1 20.5,139.7969 L20.5,45.7969 A2.5,2.5 0 0 1 23,43.2969 " fill="transparent" style="stroke:#000000;stroke-width:1.5;"/><line style="stroke:#000000;stroke-width:1.5;" x1="20.5" x2="67.8506" y1="65.5938" y2="65.5938"/><text fill="#000000" font-family="sans-serif" font-size="14" font-weight="bold" lengthAdjust="spacing" textLength="34.3506" x="24.5" y="58.292">eros</text></g><!--class Logger--><g id="elem_Logger"><rect codeLine="3" fill="#F1F1F1" height="48" id="Logger" rx="2.5" ry="2.5" style="stroke:#181818;stroke-width:0.5;" width="80.5078" x="695" y="78.2969"/><ellipse cx="710" cy="94.2969" fill="#ADD1B2" rx="11" ry="11" style="stroke:#181818;stroke-width:1;"/><path d="M712.9688,99.9375 Q712.3906,100.2344 711.75,100.375 Q711.1094,100.5313 710.4063,100.5313 Q707.9063,100.5313 706.5781,98.8906 Q705.2656,97.2344 705.2656,94.1094 Q705.2656,90.9844 706.5781,89.3281 Q707.9063,87.6719 710.4063,87.6719 Q711.1094,87.6719 711.75,87.8281 Q712.4063,87.9844 712.9688,88.2813 L712.9688,91 Q712.3438,90.4219 711.75,90.1563 Q711.1563,89.875 710.5313,89.875 Q709.1875,89.875 708.5,90.9531 Q707.8125,92.0156 707.8125,94.1094 Q707.8125,96.2031 708.5,97.2813 Q709.1875,98.3438 710.5313,98.3438 Q711.1563,98.3438 711.75,98.0781 Q712.3438,97.7969 712.9688,97.2188 L712.9688,99.9375 Z " fill="#000000"/><text fill="#000000" font-family="sans-serif" font-size="14" lengthAdjust="spacing" textLength="48.5078" x="724" y="99.1436">Logger</text><line style="stroke:#181818;stroke-width:0.5;" x1="696" x2="774.5078" y1="110.2969" y2="110.2969"/><line style="stroke:#181818;stroke-width:0.5;" x1="696" x2="774.5078" y1="118.2969" y2="118.2969"/></g><!--class Logger::LoggerStatus--><g id="elem_Logger::LoggerStatus"><rect codeLine="4" fill="#F1F1F1" height="48" id="Logger::LoggerStatus" rx="2.5" ry="2.5" style="stroke:#181818;stroke-width:0.5;" width="183.0605" x="477" y="78.2969"/><ellipse cx="492" cy="94.2969" fill="#EB937F" rx="11" ry="11" style="stroke:#181818;stroke-width:1;"/><path d="M496.1094,100.2969 L488.3906,100.2969 L488.3906,87.9063 L496.1094,87.9063 L496.1094,90.0625 L490.8438,90.0625 L490.8438,92.7344 L495.6094,92.7344 L495.6094,94.8906 L490.8438,94.8906 L490.8438,98.1406 L496.1094,98.1406 L496.1094,100.2969 Z " fill="#000000"/><text fill="#000000" font-family="sans-serif" font-size="14" lengthAdjust="spacing" textLength="151.0605" x="506" y="99.1436">Logger::LoggerStatus</text><line style="stroke:#181818;stroke-width:0.5;" x1="478" x2="659.0605" y1="110.2969" y2="110.2969"/><line style="stroke:#181818;stroke-width:0.5;" x1="478" x2="659.0605" y1="118.2969" y2="118.2969"/></g><!--class Level::Type--><g id="elem_Level::Type"><rect codeLine="5" fill="#F1F1F1" height="48" id="Level::Type" rx="2.5" ry="2.5" style="stroke:#181818;stroke-width:0.5;" width="112.9717" x="329" y="78.2969"/><ellipse cx="344" cy="94.2969" fill="#EB937F" rx="11" ry="11" style="stroke:#181818;stroke-width:1;"/><path d="M348.1094,100.2969 L340.3906,100.2969 L340.3906,87.9063 L348.1094,87.9063 L348.1094,90.0625 L342.8438,90.0625 L342.8438,92.7344 L347.6094,92.7344 L347.6094,94.8906 L342.8438,94.8906 L342.8438,98.1406 L348.1094,98.1406 L348.1094,100.2969 Z " fill="#000000"/><text fill="#000000" font-family="sans-serif" font-size="14" lengthAdjust="spacing" textLength="80.9717" x="358" y="99.1436">Level::Type</text><line style="stroke:#181818;stroke-width:0.5;" x1="330" x2="440.9717" y1="110.2969" y2="110.2969"/><line style="stroke:#181818;stroke-width:0.5;" x1="330" x2="440.9717" y1="118.2969" y2="118.2969"/></g><!--class Diagnostic::DiagnosticDefinition--><g id="elem_Diagnostic::DiagnosticDefinition"><rect codeLine="6" fill="#F1F1F1" height="48" id="Diagnostic::DiagnosticDefinition" rx="2.5" ry="2.5" style="stroke:#181818;stroke-width:0.5;" width="257.1143" x="37" y="78.2969"/><ellipse cx="52" cy="94.2969" fill="#F1F1F1" rx="11" ry="11" style="stroke:#181818;stroke-width:1;"/><path d="M51.4844,94.8594 Q49.625,94.1563 48.9688,93.3906 Q48.3281,92.6094 48.3281,91.2969 Q48.3281,89.6094 49.4063,88.6406 Q50.4844,87.6719 52.3594,87.6719 Q53.2188,87.6719 54.0625,87.875 Q54.9219,88.0625 55.7656,88.4531 L55.7656,90.8438 Q54.9844,90.2813 54.1563,90 Q53.3438,89.7031 52.5469,89.7031 Q51.6719,89.7031 51.1875,90.0625 Q50.7188,90.4219 50.7188,91.0781 Q50.7188,91.5938 51.0625,91.9375 Q51.4063,92.2656 52.5,92.6719 L53.5625,93.0781 Q55.0469,93.625 55.75,94.5313 Q56.4688,95.4375 56.4688,96.8125 Q56.4688,98.6875 55.3594,99.6094 Q54.25,100.5313 52,100.5313 Q51.0781,100.5313 50.1563,100.3125 Q49.2344,100.0938 48.375,99.6719 L48.375,97.1406 Q49.3438,97.8281 50.2656,98.1719 Q51.1875,98.5156 52.0781,98.5156 Q52.9844,98.5156 53.4844,98.1094 Q53.9844,97.6875 53.9844,96.9531 Q53.9844,96.3906 53.6406,95.9844 Q53.3125,95.5625 52.6875,95.3125 L51.4844,94.8594 Z " fill="#000000"/><text fill="#000000" font-family="sans-serif" font-size="14" lengthAdjust="spacing" textLength="225.1143" x="66" y="99.1436">Diagnostic::DiagnosticDefinition</text><line style="stroke:#181818;stroke-width:0.5;" x1="38" x2="293.1143" y1="110.2969" y2="110.2969"/><line style="stroke:#181818;stroke-width:0.5;" x1="38" x2="293.1143" y1="118.2969" y2="118.2969"/></g><!--class Logger--><g id="elem_Logger"><rect codeLine="8" fill="#F1F1F1" height="325.0469" id="Logger" rx="2.5" ry="2.5" style="stroke:#181818;stroke-width:0.5;" width="536.501" x="7" y="186.2969"/><ellipse cx="246.7466" cy="202.2969" fill="#ADD1B2" rx="11" ry="11" style="stroke:#181818;stroke-width:1;"/><path d="M249.7153,207.9375 Q249.1372,208.2344 248.4966,208.375 Q247.856,208.5313 247.1528,208.5313 Q244.6528,208.5313 243.3247,206.8906 Q242.0122,205.2344 242.0122,202.1094 Q242.0122,198.9844 243.3247,197.3281 Q244.6528,195.6719 247.1528,195.6719 Q247.856,195.6719 248.4966,195.8281 Q249.1528,195.9844 249.7153,196.2813 L249.7153,199 Q249.0903,198.4219 248.4966,198.1563 Q247.9028,197.875 247.2778,197.875 Q245.9341,197.875 245.2466,198.9531 Q244.5591,200.0156 244.5591,202.1094 Q244.5591,204.2031 245.2466,205.2813 Q245.9341,206.3438 247.2778,206.3438 Q247.9028,206.3438 248.4966,206.0781 Q249.0903,205.7969 249.7153,205.2188 L249.7153,207.9375 Z " fill="#000000"/><text fill="#000000" font-family="sans-serif" font-size="14" lengthAdjust="spacing" textLength="48.5078" x="267.2466" y="207.1436">Logger</text><line style="stroke:#181818;stroke-width:0.5;" x1="8" x2="542.501" y1="218.2969" y2="218.2969"/><line style="stroke:#181818;stroke-width:0.5;" x1="8" x2="542.501" y1="226.2969" y2="226.2969"/><ellipse cx="18" cy="239.9453" fill="#84BE84" rx="3" ry="3" style="stroke:#038048;stroke-width:1;"/><text fill="#000000" font-family="sans-serif" font-size="14" lengthAdjust="spacing" textLength="292.8105" x="27" y="243.292">Logger(std::string level, std::string name)</text><ellipse cx="18" cy="256.2422" fill="#84BE84" rx="3" ry="3" style="stroke:#038048;stroke-width:1;"/><text fill="#000000" font-family="sans-serif" font-size="14" lengthAdjust="spacing" textLength="440.3916" x="27" y="259.5889">Logger(std::string level, std::string directory, std::string name)</text><ellipse cx="18" cy="272.5391" fill="#84BE84" rx="3" ry="3" style="stroke:#038048;stroke-width:1;"/><text fill="#000000" font-family="sans-serif" font-size="14" lengthAdjust="spacing" textLength="212.7412" x="27" y="275.8857">Level::Type get_logverbosity()</text><ellipse cx="18" cy="288.8359" fill="#84BE84" rx="3" ry="3" style="stroke:#038048;stroke-width:1;"/><text fill="#000000" font-family="sans-serif" font-size="14" lengthAdjust="spacing" textLength="131.7354" x="27" y="292.1826">bool is_logger_ok()</text><ellipse cx="18" cy="305.1328" fill="#84BE84" rx="3" ry="3" style="stroke:#038048;stroke-width:1;"/><text fill="#000000" font-family="sans-serif" font-size="14" lengthAdjust="spacing" textLength="278.7969" x="27" y="308.4795">bool set_logverbosity(Level::Type level)</text><ellipse cx="18" cy="321.4297" fill="#84BE84" rx="3" ry="3" style="stroke:#038048;stroke-width:1;"/><text fill="#000000" font-family="sans-serif" font-size="14" lengthAdjust="spacing" textLength="188.4326" x="27" y="324.7764">void disable_consoleprint()</text><ellipse cx="18" cy="337.7266" fill="#84BE84" rx="3" ry="3" style="stroke:#038048;stroke-width:1;"/><text fill="#000000" font-family="sans-serif" font-size="14" lengthAdjust="spacing" textLength="185.8486" x="27" y="341.0732">void enable_consoleprint()</text><ellipse cx="18" cy="354.0234" fill="#84BE84" rx="3" ry="3" style="stroke:#038048;stroke-width:1;"/><text fill="#000000" font-family="sans-serif" font-size="14" lengthAdjust="spacing" textLength="180.9678" x="27" y="357.3701">bool enable_ROS_logger()</text><text fill="#000000" font-family="sans-serif" font-size="14" lengthAdjust="spacing" textLength="4.4502" x="27" y="373.667">&#160;</text><ellipse cx="18" cy="386.6172" fill="#84BE84" rx="3" ry="3" style="stroke:#038048;stroke-width:1;"/><text fill="#000000" font-family="sans-serif" font-size="14" lengthAdjust="spacing" textLength="275.2627" x="27" y="389.9639">LoggerStatus log_debug(std::string str)</text><ellipse cx="18" cy="402.9141" fill="#84BE84" rx="3" ry="3" style="stroke:#038048;stroke-width:1;"/><text fill="#000000" font-family="sans-serif" font-size="14" lengthAdjust="spacing" textLength="257.373" x="27" y="406.2607">LoggerStatus log_info(std::string str)</text><ellipse cx="18" cy="419.2109" fill="#84BE84" rx="3" ry="3" style="stroke:#038048;stroke-width:1;"/><text fill="#000000" font-family="sans-serif" font-size="14" lengthAdjust="spacing" textLength="274.2441" x="27" y="422.5576">LoggerStatus log_notice(std::string str)</text><ellipse cx="18" cy="435.5078" fill="#84BE84" rx="3" ry="3" style="stroke:#038048;stroke-width:1;"/><text fill="#000000" font-family="sans-serif" font-size="14" lengthAdjust="spacing" textLength="265.7744" x="27" y="438.8545">LoggerStatus log_warn(std::string str)</text><ellipse cx="18" cy="451.8047" fill="#84BE84" rx="3" ry="3" style="stroke:#038048;stroke-width:1;"/><text fill="#000000" font-family="sans-serif" font-size="14" lengthAdjust="spacing" textLength="265.5625" x="27" y="455.1514">LoggerStatus log_error(std::string str)</text><ellipse cx="18" cy="468.1016" fill="#84BE84" rx="3" ry="3" style="stroke:#038048;stroke-width:1;"/><text fill="#000000" font-family="sans-serif" font-size="14" lengthAdjust="spacing" textLength="262.582" x="27" y="471.4482">LoggerStatus log_fatal(std::string str)</text><ellipse cx="18" cy="484.3984" fill="#84BE84" rx="3" ry="3" style="stroke:#038048;stroke-width:1;"/><text fill="#000000" font-family="sans-serif" font-size="14" lengthAdjust="spacing" textLength="275.2627" x="27" y="487.7451">LoggerStatus log_debug(std::string str)</text><ellipse cx="18" cy="500.6953" fill="#84BE84" rx="3" ry="3" style="stroke:#038048;stroke-width:1;"/><text fill="#000000" font-family="sans-serif" font-size="14" lengthAdjust="spacing" textLength="510.501" x="27" y="504.042">LoggerStatus log_diagnostic(Diagnostic::DiagnosticDefinition diagnostic)</text></g><!--class Logger::LoggerStatus--><g id="elem_Logger::LoggerStatus"><rect codeLine="28" fill="#F1F1F1" height="96.8906" id="Logger::LoggerStatus" rx="2.5" ry="2.5" style="stroke:#181818;stroke-width:0.5;" width="183.0605" x="184" y="571.2969"/><ellipse cx="199" cy="587.2969" fill="#EB937F" rx="11" ry="11" style="stroke:#181818;stroke-width:1;"/><path d="M203.1094,593.2969 L195.3906,593.2969 L195.3906,580.9063 L203.1094,580.9063 L203.1094,583.0625 L197.8438,583.0625 L197.8438,585.7344 L202.6094,585.7344 L202.6094,587.8906 L197.8438,587.8906 L197.8438,591.1406 L203.1094,591.1406 L203.1094,593.2969 Z " fill="#000000"/><text fill="#000000" font-family="sans-serif" font-size="14" lengthAdjust="spacing" textLength="151.0605" x="213" y="592.1436">Logger::LoggerStatus</text><line style="stroke:#181818;stroke-width:0.5;" x1="185" x2="366.0605" y1="603.2969" y2="603.2969"/><text fill="#000000" font-family="sans-serif" font-size="14" lengthAdjust="spacing" textLength="121.5361" x="190" y="620.292">FAILED_TO_OPEN</text><text fill="#000000" font-family="sans-serif" font-size="14" lengthAdjust="spacing" textLength="100.7891" x="190" y="636.5889">LOG_WRITTEN</text><text fill="#000000" font-family="sans-serif" font-size="14" lengthAdjust="spacing" textLength="128.6592" x="190" y="652.8857">LOG_SUPPRESSED</text><line style="stroke:#181818;stroke-width:0.5;" x1="185" x2="366.0605" y1="660.1875" y2="660.1875"/></g><!--reverse link Logger to Logger::LoggerStatus--><g id="link_Logger_Logger::LoggerStatus"><path codeLine="33" d="M275.5,527.3169 C275.5,549.0769 275.5,553.8569 275.5,571.2369 " fill="transparent" id="Logger-backto-Logger::LoggerStatus" style="stroke:#181818;stroke-width:1;"/><ellipse cx="275.5" cy="519.3169" fill="#FFFFFF" rx="8" ry="8" style="stroke:#181818;stroke-width:1;"/><line style="stroke:#181818;stroke-width:1;" x1="275.5" x2="275.5" y1="527.3169" y2="511.3169"/><line style="stroke:#181818;stroke-width:1;" x1="267.5" x2="283.5" y1="519.3169" y2="519.3169"/></g><!--reverse link Level::Type to Logger--><g id="link_Level::Type_Logger"><path codeLine="34" d="M370.2286,137.2413 C363.4386,152.3413 358.81,162.6369 348.28,186.0369 " fill="transparent" id="Level::Type-backto-Logger" style="stroke:#181818;stroke-width:1;"/><polygon fill="#181818" points="375.15,126.2969,369.0412,130.1286,370.2286,137.2413,376.3375,133.4095,375.15,126.2969" style="stroke:#181818;stroke-width:1;"/></g><!--reverse link Diagnostic::DiagnosticDefinition to Logger--><g id="link_Diagnostic::DiagnosticDefinition_Logger"><path codeLine="35" d="M180.7714,137.2413 C187.5614,152.3413 192.19,162.6369 202.72,186.0369 " fill="transparent" id="Diagnostic::DiagnosticDefinition-backto-Logger" style="stroke:#181818;stroke-width:1;"/><polygon fill="#181818" points="175.85,126.2969,174.6625,133.4095,180.7714,137.2413,181.9588,130.1286,175.85,126.2969" style="stroke:#181818;stroke-width:1;"/></g><!--SRC=[bPF1Ri8m38RlVOeSonWlaDkqTXCIeeXssh5AMnD5X1WbAHEQzkuBRKJ3j8hIIsh_Nsp7SQom4iWAEGTDNYKpXYI2SSqEqP7LUyQ1W4P3lYFYlhe3UhfpW6eFtgQqNtFBR6i25KuWAItEH-YSnkgsjbqMXSQAcjBXFu6TKC8ALD5F56Rp1SnxApQseTH54eeJUKdmJ4ANOWUOFRAX4HfgY_ey7cSu1k5WIudy1Bf28-mvzao5A8am5ytbB75_8vY_kyAGNKsUFg5eN4M6LHBA6fL12KTNZur30DIetgNp-ZRBVJrE3LlItnDnMjb0rVAR5hbbDW8BjSEfh49tfp2L_c9QJML1QzHJuHspJ4w57sf6SvtS-Dv0au6TkLYH6_3Hr-Ed_UrbkKgJiiZAR9EkEzSgUoy_jykY2EpyOxFPfdcU9YwcVoxpnUB_TnaEtTCLYkvMFx2_]--></g></svg>