<?xml version="1.0" encoding="UTF-8" standalone="no"?><svg xmlns="http://www.w3.org/2000/svg" xmlns:xlink="http://www.w3.org/1999/xlink" contentStyleType="text/css" height="691px" preserveAspectRatio="none" style="width:573px;height:691px;background:#FFFFFF;" version="1.1" viewBox="0 0 573 691" width="573px" zoomAndPan="magnify"><defs/><g><rect fill="none" height="26.2969" id="_title" style="stroke:none;stroke-width:1.0;" width="182" x="188.5" y="5"/><text fill="#000000" font-family="sans-serif" font-size="14" font-weight="bold" lengthAdjust="spacing" textLength="172" x="193.5" y="22.9951">Logger Class Diagram</text><!--MD5=[04e143e1b92f58df159b9d5ccef94150]
cluster eros--><g id="cluster_eros"><path d="M8.5,43.2969 L45.5,43.2969 A3.75,3.75 0 0 1 48,45.7969 L55,65.5938 L563.5,65.5938 A2.5,2.5 0 0 1 566,68.0938 L566,681.7969 A2.5,2.5 0 0 1 563.5,684.2969 L8.5,684.2969 A2.5,2.5 0 0 1 6,681.7969 L6,45.7969 A2.5,2.5 0 0 1 8.5,43.2969 " fill="none" style="stroke:#000000;stroke-width:1.5;"/><line style="stroke:#000000;stroke-width:1.5;" x1="6" x2="55" y1="65.5938" y2="65.5938"/><text fill="#000000" font-family="sans-serif" font-size="14" font-weight="bold" lengthAdjust="spacing" textLength="36" x="10" y="58.292">eros</text></g><!--MD5=[248f897e4bb16c2722904b15df30346f]
class Logger--><g id="elem_Logger"><rect codeLine="8" fill="#F1F1F1" height="325.0469" id="Logger" rx="2.5" ry="2.5" style="stroke:#181818;stroke-width:0.5;" width="527" x="22.5" y="186.2969"/><ellipse cx="257.75" cy="202.2969" fill="#ADD1B2" rx="11" ry="11" style="stroke:#181818;stroke-width:1.0;"/><path d="M260.7188,207.9375 Q260.1406,208.2344 259.5,208.375 Q258.8594,208.5313 258.1563,208.5313 Q255.6563,208.5313 254.3281,206.8906 Q253.0156,205.2344 253.0156,202.1094 Q253.0156,198.9844 254.3281,197.3281 Q255.6563,195.6719 258.1563,195.6719 Q258.8594,195.6719 259.5,195.8281 Q260.1563,195.9844 260.7188,196.2813 L260.7188,199 Q260.0938,198.4219 259.5,198.1563 Q258.9063,197.875 258.2813,197.875 Q256.9375,197.875 256.25,198.9531 Q255.5625,200.0156 255.5625,202.1094 Q255.5625,204.2031 256.25,205.2813 Q256.9375,206.3438 258.2813,206.3438 Q258.9063,206.3438 259.5,206.0781 Q260.0938,205.7969 260.7188,205.2188 L260.7188,207.9375 Z " fill="#000000"/><text fill="#000000" font-family="sans-serif" font-size="14" lengthAdjust="spacing" textLength="48" x="278.25" y="207.1436">Logger</text><line style="stroke:#181818;stroke-width:0.5;" x1="23.5" x2="548.5" y1="218.2969" y2="218.2969"/><line style="stroke:#181818;stroke-width:0.5;" x1="23.5" x2="548.5" y1="226.2969" y2="226.2969"/><ellipse cx="33.5" cy="239.9453" fill="#84BE84" rx="3" ry="3" style="stroke:#038048;stroke-width:1.0;"/><text fill="#000000" font-family="sans-serif" font-size="14" lengthAdjust="spacing" textLength="222" x="42.5" y="243.292">Logger(string level, string name)</text><ellipse cx="33.5" cy="256.2422" fill="#84BE84" rx="3" ry="3" style="stroke:#038048;stroke-width:1.0;"/><text fill="#000000" font-family="sans-serif" font-size="14" lengthAdjust="spacing" textLength="333" x="42.5" y="259.5889">Logger(string level, string directory, string name)</text><ellipse cx="33.5" cy="272.5391" fill="#84BE84" rx="3" ry="3" style="stroke:#038048;stroke-width:1.0;"/><text fill="#000000" font-family="sans-serif" font-size="14" lengthAdjust="spacing" textLength="206" x="42.5" y="275.8857">Level::Type get_logverbosity()</text><ellipse cx="33.5" cy="288.8359" fill="#84BE84" rx="3" ry="3" style="stroke:#038048;stroke-width:1.0;"/><text fill="#000000" font-family="sans-serif" font-size="14" lengthAdjust="spacing" textLength="130" x="42.5" y="292.1826">bool is_logger_ok()</text><ellipse cx="33.5" cy="305.1328" fill="#84BE84" rx="3" ry="3" style="stroke:#038048;stroke-width:1.0;"/><text fill="#000000" font-family="sans-serif" font-size="14" lengthAdjust="spacing" textLength="270" x="42.5" y="308.4795">bool set_logverbosity(Level::Type level)</text><ellipse cx="33.5" cy="321.4297" fill="#84BE84" rx="3" ry="3" style="stroke:#038048;stroke-width:1.0;"/><text fill="#000000" font-family="sans-serif" font-size="14" lengthAdjust="spacing" textLength="184" x="42.5" y="324.7764">void disable_consoleprint()</text><ellipse cx="33.5" cy="337.7266" fill="#84BE84" rx="3" ry="3" style="stroke:#038048;stroke-width:1.0;"/><text fill="#000000" font-family="sans-serif" font-size="14" lengthAdjust="spacing" textLength="182" x="42.5" y="341.0732">void enable_consoleprint()</text><ellipse cx="33.5" cy="354.0234" fill="#84BE84" rx="3" ry="3" style="stroke:#038048;stroke-width:1.0;"/><text fill="#000000" font-family="sans-serif" font-size="14" lengthAdjust="spacing" textLength="179" x="42.5" y="357.3701">bool enable_ROS_logger()</text><text fill="#000000" font-family="sans-serif" font-size="14" lengthAdjust="spacing" textLength="4" x="42.5" y="373.667"> </text><ellipse cx="33.5" cy="386.6172" fill="#84BE84" rx="3" ry="3" style="stroke:#038048;stroke-width:1.0;"/><text fill="#000000" font-family="sans-serif" font-size="14" lengthAdjust="spacing" textLength="240" x="42.5" y="389.9639">LoggerStatus log_debug(string str)</text><ellipse cx="33.5" cy="402.9141" fill="#84BE84" rx="3" ry="3" style="stroke:#038048;stroke-width:1.0;"/><text fill="#000000" font-family="sans-serif" font-size="14" lengthAdjust="spacing" textLength="220" x="42.5" y="406.2607">LoggerStatus log_info(string str)</text><ellipse cx="33.5" cy="419.2109" fill="#84BE84" rx="3" ry="3" style="stroke:#038048;stroke-width:1.0;"/><text fill="#000000" font-family="sans-serif" font-size="14" lengthAdjust="spacing" textLength="238" x="42.5" y="422.5576">LoggerStatus log_notice(string str)</text><ellipse cx="33.5" cy="435.5078" fill="#84BE84" rx="3" ry="3" style="stroke:#038048;stroke-width:1.0;"/><text fill="#000000" font-family="sans-serif" font-size="14" lengthAdjust="spacing" textLength="228" x="42.5" y="438.8545">LoggerStatus log_warn(string str)</text><ellipse cx="33.5" cy="451.8047" fill="#84BE84" rx="3" ry="3" style="stroke:#038048;stroke-width:1.0;"/><text fill="#000000" font-family="sans-serif" font-size="14" lengthAdjust="spacing" textLength="228" x="42.5" y="455.1514">LoggerStatus log_error(string str)</text><ellipse cx="33.5" cy="468.1016" fill="#84BE84" rx="3" ry="3" style="stroke:#038048;stroke-width:1.0;"/><text fill="#000000" font-family="sans-serif" font-size="14" lengthAdjust="spacing" textLength="223" x="42.5" y="471.4482">LoggerStatus log_fatal(string str)</text><ellipse cx="33.5" cy="484.3984" fill="#84BE84" rx="3" ry="3" style="stroke:#038048;stroke-width:1.0;"/><text fill="#000000" font-family="sans-serif" font-size="14" lengthAdjust="spacing" textLength="240" x="42.5" y="487.7451">LoggerStatus log_debug(string str)</text><ellipse cx="33.5" cy="500.6953" fill="#84BE84" rx="3" ry="3" style="stroke:#038048;stroke-width:1.0;"/><text fill="#000000" font-family="sans-serif" font-size="14" lengthAdjust="spacing" textLength="501" x="42.5" y="504.042">LoggerStatus log_diagnostic(Diagnostic::DiagnosticDefinition diagnostic)</text></g><!--MD5=[61275870d0f89876f0f61360bad854ac]
class Logger::LoggerStatus--><g id="elem_Logger::LoggerStatus"><rect codeLine="28" fill="#F1F1F1" height="96.8906" id="Logger::LoggerStatus" rx="2.5" ry="2.5" style="stroke:#181818;stroke-width:0.5;" width="182" x="195" y="571.2969"/><ellipse cx="210" cy="587.2969" fill="#EB937F" rx="11" ry="11" style="stroke:#181818;stroke-width:1.0;"/><path d="M214.1094,593.2969 L206.3906,593.2969 L206.3906,580.9063 L214.1094,580.9063 L214.1094,583.0625 L208.8438,583.0625 L208.8438,585.7344 L213.6094,585.7344 L213.6094,587.8906 L208.8438,587.8906 L208.8438,591.1406 L214.1094,591.1406 L214.1094,593.2969 Z " fill="#000000"/><text fill="#000000" font-family="sans-serif" font-size="14" lengthAdjust="spacing" textLength="150" x="224" y="592.1436">Logger::LoggerStatus</text><line style="stroke:#181818;stroke-width:0.5;" x1="196" x2="376" y1="603.2969" y2="603.2969"/><text fill="#000000" font-family="sans-serif" font-size="14" lengthAdjust="spacing" textLength="120" x="201" y="620.292">FAILED_TO_OPEN</text><text fill="#000000" font-family="sans-serif" font-size="14" lengthAdjust="spacing" textLength="99" x="201" y="636.5889">LOG_WRITTEN</text><text fill="#000000" font-family="sans-serif" font-size="14" lengthAdjust="spacing" textLength="130" x="201" y="652.8857">LOG_SUPPRESSED</text><line style="stroke:#181818;stroke-width:0.5;" x1="196" x2="376" y1="660.1875" y2="660.1875"/></g><!--MD5=[dd6040892b55b688f055f9200384bf77]
class Level::Type--><g id="elem_Level::Type"><rect codeLine="5" fill="#F1F1F1" height="48" id="Level::Type" rx="2.5" ry="2.5" style="stroke:#181818;stroke-width:0.5;" width="111" x="374.5" y="78.2969"/><ellipse cx="389.5" cy="94.2969" fill="#EB937F" rx="11" ry="11" style="stroke:#181818;stroke-width:1.0;"/><path d="M393.6094,100.2969 L385.8906,100.2969 L385.8906,87.9063 L393.6094,87.9063 L393.6094,90.0625 L388.3438,90.0625 L388.3438,92.7344 L393.1094,92.7344 L393.1094,94.8906 L388.3438,94.8906 L388.3438,98.1406 L393.6094,98.1406 L393.6094,100.2969 Z " fill="#000000"/><text fill="#000000" font-family="sans-serif" font-size="14" lengthAdjust="spacing" textLength="79" x="403.5" y="99.1436">Level::Type</text><line style="stroke:#181818;stroke-width:0.5;" x1="375.5" x2="484.5" y1="110.2969" y2="110.2969"/><line style="stroke:#181818;stroke-width:0.5;" x1="375.5" x2="484.5" y1="118.2969" y2="118.2969"/></g><!--MD5=[e5916490e9e6a84b67f3f18d2db3c230]
class Diagnostic::DiagnosticDefinition--><g id="elem_Diagnostic::DiagnosticDefinition"><rect codeLine="6" fill="#F1F1F1" height="48" id="Diagnostic::DiagnosticDefinition" rx="2.5" ry="2.5" style="stroke:#181818;stroke-width:0.5;" width="253" x="86.5" y="78.2969"/><ellipse cx="101.5" cy="94.2969" fill="#F1F1F1" rx="11" ry="11" style="stroke:#181818;stroke-width:1.0;"/><path d="M100.9844,94.8594 Q99.125,94.1563 98.4688,93.3906 Q97.8281,92.6094 97.8281,91.2969 Q97.8281,89.6094 98.9063,88.6406 Q99.9844,87.6719 101.8594,87.6719 Q102.7188,87.6719 103.5625,87.875 Q104.4219,88.0625 105.2656,88.4531 L105.2656,90.8438 Q104.4844,90.2813 103.6563,90 Q102.8438,89.7031 102.0469,89.7031 Q101.1719,89.7031 100.6875,90.0625 Q100.2188,90.4219 100.2188,91.0781 Q100.2188,91.5938 100.5625,91.9375 Q100.9063,92.2656 102,92.6719 L103.0625,93.0781 Q104.5469,93.625 105.25,94.5313 Q105.9688,95.4375 105.9688,96.8125 Q105.9688,98.6875 104.8594,99.6094 Q103.75,100.5313 101.5,100.5313 Q100.5781,100.5313 99.6563,100.3125 Q98.7344,100.0938 97.875,99.6719 L97.875,97.1406 Q98.8438,97.8281 99.7656,98.1719 Q100.6875,98.5156 101.5781,98.5156 Q102.4844,98.5156 102.9844,98.1094 Q103.4844,97.6875 103.4844,96.9531 Q103.4844,96.3906 103.1406,95.9844 Q102.8125,95.5625 102.1875,95.3125 L100.9844,94.8594 Z " fill="#000000"/><text fill="#000000" font-family="sans-serif" font-size="14" lengthAdjust="spacing" textLength="221" x="115.5" y="99.1436">Diagnostic::DiagnosticDefinition</text><line style="stroke:#181818;stroke-width:0.5;" x1="87.5" x2="338.5" y1="110.2969" y2="110.2969"/><line style="stroke:#181818;stroke-width:0.5;" x1="87.5" x2="338.5" y1="118.2969" y2="118.2969"/></g><!--MD5=[752563272d4a4fcaf93567b65e7572b6]
reverse link Logger to Logger::LoggerStatus--><g id="link_Logger_Logger::LoggerStatus"><path codeLine="33" d="M286,526.4269 C286,542.6269 286,557.9269 286,571.2369 " fill="none" id="Logger-backto-Logger::LoggerStatus" style="stroke:#181818;stroke-width:1.0;"/><ellipse cx="286" cy="519.3169" fill="#FFFFFF" rx="8" ry="8" style="stroke:#181818;stroke-width:1.0;"/><line style="stroke:#181818;stroke-width:1.0;" x1="286" x2="286" y1="527.3169" y2="511.3169"/><line style="stroke:#181818;stroke-width:1.0;" x1="278" x2="294" y1="519.3169" y2="519.3169"/></g><!--MD5=[1963ede07ce4ff26f77b941ed202bc5d]
reverse link Level::Type to Logger--><g id="link_Level::Type_Logger"><path codeLine="34" d="M409.64,137.8769 C401.63,151.4669 391.82,168.1169 381.27,186.0369 " fill="none" id="Level::Type-backto-Logger" style="stroke:#181818;stroke-width:1.0;"/><polygon fill="#181818" points="416.45,126.2969,409.9594,129.439,410.3635,136.6387,416.854,133.4967,416.45,126.2969" style="stroke:#181818;stroke-width:1.0;"/></g><!--MD5=[70ff34162c7b3f03e46b0d74bb9735fb]
reverse link Diagnostic::DiagnosticDefinition to Logger--><g id="link_Diagnostic::DiagnosticDefinition_Logger"><path codeLine="35" d="M223.7,139.1269 C227.69,152.4869 232.52,168.6669 237.7,186.0369 " fill="none" id="Diagnostic::DiagnosticDefinition-backto-Logger" style="stroke:#181818;stroke-width:1.0;"/><polygon fill="#181818" points="219.87,126.2969,217.7512,133.1897,223.2988,137.7966,225.4176,130.9038,219.87,126.2969" style="stroke:#181818;stroke-width:1.0;"/></g><!--MD5=[791f07a86f297a8c10735c69c90e8537]
@startuml
title Logger Class Diagram
package eros {
    class Logger
    enum Logger::LoggerStatus
    enum Level::Type
    struct Diagnostic::DiagnosticDefinition
}
class Logger {
    +Logger(string level, string name)
    +Logger(string level, string directory, string name)
    +Level::Type get_logverbosity()
    +bool is_logger_ok()
    +bool set_logverbosity(Level::Type level)
    +void disable_consoleprint()
    +void enable_consoleprint()
    +bool enable_ROS_logger()

    +LoggerStatus log_debug(string str)
    +LoggerStatus log_info(string str)
    +LoggerStatus log_notice(string str)
    +LoggerStatus log_warn(string str)
    +LoggerStatus log_error(string str)
    +LoggerStatus log_fatal(string str)
    +LoggerStatus log_debug(string str)
    +LoggerStatus log_diagnostic(Diagnostic::DiagnosticDefinition diagnostic)   

}
enum Logger::LoggerStatus {
    FAILED_TO_OPEN
    LOG_WRITTEN
    LOG_SUPPRESSED
}
Logger +- - Logger::LoggerStatus
Level::Type *- - Logger
Diagnostic::DiagnosticDefinition *- - Logger
@enduml

PlantUML version 1.2022.8(Sun Sep 25 04:00:33 CDT 2022)
(GPL source distribution)
Java Runtime: OpenJDK Runtime Environment
JVM: OpenJDK 64-Bit Server VM
Default Encoding: UTF-8
Language: en
Country: US
--></g></svg>