<?xml version="1.0" encoding="UTF-8" standalone="no"?><svg xmlns="http://www.w3.org/2000/svg" xmlns:xlink="http://www.w3.org/1999/xlink" contentStyleType="text/css" height="207px" preserveAspectRatio="none" style="width:276px;height:207px;background:#FFFFFF;" version="1.1" viewBox="0 0 276 207" width="276px" zoomAndPan="magnify"><defs/><g><rect fill="none" height="26.2969" id="_title" style="stroke:none;stroke-width:1.0;" width="258" x="5" y="5"/><text fill="#000000" font-family="sans-serif" font-size="14" font-weight="bold" lengthAdjust="spacing" textLength="248" x="10" y="22.9951">Process Window Class Diagram</text><!--MD5=[c58e0bd06874a0c0f3955fe7b23323b6]
class WindowTable--><g id="elem_WindowTable"><rect codeLine="2" fill="#F1F1F1" height="48" id="WindowTable" rx="2.5" ry="2.5" style="stroke:#181818;stroke-width:0.5;" width="125" x="78.5" y="44.2969"/><ellipse cx="93.5" cy="60.2969" fill="#A9DCDF" rx="11" ry="11" style="stroke:#181818;stroke-width:1.0;"/><path d="M93.6094,55.6406 L92.4531,60.7188 L94.7813,60.7188 L93.6094,55.6406 Z M92.125,53.4063 L95.1094,53.4063 L98.4688,65.7969 L96.0156,65.7969 L95.25,62.7344 L91.9688,62.7344 L91.2188,65.7969 L88.7813,65.7969 L92.125,53.4063 Z " fill="#000000"/><text fill="#000000" font-family="sans-serif" font-size="14" font-style="italic" lengthAdjust="spacing" textLength="93" x="107.5" y="65.1436">WindowTable</text><line style="stroke:#181818;stroke-width:0.5;" x1="79.5" x2="202.5" y1="76.2969" y2="76.2969"/><line style="stroke:#181818;stroke-width:0.5;" x1="79.5" x2="202.5" y1="84.2969" y2="84.2969"/></g><!--MD5=[a0f0c4aed4962e578fba1ead3631e8a3]
class ProcessWindow--><g id="elem_ProcessWindow"><rect codeLine="5" fill="#F1F1F1" height="48" id="ProcessWindow" rx="2.5" ry="2.5" style="stroke:#181818;stroke-width:0.5;" width="142" x="70" y="152.2969"/><ellipse cx="85" cy="168.2969" fill="#ADD1B2" rx="11" ry="11" style="stroke:#181818;stroke-width:1.0;"/><path d="M87.9688,173.9375 Q87.3906,174.2344 86.75,174.375 Q86.1094,174.5313 85.4063,174.5313 Q82.9063,174.5313 81.5781,172.8906 Q80.2656,171.2344 80.2656,168.1094 Q80.2656,164.9844 81.5781,163.3281 Q82.9063,161.6719 85.4063,161.6719 Q86.1094,161.6719 86.75,161.8281 Q87.4063,161.9844 87.9688,162.2813 L87.9688,165 Q87.3438,164.4219 86.75,164.1563 Q86.1563,163.875 85.5313,163.875 Q84.1875,163.875 83.5,164.9531 Q82.8125,166.0156 82.8125,168.1094 Q82.8125,170.2031 83.5,171.2813 Q84.1875,172.3438 85.5313,172.3438 Q86.1563,172.3438 86.75,172.0781 Q87.3438,171.7969 87.9688,171.2188 L87.9688,173.9375 Z " fill="#000000"/><text fill="#000000" font-family="sans-serif" font-size="14" lengthAdjust="spacing" textLength="110" x="99" y="173.1436">ProcessWindow</text><line style="stroke:#181818;stroke-width:0.5;" x1="71" x2="211" y1="184.2969" y2="184.2969"/><line style="stroke:#181818;stroke-width:0.5;" x1="71" x2="211" y1="192.2969" y2="192.2969"/></g><!--MD5=[980623c82e7acf061c2ba345e989597d]
reverse link WindowTable to ProcessWindow--><g id="link_WindowTable_ProcessWindow"><path codeLine="8" d="M141,112.3169 C141,125.8769 141,140.3369 141,151.9769 " fill="none" id="WindowTable-backto-ProcessWindow" style="stroke:#181818;stroke-width:1.0;"/><polygon fill="none" points="134,112.2969,141,92.2969,148,112.2969,134,112.2969" style="stroke:#181818;stroke-width:1.0;"/></g><!--MD5=[32bcdc77374d2c8444b6f71b7f80f4eb]
@startuml
title "Process Window Class Diagram"
abstract WindowTable {
    
}
class ProcessWindow {

}
WindowTable <|- - ProcessWindow
@enduml

PlantUML version 1.2022.8(Sun Sep 25 04:00:33 CDT 2022)
(GPL source distribution)
Java Runtime: OpenJDK Runtime Environment
JVM: OpenJDK 64-Bit Server VM
Default Encoding: UTF-8
Language: en
Country: US
--></g></svg>