<?xml version="1.0" encoding="UTF-8" standalone="no"?><svg xmlns="http://www.w3.org/2000/svg" xmlns:xlink="http://www.w3.org/1999/xlink" contentStyleType="text/css" height="745px" preserveAspectRatio="none" style="width:1393px;height:745px;background:#FFFFFF;" version="1.1" viewBox="0 0 1393 745" width="1393px" zoomAndPan="magnify"><defs/><g><rect fill="none" height="26.2969" id="_title" style="stroke:none;stroke-width:1.0;" width="208" x="585.5" y="5"/><text fill="#000000" font-family="sans-serif" font-size="14" font-weight="bold" lengthAdjust="spacing" textLength="198" x="590.5" y="22.9951">Diagnostic Class Diagram</text><!--MD5=[04e143e1b92f58df159b9d5ccef94150]
cluster eros--><g id="cluster_eros"><path d="M8.5,43.2969 L45.5,43.2969 A3.75,3.75 0 0 1 48,45.7969 L55,65.5938 L1383.5,65.5938 A2.5,2.5 0 0 1 1386,68.0938 L1386,735.7969 A2.5,2.5 0 0 1 1383.5,738.2969 L8.5,738.2969 A2.5,2.5 0 0 1 6,735.7969 L6,45.7969 A2.5,2.5 0 0 1 8.5,43.2969 " fill="none" style="stroke:#000000;stroke-width:1.5;"/><line style="stroke:#000000;stroke-width:1.5;" x1="6" x2="55" y1="65.5938" y2="65.5938"/><text fill="#000000" font-family="sans-serif" font-size="14" font-weight="bold" lengthAdjust="spacing" textLength="36" x="10" y="58.292">eros</text></g><!--MD5=[f8e092794d52bf9a252466252ae7bd1c]
class System--><g id="elem_System"><rect codeLine="3" fill="#F1F1F1" height="48" id="System" rx="2.5" ry="2.5" style="stroke:#181818;stroke-width:0.5;" width="83" x="22.5" y="216.2969"/><ellipse cx="37.5" cy="232.2969" fill="#ADD1B2" rx="11" ry="11" style="stroke:#181818;stroke-width:1.0;"/><path d="M40.4688,237.9375 Q39.8906,238.2344 39.25,238.375 Q38.6094,238.5313 37.9063,238.5313 Q35.4063,238.5313 34.0781,236.8906 Q32.7656,235.2344 32.7656,232.1094 Q32.7656,228.9844 34.0781,227.3281 Q35.4063,225.6719 37.9063,225.6719 Q38.6094,225.6719 39.25,225.8281 Q39.9063,225.9844 40.4688,226.2813 L40.4688,229 Q39.8438,228.4219 39.25,228.1563 Q38.6563,227.875 38.0313,227.875 Q36.6875,227.875 36,228.9531 Q35.3125,230.0156 35.3125,232.1094 Q35.3125,234.2031 36,235.2813 Q36.6875,236.3438 38.0313,236.3438 Q38.6563,236.3438 39.25,236.0781 Q39.8438,235.7969 40.4688,235.2188 L40.4688,237.9375 Z " fill="#000000"/><text fill="#000000" font-family="sans-serif" font-size="14" lengthAdjust="spacing" textLength="51" x="51.5" y="237.1436">System</text><line style="stroke:#181818;stroke-width:0.5;" x1="23.5" x2="104.5" y1="248.2969" y2="248.2969"/><line style="stroke:#181818;stroke-width:0.5;" x1="23.5" x2="104.5" y1="256.2969" y2="256.2969"/></g><!--MD5=[36fa9c4bc26a4196447d5dae16ba58f1]
class Diagnostic--><g id="elem_Diagnostic"><rect codeLine="56" fill="#F1F1F1" height="276.1563" id="Diagnostic" rx="2.5" ry="2.5" style="stroke:#181818;stroke-width:0.5;" width="1205" x="140.5" y="102.2969"/><ellipse cx="702.25" cy="118.2969" fill="#ADD1B2" rx="11" ry="11" style="stroke:#181818;stroke-width:1.0;"/><path d="M705.2188,123.9375 Q704.6406,124.2344 704,124.375 Q703.3594,124.5313 702.6563,124.5313 Q700.1563,124.5313 698.8281,122.8906 Q697.5156,121.2344 697.5156,118.1094 Q697.5156,114.9844 698.8281,113.3281 Q700.1563,111.6719 702.6563,111.6719 Q703.3594,111.6719 704,111.8281 Q704.6563,111.9844 705.2188,112.2813 L705.2188,115 Q704.5938,114.4219 704,114.1563 Q703.4063,113.875 702.7813,113.875 Q701.4375,113.875 700.75,114.9531 Q700.0625,116.0156 700.0625,118.1094 Q700.0625,120.2031 700.75,121.2813 Q701.4375,122.3438 702.7813,122.3438 Q703.4063,122.3438 704,122.0781 Q704.5938,121.7969 705.2188,121.2188 L705.2188,123.9375 Z " fill="#000000"/><text fill="#000000" font-family="sans-serif" font-size="14" lengthAdjust="spacing" textLength="73" x="722.75" y="123.1436">Diagnostic</text><line style="stroke:#181818;stroke-width:0.5;" x1="141.5" x2="1344.5" y1="134.2969" y2="134.2969"/><line style="stroke:#181818;stroke-width:0.5;" x1="141.5" x2="1344.5" y1="142.2969" y2="142.2969"/><ellipse cx="151.5" cy="155.9453" fill="#84BE84" rx="3" ry="3" style="stroke:#038048;stroke-width:1.0;"/><text fill="#000000" font-family="sans-serif" font-size="14" lengthAdjust="spacing" text-decoration="underline" textLength="401" x="160.5" y="159.292">string DiagnosticTypeString(Diagnostic::DiagnosticType v)</text><ellipse cx="151.5" cy="172.2422" fill="#84BE84" rx="3" ry="3" style="stroke:#038048;stroke-width:1.0;"/><text fill="#000000" font-family="sans-serif" font-size="14" lengthAdjust="spacing" text-decoration="underline" textLength="386" x="160.5" y="175.5889">string DiagnosticMessageString(Diagnostic::Message v)</text><ellipse cx="151.5" cy="188.5391" fill="#84BE84" rx="3" ry="3" style="stroke:#038048;stroke-width:1.0;"/><text fill="#000000" font-family="sans-serif" font-size="14" lengthAdjust="spacing" text-decoration="underline" textLength="487" x="160.5" y="191.8857">string pretty(string pre, std::vector&lt;DiagnosticDefinition&gt; diagnostics)</text><ellipse cx="151.5" cy="204.8359" fill="#84BE84" rx="3" ry="3" style="stroke:#038048;stroke-width:1.0;"/><text fill="#000000" font-family="sans-serif" font-size="14" lengthAdjust="spacing" text-decoration="underline" textLength="516" x="160.5" y="208.1826">string pretty(string pre,DiagnosticDefinition diag,bool print_end_line = true)</text><ellipse cx="151.5" cy="221.1328" fill="#84BE84" rx="3" ry="3" style="stroke:#038048;stroke-width:1.0;"/><text fill="#000000" font-family="sans-serif" font-size="14" lengthAdjust="spacing" textLength="93" x="160.5" y="224.4795">string pretty()</text><ellipse cx="151.5" cy="237.4297" fill="#84BE84" rx="3" ry="3" style="stroke:#038048;stroke-width:1.0;"/><text fill="#000000" font-family="sans-serif" font-size="14" lengthAdjust="spacing" textLength="1015" x="160.5" y="240.7764">void initialize(string device_name,string node_name,System::MainSystem system,System::SubSystem subsystem,System::Component component)</text><ellipse cx="151.5" cy="253.7266" fill="#84BE84" rx="3" ry="3" style="stroke:#038048;stroke-width:1.0;"/><text fill="#000000" font-family="sans-serif" font-size="14" lengthAdjust="spacing" textLength="350" x="160.5" y="257.0732">void initialize(Diagnostic::DiagnosticDefinition diag)</text><ellipse cx="151.5" cy="270.0234" fill="#84BE84" rx="3" ry="3" style="stroke:#038048;stroke-width:1.0;"/><text fill="#000000" font-family="sans-serif" font-size="14" lengthAdjust="spacing" textLength="586" x="160.5" y="273.3701">bool enable_diagnostics(std::vector&lt;Diagnostic::DiagnosticType&gt; diagnostic_types)</text><ellipse cx="151.5" cy="286.3203" fill="#84BE84" rx="3" ry="3" style="stroke:#038048;stroke-width:1.0;"/><text fill="#000000" font-family="sans-serif" font-size="14" lengthAdjust="spacing" textLength="288" x="160.5" y="289.667">DiagnosticDefinition get_root_diagnostic()</text><ellipse cx="151.5" cy="302.6172" fill="#84BE84" rx="3" ry="3" style="stroke:#038048;stroke-width:1.0;"/><text fill="#000000" font-family="sans-serif" font-size="14" lengthAdjust="spacing" textLength="360" x="160.5" y="305.9639">std::vector&lt;DiagnosticDefinition&gt; get_diagnostics()</text><ellipse cx="151.5" cy="318.9141" fill="#84BE84" rx="3" ry="3" style="stroke:#038048;stroke-width:1.0;"/><text fill="#000000" font-family="sans-serif" font-size="14" lengthAdjust="spacing" textLength="405" x="160.5" y="322.2607">std::vector&lt;DiagnosticDefinition&gt; get_latest_diagnostics()</text><ellipse cx="151.5" cy="335.2109" fill="#84BE84" rx="3" ry="3" style="stroke:#038048;stroke-width:1.0;"/><text fill="#000000" font-family="sans-serif" font-size="14" lengthAdjust="spacing" textLength="1041" x="160.5" y="338.5576">DiagnosticDefinition update_diagnostic(Diagnostic::DiagnosticType diagnostic_type,Level::Type level,Diagnostic::Message message,string description)</text><ellipse cx="151.5" cy="351.5078" fill="#84BE84" rx="3" ry="3" style="stroke:#038048;stroke-width:1.0;"/><text fill="#000000" font-family="sans-serif" font-size="14" lengthAdjust="spacing" textLength="450" x="160.5" y="354.8545">DiagnosticDefinition update_diagnostic(DiagnosticDefinition diag)</text><ellipse cx="151.5" cy="367.8047" fill="#84BE84" rx="3" ry="3" style="stroke:#038048;stroke-width:1.0;"/><text fill="#000000" font-family="sans-serif" font-size="14" lengthAdjust="spacing" textLength="1179" x="160.5" y="371.1514">DiagnosticDefinition update_diagnostic(string device_name Diagnostic::DiagnosticType diagnostic_type,Level::Type level,Diagnostic::Message message,string description)</text></g><!--MD5=[c374ded7600c3fccd41504593c422e53]
class Diagnostic::DiagnosticType--><g id="elem_Diagnostic::DiagnosticType"><rect codeLine="11" fill="#F1F1F1" height="227.2656" id="Diagnostic::DiagnosticType" rx="2.5" ry="2.5" style="stroke:#181818;stroke-width:0.5;" width="222" x="393" y="454.7969"/><ellipse cx="408" cy="470.7969" fill="#EB937F" rx="11" ry="11" style="stroke:#181818;stroke-width:1.0;"/><path d="M412.1094,476.7969 L404.3906,476.7969 L404.3906,464.4063 L412.1094,464.4063 L412.1094,466.5625 L406.8438,466.5625 L406.8438,469.2344 L411.6094,469.2344 L411.6094,471.3906 L406.8438,471.3906 L406.8438,474.6406 L412.1094,474.6406 L412.1094,476.7969 Z " fill="#000000"/><text fill="#000000" font-family="sans-serif" font-size="14" lengthAdjust="spacing" textLength="190" x="422" y="475.6436">Diagnostic::DiagnosticType</text><line style="stroke:#181818;stroke-width:0.5;" x1="394" x2="614" y1="486.7969" y2="486.7969"/><text fill="#000000" font-family="sans-serif" font-size="14" lengthAdjust="spacing" textLength="116" x="399" y="503.792">UNKNOWN_TYPE</text><text fill="#000000" font-family="sans-serif" font-size="14" lengthAdjust="spacing" textLength="78" x="399" y="520.0889">SOFTWARE</text><text fill="#000000" font-family="sans-serif" font-size="14" lengthAdjust="spacing" textLength="129" x="399" y="536.3857">COMMUNICATIONS</text><text fill="#000000" font-family="sans-serif" font-size="14" lengthAdjust="spacing" textLength="67" x="399" y="552.6826">SENSORS</text><text fill="#000000" font-family="sans-serif" font-size="14" lengthAdjust="spacing" textLength="86" x="399" y="568.9795">ACTUATORS</text><text fill="#000000" font-family="sans-serif" font-size="14" lengthAdjust="spacing" textLength="113" x="399" y="585.2764">DATA_STORAGE</text><text fill="#000000" font-family="sans-serif" font-size="14" lengthAdjust="spacing" textLength="135" x="399" y="601.5732">REMOTE_CONTROL</text><text fill="#000000" font-family="sans-serif" font-size="14" lengthAdjust="spacing" textLength="81" x="399" y="617.8701">TARGETING</text><text fill="#000000" font-family="sans-serif" font-size="14" lengthAdjust="spacing" textLength="38" x="399" y="634.167">POSE</text><text fill="#000000" font-family="sans-serif" font-size="14" lengthAdjust="spacing" textLength="48" x="399" y="650.4639">TIMING</text><text fill="#000000" font-family="sans-serif" font-size="14" lengthAdjust="spacing" textLength="142" x="399" y="666.7607">SYSTEM_RESOURCE</text><line style="stroke:#181818;stroke-width:0.5;" x1="394" x2="614" y1="674.0625" y2="674.0625"/></g><!--MD5=[cef777665e9df4b5513e331d8d5f6ca3]
class Diagnostic::Message--><g id="elem_Diagnostic::Message"><rect codeLine="24" fill="#F1F1F1" height="259.8594" id="Diagnostic::Message" rx="2.5" ry="2.5" style="stroke:#181818;stroke-width:0.5;" width="186" x="650" y="438.2969"/><ellipse cx="668.6" cy="454.2969" fill="#EB937F" rx="11" ry="11" style="stroke:#181818;stroke-width:1.0;"/><path d="M672.7094,460.2969 L664.9906,460.2969 L664.9906,447.9063 L672.7094,447.9063 L672.7094,450.0625 L667.4438,450.0625 L667.4438,452.7344 L672.2094,452.7344 L672.2094,454.8906 L667.4438,454.8906 L667.4438,458.1406 L672.7094,458.1406 L672.7094,460.2969 Z " fill="#000000"/><text fill="#000000" font-family="sans-serif" font-size="14" lengthAdjust="spacing" textLength="146" x="683.4" y="459.1436">Diagnostic::Message</text><line style="stroke:#181818;stroke-width:0.5;" x1="651" x2="835" y1="470.2969" y2="470.2969"/><text fill="#000000" font-family="sans-serif" font-size="14" lengthAdjust="spacing" textLength="71" x="656" y="487.292">NOERROR</text><text fill="#000000" font-family="sans-serif" font-size="14" lengthAdjust="spacing" textLength="59" x="656" y="503.5889">NODATA</text><text fill="#000000" font-family="sans-serif" font-size="14" lengthAdjust="spacing" textLength="130" x="656" y="519.8857">UNKNOWN_ERROR</text><text fill="#000000" font-family="sans-serif" font-size="14" lengthAdjust="spacing" textLength="81" x="656" y="536.1826">INITIALIZING</text><text fill="#000000" font-family="sans-serif" font-size="14" lengthAdjust="spacing" textLength="138" x="656" y="552.4795">INITIALIZING_ERROR</text><text fill="#000000" font-family="sans-serif" font-size="14" lengthAdjust="spacing" textLength="145" x="656" y="568.7764">DROPPING_PACKETS</text><text fill="#000000" font-family="sans-serif" font-size="14" lengthAdjust="spacing" textLength="157" x="656" y="585.0732">MISSING_HEARTBEATS</text><text fill="#000000" font-family="sans-serif" font-size="14" lengthAdjust="spacing" textLength="167" x="656" y="601.3701">DEVICE_NOT_AVAILABLE</text><text fill="#000000" font-family="sans-serif" font-size="14" lengthAdjust="spacing" textLength="146" x="656" y="617.667">TEMPERATURE_HIGH</text><text fill="#000000" font-family="sans-serif" font-size="14" lengthAdjust="spacing" textLength="143" x="656" y="633.9639">TEMPERATURE_LOW</text><text fill="#000000" font-family="sans-serif" font-size="14" lengthAdjust="spacing" textLength="119" x="656" y="650.2607">RESOURCE_LEAK</text><text fill="#000000" font-family="sans-serif" font-size="14" lengthAdjust="spacing" textLength="174" x="656" y="666.5576">HIGH_RESOURCE_USAGE</text><text fill="#000000" font-family="sans-serif" font-size="14" lengthAdjust="spacing" textLength="140" x="656" y="682.8545">DIAGNOSTIC_FAILED</text><line style="stroke:#181818;stroke-width:0.5;" x1="651" x2="835" y1="690.1563" y2="690.1563"/></g><!--MD5=[e5916490e9e6a84b67f3f18d2db3c230]
class Diagnostic::DiagnosticDefinition--><g id="elem_Diagnostic::DiagnosticDefinition"><rect codeLine="40" fill="#F1F1F1" height="210.9688" id="Diagnostic::DiagnosticDefinition" rx="2.5" ry="2.5" style="stroke:#181818;stroke-width:0.5;" width="253" x="871.5" y="462.7969"/><ellipse cx="886.5" cy="478.7969" fill="#F1F1F1" rx="11" ry="11" style="stroke:#181818;stroke-width:1.0;"/><path d="M885.9844,479.3594 Q884.125,478.6563 883.4688,477.8906 Q882.8281,477.1094 882.8281,475.7969 Q882.8281,474.1094 883.9063,473.1406 Q884.9844,472.1719 886.8594,472.1719 Q887.7188,472.1719 888.5625,472.375 Q889.4219,472.5625 890.2656,472.9531 L890.2656,475.3438 Q889.4844,474.7813 888.6563,474.5 Q887.8438,474.2031 887.0469,474.2031 Q886.1719,474.2031 885.6875,474.5625 Q885.2188,474.9219 885.2188,475.5781 Q885.2188,476.0938 885.5625,476.4375 Q885.9063,476.7656 887,477.1719 L888.0625,477.5781 Q889.5469,478.125 890.25,479.0313 Q890.9688,479.9375 890.9688,481.3125 Q890.9688,483.1875 889.8594,484.1094 Q888.75,485.0313 886.5,485.0313 Q885.5781,485.0313 884.6563,484.8125 Q883.7344,484.5938 882.875,484.1719 L882.875,481.6406 Q883.8438,482.3281 884.7656,482.6719 Q885.6875,483.0156 886.5781,483.0156 Q887.4844,483.0156 887.9844,482.6094 Q888.4844,482.1875 888.4844,481.4531 Q888.4844,480.8906 888.1406,480.4844 Q887.8125,480.0625 887.1875,479.8125 L885.9844,479.3594 Z " fill="#000000"/><text fill="#000000" font-family="sans-serif" font-size="14" lengthAdjust="spacing" textLength="221" x="900.5" y="483.6436">Diagnostic::DiagnosticDefinition</text><line style="stroke:#181818;stroke-width:0.5;" x1="872.5" x2="1123.5" y1="494.7969" y2="494.7969"/><text fill="#000000" font-family="sans-serif" font-size="14" lengthAdjust="spacing" textLength="134" x="877.5" y="511.792">string device_name</text><text fill="#000000" font-family="sans-serif" font-size="14" lengthAdjust="spacing" textLength="125" x="877.5" y="528.0889">string node_name</text><text fill="#000000" font-family="sans-serif" font-size="14" lengthAdjust="spacing" textLength="198" x="877.5" y="544.3857">System::MainSystem system</text><text fill="#000000" font-family="sans-serif" font-size="14" lengthAdjust="spacing" textLength="219" x="877.5" y="560.6826">System::SubSystem subsystem</text><text fill="#000000" font-family="sans-serif" font-size="14" lengthAdjust="spacing" textLength="227" x="877.5" y="576.9795">System::Component component</text><text fill="#000000" font-family="sans-serif" font-size="14" lengthAdjust="spacing" textLength="224" x="877.5" y="593.2764">Diagnostic::DiagnosticType type</text><text fill="#000000" font-family="sans-serif" font-size="14" lengthAdjust="spacing" textLength="214" x="877.5" y="609.5732">Diagnostic::Message message</text><text fill="#000000" font-family="sans-serif" font-size="14" lengthAdjust="spacing" textLength="114" x="877.5" y="625.8701">Level::Type level</text><text fill="#000000" font-family="sans-serif" font-size="14" lengthAdjust="spacing" textLength="120" x="877.5" y="642.167">string description</text><text fill="#000000" font-family="sans-serif" font-size="14" lengthAdjust="spacing" textLength="156" x="877.5" y="658.4639">uint64_t update_count</text><line style="stroke:#181818;stroke-width:0.5;" x1="872.5" x2="1123.5" y1="665.7656" y2="665.7656"/></g><!--MD5=[e7bfa04a245c1522c7d62748266414df]
reverse link Diagnostic to Diagnostic::Message--><g id="link_Diagnostic_Diagnostic::Message"><path codeLine="52" d="M743,393.9669 C743,408.7569 743,423.6669 743,438.2069 " fill="none" id="Diagnostic-backto-Diagnostic::Message" style="stroke:#181818;stroke-width:1.0;"/><ellipse cx="743" cy="386.6069" fill="#FFFFFF" rx="8" ry="8" style="stroke:#181818;stroke-width:1.0;"/><line style="stroke:#181818;stroke-width:1.0;" x1="743" x2="743" y1="394.6069" y2="378.6069"/><line style="stroke:#181818;stroke-width:1.0;" x1="735" x2="751" y1="386.6069" y2="386.6069"/></g><!--MD5=[dfb73a0f4b50bc3943ad9ec2871ffeb0]
reverse link Diagnostic to Diagnostic::DiagnosticType--><g id="link_Diagnostic_Diagnostic::DiagnosticType"><path codeLine="53" d="M633.38,390.8269 C617.66,412.2669 601.71,434.0169 586.64,454.5769 " fill="none" id="Diagnostic-backto-Diagnostic::DiagnosticType" style="stroke:#181818;stroke-width:1.0;"/><ellipse cx="637.6098" cy="385.0586" fill="#FFFFFF" rx="8" ry="8" style="stroke:#181818;stroke-width:1.0;"/><line style="stroke:#181818;stroke-width:1.0;" x1="632.8795" x2="642.34" y1="391.5103" y2="378.6069"/><line style="stroke:#181818;stroke-width:1.0;" x1="631.158" x2="644.0615" y1="380.3284" y2="389.7888"/></g><!--MD5=[e6bba0c6f9a634d1774ea1e20463ada1]
reverse link Diagnostic to Diagnostic::DiagnosticDefinition--><g id="link_Diagnostic_Diagnostic::DiagnosticDefinition"><path codeLine="54" d="M859.69,390.4769 C878.67,414.7469 897.98,439.4269 915.91,462.3469 " fill="none" id="Diagnostic-backto-Diagnostic::DiagnosticDefinition" style="stroke:#181818;stroke-width:1.0;"/><ellipse cx="855.3294" cy="384.9077" fill="#FFFFFF" rx="8" ry="8" style="stroke:#181818;stroke-width:1.0;"/><line style="stroke:#181818;stroke-width:1.0;" x1="860.2589" x2="850.4" y1="391.2086" y2="378.6069"/><line style="stroke:#181818;stroke-width:1.0;" x1="849.0286" x2="861.6303" y1="389.8372" y2="379.9783"/></g><!--MD5=[1bb0bc52e7456076043a7f914f36018d]
reverse link System to Diagnostic--><g id="link_System_Diagnostic"><path codeLine="55" d="M119,240.2969 C126.1,240.2969 133.21,240.2969 140.31,240.2969 " fill="none" id="System-backto-Diagnostic" style="stroke:#181818;stroke-width:1.0;"/><polygon fill="#181818" points="105.77,240.2969,111.77,244.2969,117.77,240.2969,111.77,236.2969,105.77,240.2969" style="stroke:#181818;stroke-width:1.0;"/></g><!--MD5=[f13bc6d230d650efd07e1474790a8cd7]
@startuml
title Diagnostic Class Diagram
package eros {
    class System
    together {
        class Diagnostic
        enum Diagnostic::DiagnosticType
        enum Diagnostic::Message
        struct Diagnostic::DiagnosticDefinition
    }
}
enum Diagnostic::DiagnosticType {
    UNKNOWN_TYPE 
    SOFTWARE
    COMMUNICATIONS
    SENSORS 
    ACTUATORS
    DATA_STORAGE
    REMOTE_CONTROL
    TARGETING
    POSE
    TIMING
    SYSTEM_RESOURCE
}
enum Diagnostic::Message {
    NOERROR
    NODATA
    UNKNOWN_ERROR
    INITIALIZING
    INITIALIZING_ERROR
    DROPPING_PACKETS
    MISSING_HEARTBEATS
    DEVICE_NOT_AVAILABLE
    TEMPERATURE_HIGH
    TEMPERATURE_LOW
    RESOURCE_LEAK
    HIGH_RESOURCE_USAGE
    DIAGNOSTIC_FAILED

}
struct Diagnostic::DiagnosticDefinition {
    string device_name
    string node_name
    System::MainSystem system
    System::SubSystem subsystem
    System::Component component
    Diagnostic::DiagnosticType type
    Diagnostic::Message message
    Level::Type level
    string description
    uint64_t update_count
}
Diagnostic +- - Diagnostic::Message
Diagnostic +- - Diagnostic::DiagnosticType
Diagnostic +- - Diagnostic::DiagnosticDefinition
System *- Diagnostic
class Diagnostic {

    +{static} string DiagnosticTypeString(Diagnostic::DiagnosticType v)
    +{static} string DiagnosticMessageString(Diagnostic::Message v)
    +{static} string pretty(string pre, std::vector<DiagnosticDefinition> diagnostics)
    +{static} string pretty(string pre,DiagnosticDefinition diag,bool print_end_line = true)
    
    +string pretty()
    +void initialize(string device_name,string node_name,System::MainSystem system,System::SubSystem subsystem,System::Component component)
    +void initialize(Diagnostic::DiagnosticDefinition diag)
    +bool enable_diagnostics(std::vector<Diagnostic::DiagnosticType> diagnostic_types)
    +DiagnosticDefinition get_root_diagnostic() 
    +std::vector<DiagnosticDefinition> get_diagnostics()
    +std::vector<DiagnosticDefinition> get_latest_diagnostics()
    +DiagnosticDefinition update_diagnostic(Diagnostic::DiagnosticType diagnostic_type,Level::Type level,Diagnostic::Message message,string description)
    +DiagnosticDefinition update_diagnostic(DiagnosticDefinition diag)
    +DiagnosticDefinition update_diagnostic(string device_name Diagnostic::DiagnosticType diagnostic_type,Level::Type level,Diagnostic::Message message,string description)
}
@enduml

PlantUML version 1.2022.8(Sun Sep 25 04:00:33 CDT 2022)
(GPL source distribution)
Java Runtime: OpenJDK Runtime Environment
JVM: OpenJDK 64-Bit Server VM
Default Encoding: UTF-8
Language: en
Country: US
--></g></svg>