<svg xmlns="http://www.w3.org/2000/svg" xmlns:xlink="http://www.w3.org/1999/xlink" contentStyleType="text/css" data-diagram-type="SEQUENCE" height="1430px" preserveAspectRatio="none" style="width:724px;height:1430px;background:#FFFFFF;" version="1.1" viewBox="0 0 724 1430" width="724px" zoomAndPan="magnify"><title>Diagnostic Node Sequence Diagram</title><defs/><g><text fill="#000000" font-family="sans-serif" font-size="14" font-weight="bold" lengthAdjust="spacing" textLength="282.7207" x="222.3328" y="27.9951">Diagnostic Node Sequence Diagram</text><g><title>DiagnosticNode</title><rect fill="#FFFFFF" height="1211.9141" style="stroke:#181818;stroke-width:1;" width="10" x="246.7983" y="128.5938"/></g><g><title>DiagnosticNode</title><rect fill="#FFFFFF" height="348.3281" style="stroke:#181818;stroke-width:1;" width="10" x="251.7983" y="181.8594"/></g><g><title>DiagnosticNode</title><rect fill="#FFFFFF" height="76.2656" style="stroke:#181818;stroke-width:1;" width="10" x="251.7983" y="653.7188"/></g><g><title>DiagnosticNodeProcess</title><rect fill="#FFFFFF" height="1082.3828" style="stroke:#181818;stroke-width:1;" width="10" x="521.8062" y="258.125"/></g><rect fill="transparent" height="402.5938" style="stroke:#000000;stroke-width:1.5;" width="446.3213" x="179.5571" y="135.5938"/><rect fill="transparent" height="17.1328" style="stroke:#000000;stroke-width:1.5;" width="205.3892" x="40" y="552.1875"/><rect fill="transparent" height="749.1875" style="stroke:#000000;stroke-width:1.5;" width="708.3862" x="10" y="583.3203"/><rect fill="transparent" height="130.5313" style="stroke:#000000;stroke-width:1.5;" width="518.8291" x="179.5571" y="607.4531"/><rect fill="transparent" height="104.5313" style="stroke:#000000;stroke-width:1.5;" width="518.8291" x="179.5571" y="751.9844"/><rect fill="transparent" height="104.5313" style="stroke:#000000;stroke-width:1.5;" width="605.8784" x="20" y="870.5156"/><rect fill="transparent" height="336.4609" style="stroke:#000000;stroke-width:1.5;" width="538.8291" x="169.5571" y="989.0469"/><rect fill="transparent" height="46.2656" style="stroke:#000000;stroke-width:1.5;" width="518.8291" x="179.5571" y="1071.4453"/><g><title>User</title><rect fill="transparent" height="1230.9141" width="8" x="44.9551" y="118.5938"/><line style="stroke:#181818;stroke-width:0.5;stroke-dasharray:5.0,5.0;" x1="48" x2="48" y1="118.5938" y2="1349.5078"/></g><g><title>DiagnosticNode</title><rect fill="transparent" height="1230.9141" width="8" x="247.7983" y="118.5938"/><line style="stroke:#181818;stroke-width:0.5;stroke-dasharray:5.0,5.0;" x1="251.5571" x2="251.5571" y1="118.5938" y2="1349.5078"/></g><g><title>DiagnosticNodeProcess</title><rect fill="transparent" height="1230.9141" width="8" x="522.8062" y="118.5938"/><line style="stroke:#181818;stroke-width:0.5;stroke-dasharray:5.0,5.0;" x1="526.7339" x2="526.7339" y1="118.5938" y2="1349.5078"/></g><g><title>Logger</title><rect fill="transparent" height="1230.9141" width="8" x="653.1323" y="118.5938"/><line style="stroke:#181818;stroke-width:0.5;stroke-dasharray:5.0,5.0;" x1="656.8784" x2="656.8784" y1="118.5938" y2="1349.5078"/></g><text fill="#000000" font-family="sans-serif" font-size="14" lengthAdjust="spacing" textLength="31.9102" x="30" y="115.292">User</text><ellipse cx="48.9551" cy="50.7969" fill="#E2E2F0" rx="8" ry="8" style="stroke:#181818;stroke-width:0.5;"/><path d="M48.9551,58.7969 L48.9551,85.7969 M35.9551,66.7969 L61.9551,66.7969 M48.9551,85.7969 L35.9551,100.7969 M48.9551,85.7969 L61.9551,100.7969 " fill="transparent" style="stroke:#181818;stroke-width:0.5;"/><text fill="#000000" font-family="sans-serif" font-size="14" lengthAdjust="spacing" textLength="31.9102" x="30" y="1361.5029">User</text><ellipse cx="48.9551" cy="1373.3047" fill="#E2E2F0" rx="8" ry="8" style="stroke:#181818;stroke-width:0.5;"/><path d="M48.9551,1381.3047 L48.9551,1408.3047 M35.9551,1389.3047 L61.9551,1389.3047 M48.9551,1408.3047 L35.9551,1423.3047 M48.9551,1408.3047 L61.9551,1423.3047 " fill="transparent" style="stroke:#181818;stroke-width:0.5;"/><rect fill="#E2E2F0" height="30.2969" rx="2.5" ry="2.5" style="stroke:#181818;stroke-width:0.5;" width="124.4824" x="189.5571" y="87.2969"/><text fill="#000000" font-family="sans-serif" font-size="14" lengthAdjust="spacing" textLength="110.4824" x="196.5571" y="107.292">DiagnosticNode</text><rect fill="#E2E2F0" height="30.2969" rx="2.5" ry="2.5" style="stroke:#181818;stroke-width:0.5;" width="124.4824" x="189.5571" y="1348.5078"/><text fill="#000000" font-family="sans-serif" font-size="14" lengthAdjust="spacing" textLength="110.4824" x="196.5571" y="1368.5029">DiagnosticNode</text><rect fill="#E2E2F0" height="30.2969" rx="2.5" ry="2.5" style="stroke:#181818;stroke-width:0.5;" width="178.1445" x="437.7339" y="87.2969"/><text fill="#000000" font-family="sans-serif" font-size="14" lengthAdjust="spacing" textLength="164.1445" x="444.7339" y="107.292">DiagnosticNodeProcess</text><rect fill="#E2E2F0" height="30.2969" rx="2.5" ry="2.5" style="stroke:#181818;stroke-width:0.5;" width="178.1445" x="437.7339" y="1348.5078"/><text fill="#000000" font-family="sans-serif" font-size="14" lengthAdjust="spacing" textLength="164.1445" x="444.7339" y="1368.5029">DiagnosticNodeProcess</text><rect fill="#E2E2F0" height="30.2969" rx="2.5" ry="2.5" style="stroke:#181818;stroke-width:0.5;" width="62.5078" x="625.8784" y="87.2969"/><text fill="#000000" font-family="sans-serif" font-size="14" lengthAdjust="spacing" textLength="48.5078" x="632.8784" y="107.292">Logger</text><rect fill="#E2E2F0" height="30.2969" rx="2.5" ry="2.5" style="stroke:#181818;stroke-width:0.5;" width="62.5078" x="625.8784" y="1348.5078"/><text fill="#000000" font-family="sans-serif" font-size="14" lengthAdjust="spacing" textLength="48.5078" x="632.8784" y="1368.5029">Logger</text><g><title>DiagnosticNode</title><rect fill="#FFFFFF" height="1211.9141" style="stroke:#181818;stroke-width:1;" width="10" x="246.7983" y="128.5938"/></g><g><title>DiagnosticNode</title><rect fill="#FFFFFF" height="348.3281" style="stroke:#181818;stroke-width:1;" width="10" x="251.7983" y="181.8594"/></g><g><title>DiagnosticNode</title><rect fill="#FFFFFF" height="76.2656" style="stroke:#181818;stroke-width:1;" width="10" x="251.7983" y="653.7188"/></g><g><title>DiagnosticNodeProcess</title><rect fill="#FFFFFF" height="1082.3828" style="stroke:#181818;stroke-width:1;" width="10" x="521.8062" y="258.125"/></g><path d="M179.5571,135.5938 L244,135.5938 L244,142.7266 L234,152.7266 L179.5571,152.7266 L179.5571,135.5938 " fill="#EEEEEE" style="stroke:#000000;stroke-width:1.5;"/><rect fill="transparent" height="402.5938" style="stroke:#000000;stroke-width:1.5;" width="446.3213" x="179.5571" y="135.5938"/><text fill="#000000" font-family="sans-serif" font-size="13" font-weight="bold" lengthAdjust="spacing" textLength="19.4429" x="194.5571" y="148.6606">alt</text><text fill="#000000" font-family="sans-serif" font-size="11" font-weight="bold" lengthAdjust="spacing" textLength="63.2822" x="259" y="147.8042">[initialize]</text><line style="stroke:#181818;stroke-width:1;" x1="256.7983" x2="303.7983" y1="168.8594" y2="168.8594"/><line style="stroke:#181818;stroke-width:1;" x1="303.7983" x2="303.7983" y1="168.8594" y2="181.8594"/><line style="stroke:#181818;stroke-width:1;" x1="262.7983" x2="303.7983" y1="181.8594" y2="181.8594"/><polygon fill="#181818" points="272.7983,177.8594,262.7983,181.8594,272.7983,185.8594,268.7983,181.8594" style="stroke:#181818;stroke-width:1;"/><text fill="#000000" font-family="sans-serif" font-size="13" lengthAdjust="spacing" textLength="40.4219" x="268.7983" y="163.7935">start()</text><line style="stroke:#181818;stroke-width:1;" x1="261.7983" x2="303.7983" y1="215.9922" y2="215.9922"/><line style="stroke:#181818;stroke-width:1;" x1="303.7983" x2="303.7983" y1="215.9922" y2="228.9922"/><line style="stroke:#181818;stroke-width:1;" x1="262.7983" x2="303.7983" y1="228.9922" y2="228.9922"/><polygon fill="#181818" points="272.7983,224.9922,262.7983,228.9922,272.7983,232.9922,268.7983,228.9922" style="stroke:#181818;stroke-width:1;"/><text fill="#000000" font-family="sans-serif" font-size="13" lengthAdjust="spacing" textLength="127.5879" x="268.7983" y="210.9263">initialize_diagnostic</text><polygon fill="#181818" points="509.8062,254.125,519.8062,258.125,509.8062,262.125,513.8062,258.125" style="stroke:#181818;stroke-width:1;"/><line style="stroke:#181818;stroke-width:1;" x1="261.7983" x2="515.8062" y1="258.125" y2="258.125"/><text fill="#000000" font-family="sans-serif" font-size="13" lengthAdjust="spacing" textLength="162.5635" x="268.7983" y="253.0591">DiagnosticNodeProcess()</text><line style="stroke:#181818;stroke-width:1;" x1="261.7983" x2="303.7983" y1="287.2578" y2="287.2578"/><line style="stroke:#181818;stroke-width:1;" x1="303.7983" x2="303.7983" y1="287.2578" y2="300.2578"/><line style="stroke:#181818;stroke-width:1;" x1="262.7983" x2="303.7983" y1="300.2578" y2="300.2578"/><polygon fill="#181818" points="272.7983,296.2578,262.7983,300.2578,272.7983,304.2578,268.7983,300.2578" style="stroke:#181818;stroke-width:1;"/><text fill="#000000" font-family="sans-serif" font-size="13" lengthAdjust="spacing" textLength="155.854" x="268.7983" y="282.1919">preinitialize_basenode()</text><polygon fill="#181818" points="509.8062,325.3906,519.8062,329.3906,509.8062,333.3906,513.8062,329.3906" style="stroke:#181818;stroke-width:1;"/><line style="stroke:#181818;stroke-width:1;" x1="261.7983" x2="515.8062" y1="329.3906" y2="329.3906"/><text fill="#000000" font-family="sans-serif" font-size="13" lengthAdjust="spacing" textLength="134.3862" x="268.7983" y="324.3247">enable_diagnostics()</text><polygon fill="#181818" points="509.8062,354.5234,519.8062,358.5234,509.8062,362.5234,513.8062,358.5234" style="stroke:#181818;stroke-width:1;"/><line style="stroke:#181818;stroke-width:1;" x1="261.7983" x2="515.8062" y1="358.5234" y2="358.5234"/><text fill="#000000" font-family="sans-serif" font-size="13" lengthAdjust="spacing" textLength="130.749" x="268.7983" y="353.4575">finish_initialization()</text><line style="stroke:#181818;stroke-width:1;" x1="261.7983" x2="303.7983" y1="387.6563" y2="387.6563"/><line style="stroke:#181818;stroke-width:1;" x1="303.7983" x2="303.7983" y1="387.6563" y2="400.6563"/><line style="stroke:#181818;stroke-width:1;" x1="262.7983" x2="303.7983" y1="400.6563" y2="400.6563"/><polygon fill="#181818" points="272.7983,396.6563,262.7983,400.6563,272.7983,404.6563,268.7983,400.6563" style="stroke:#181818;stroke-width:1;"/><text fill="#000000" font-family="sans-serif" font-size="13" lengthAdjust="spacing" textLength="130.749" x="268.7983" y="382.5903">finish_initialization()</text><line style="stroke:#181818;stroke-width:1;" x1="261.7983" x2="303.7983" y1="429.7891" y2="429.7891"/><line style="stroke:#181818;stroke-width:1;" x1="303.7983" x2="303.7983" y1="429.7891" y2="442.7891"/><line style="stroke:#181818;stroke-width:1;" x1="262.7983" x2="303.7983" y1="442.7891" y2="442.7891"/><polygon fill="#181818" points="272.7983,438.7891,262.7983,442.7891,272.7983,446.7891,268.7983,442.7891" style="stroke:#181818;stroke-width:1;"/><text fill="#000000" font-family="sans-serif" font-size="13" lengthAdjust="spacing" textLength="99.3281" x="268.7983" y="424.7231">rescan_nodes()</text><polygon fill="#181818" points="509.8062,467.9219,519.8062,471.9219,509.8062,475.9219,513.8062,471.9219" style="stroke:#181818;stroke-width:1;"/><line style="stroke:#181818;stroke-width:1;" x1="261.7983" x2="515.8062" y1="471.9219" y2="471.9219"/><text fill="#000000" font-family="sans-serif" font-size="13" lengthAdjust="spacing" textLength="228.7949" x="268.7983" y="466.856">request_statechange(INITIALIZING)</text><polygon fill="#181818" points="509.8062,497.0547,519.8062,501.0547,509.8062,505.0547,513.8062,501.0547" style="stroke:#181818;stroke-width:1;"/><line style="stroke:#181818;stroke-width:1;" x1="261.7983" x2="515.8062" y1="501.0547" y2="501.0547"/><text fill="#000000" font-family="sans-serif" font-size="13" lengthAdjust="spacing" textLength="223.3867" x="268.7983" y="495.9888">request_statechange(INITIALIZED)</text><polygon fill="#181818" points="509.8062,526.1875,519.8062,530.1875,509.8062,534.1875,513.8062,530.1875" style="stroke:#181818;stroke-width:1;"/><line style="stroke:#181818;stroke-width:1;" x1="256.7983" x2="515.8062" y1="530.1875" y2="530.1875"/><text fill="#000000" font-family="sans-serif" font-size="13" lengthAdjust="spacing" textLength="208.749" x="263.7983" y="525.1216">request_statechange(RUNNING)</text><path d="M40,552.1875 L104.4429,552.1875 L104.4429,559.3203 L94.4429,569.3203 L40,569.3203 L40,552.1875 " fill="#EEEEEE" style="stroke:#000000;stroke-width:1.5;"/><rect fill="transparent" height="17.1328" style="stroke:#000000;stroke-width:1.5;" width="205.3892" x="40" y="552.1875"/><text fill="#000000" font-family="sans-serif" font-size="13" font-weight="bold" lengthAdjust="spacing" textLength="19.4429" x="55" y="565.2544">alt</text><text fill="#000000" font-family="sans-serif" font-size="11" font-weight="bold" lengthAdjust="spacing" textLength="120.9463" x="119.4429" y="564.3979">[message_callback]</text><path d="M10,583.3203 L74.4429,583.3203 L74.4429,590.4531 L64.4429,600.4531 L10,600.4531 L10,583.3203 " fill="#EEEEEE" style="stroke:#000000;stroke-width:1.5;"/><rect fill="transparent" height="749.1875" style="stroke:#000000;stroke-width:1.5;" width="708.3862" x="10" y="583.3203"/><text fill="#000000" font-family="sans-serif" font-size="13" font-weight="bold" lengthAdjust="spacing" textLength="19.4429" x="25" y="596.3872">alt</text><text fill="#000000" font-family="sans-serif" font-size="11" font-weight="bold" lengthAdjust="spacing" textLength="43.3608" x="89.4429" y="595.5308">[loops]</text><path d="M179.5571,607.4531 L244,607.4531 L244,614.5859 L234,624.5859 L179.5571,624.5859 L179.5571,607.4531 " fill="#EEEEEE" style="stroke:#000000;stroke-width:1.5;"/><rect fill="transparent" height="130.5313" style="stroke:#000000;stroke-width:1.5;" width="518.8291" x="179.5571" y="607.4531"/><text fill="#000000" font-family="sans-serif" font-size="13" font-weight="bold" lengthAdjust="spacing" textLength="19.4429" x="194.5571" y="620.52">alt</text><text fill="#000000" font-family="sans-serif" font-size="11" font-weight="bold" lengthAdjust="spacing" textLength="44.4673" x="259" y="619.6636">[loop2]</text><line style="stroke:#181818;stroke-width:1;" x1="256.7983" x2="303.7983" y1="640.7188" y2="640.7188"/><line style="stroke:#181818;stroke-width:1;" x1="303.7983" x2="303.7983" y1="640.7188" y2="653.7188"/><line style="stroke:#181818;stroke-width:1;" x1="262.7983" x2="303.7983" y1="653.7188" y2="653.7188"/><polygon fill="#181818" points="272.7983,649.7188,262.7983,653.7188,272.7983,657.7188,268.7983,653.7188" style="stroke:#181818;stroke-width:1;"/><text fill="#000000" font-family="sans-serif" font-size="13" lengthAdjust="spacing" textLength="64.3652" x="268.7983" y="635.6528">run_loop2</text><line style="stroke:#181818;stroke-width:1;" x1="261.7983" x2="303.7983" y1="687.8516" y2="687.8516"/><line style="stroke:#181818;stroke-width:1;" x1="303.7983" x2="303.7983" y1="687.8516" y2="700.8516"/><line style="stroke:#181818;stroke-width:1;" x1="262.7983" x2="303.7983" y1="700.8516" y2="700.8516"/><polygon fill="#181818" points="272.7983,696.8516,262.7983,700.8516,272.7983,704.8516,268.7983,700.8516" style="stroke:#181818;stroke-width:1;"/><text fill="#000000" font-family="sans-serif" font-size="13" lengthAdjust="spacing" textLength="146.5674" x="268.7983" y="682.7856">diag = rescan_nodes()</text><polygon fill="#181818" points="645.1323,725.9844,655.1323,729.9844,645.1323,733.9844,649.1323,729.9844" style="stroke:#181818;stroke-width:1;"/><line style="stroke:#181818;stroke-width:1;" x1="256.7983" x2="651.1323" y1="729.9844" y2="729.9844"/><text fill="#000000" font-family="sans-serif" font-size="13" lengthAdjust="spacing" textLength="135.8271" x="263.7983" y="724.9185">log_diagnostic(diag);</text><path d="M179.5571,751.9844 L244,751.9844 L244,759.1172 L234,769.1172 L179.5571,769.1172 L179.5571,751.9844 " fill="#EEEEEE" style="stroke:#000000;stroke-width:1.5;"/><rect fill="transparent" height="104.5313" style="stroke:#000000;stroke-width:1.5;" width="518.8291" x="179.5571" y="751.9844"/><text fill="#000000" font-family="sans-serif" font-size="13" font-weight="bold" lengthAdjust="spacing" textLength="19.4429" x="194.5571" y="765.0513">alt</text><text fill="#000000" font-family="sans-serif" font-size="11" font-weight="bold" lengthAdjust="spacing" textLength="104.5591" x="259" y="764.1948">[run_01hz_noisy]</text><polygon fill="#181818" points="509.8062,786.25,519.8062,790.25,509.8062,794.25,513.8062,790.25" style="stroke:#181818;stroke-width:1;"/><line style="stroke:#181818;stroke-width:1;" x1="256.7983" x2="515.8062" y1="790.25" y2="790.25"/><text fill="#000000" font-family="sans-serif" font-size="13" lengthAdjust="spacing" textLength="49.626" x="263.7983" y="785.1841">pretty()</text><polygon fill="#181818" points="267.7983,815.3828,257.7983,819.3828,267.7983,823.3828,263.7983,819.3828" style="stroke:#181818;stroke-width:1;"/><line style="stroke:#181818;stroke-width:1;stroke-dasharray:2.0,2.0;" x1="261.7983" x2="520.8062" y1="819.3828" y2="819.3828"/><text fill="#000000" font-family="sans-serif" font-size="13" lengthAdjust="spacing" textLength="17.2148" x="273.7983" y="814.3169">str</text><polygon fill="#181818" points="645.1323,844.5156,655.1323,848.5156,645.1323,852.5156,649.1323,848.5156" style="stroke:#181818;stroke-width:1;"/><line style="stroke:#181818;stroke-width:1;" x1="256.7983" x2="651.1323" y1="848.5156" y2="848.5156"/><text fill="#000000" font-family="sans-serif" font-size="13" lengthAdjust="spacing" textLength="94.6689" x="263.7983" y="843.4497">log_debug(str)</text><path d="M20,870.5156 L84.4429,870.5156 L84.4429,877.6484 L74.4429,887.6484 L20,887.6484 L20,870.5156 " fill="#EEEEEE" style="stroke:#000000;stroke-width:1.5;"/><rect fill="transparent" height="104.5313" style="stroke:#000000;stroke-width:1.5;" width="605.8784" x="20" y="870.5156"/><text fill="#000000" font-family="sans-serif" font-size="13" font-weight="bold" lengthAdjust="spacing" textLength="19.4429" x="35" y="883.5825">alt</text><text fill="#000000" font-family="sans-serif" font-size="11" font-weight="bold" lengthAdjust="spacing" textLength="58.5288" x="99.4429" y="882.7261">[run_1hz]</text><polygon fill="#181818" points="509.8062,904.7813,519.8062,908.7813,509.8062,912.7813,513.8062,908.7813" style="stroke:#181818;stroke-width:1;"/><line style="stroke:#181818;stroke-width:1;" x1="256.7983" x2="515.8062" y1="908.7813" y2="908.7813"/><text fill="#000000" font-family="sans-serif" font-size="13" lengthAdjust="spacing" textLength="154.7114" x="263.7983" y="903.7153">get_latest_diagnostics()</text><polygon fill="#181818" points="267.7983,933.9141,257.7983,937.9141,267.7983,941.9141,263.7983,937.9141" style="stroke:#181818;stroke-width:1;"/><line style="stroke:#181818;stroke-width:1;stroke-dasharray:2.0,2.0;" x1="261.7983" x2="520.8062" y1="937.9141" y2="937.9141"/><text fill="#000000" font-family="sans-serif" font-size="13" lengthAdjust="spacing" textLength="116.7207" x="273.7983" y="932.8481">latest_diagnostics</text><polygon fill="#181818" points="59.9551,963.0469,49.9551,967.0469,59.9551,971.0469,55.9551,967.0469" style="stroke:#181818;stroke-width:1;"/><line style="stroke:#181818;stroke-width:1;" x1="53.9551" x2="245.7983" y1="967.0469" y2="967.0469"/><text fill="#000000" font-family="sans-serif" font-size="13" lengthAdjust="spacing" textLength="173.8433" x="65.9551" y="961.981">publish(latest_diagnostics)</text><path d="M169.5571,989.0469 L234,989.0469 L234,996.1797 L224,1006.1797 L169.5571,1006.1797 L169.5571,989.0469 " fill="#EEEEEE" style="stroke:#000000;stroke-width:1.5;"/><rect fill="transparent" height="336.4609" style="stroke:#000000;stroke-width:1.5;" width="538.8291" x="169.5571" y="989.0469"/><text fill="#000000" font-family="sans-serif" font-size="13" font-weight="bold" lengthAdjust="spacing" textLength="19.4429" x="184.5571" y="1002.1138">alt</text><text fill="#000000" font-family="sans-serif" font-size="11" font-weight="bold" lengthAdjust="spacing" textLength="66.1826" x="249" y="1001.2573">[run_10hz]</text><polygon fill="#181818" points="509.8062,1023.3125,519.8062,1027.3125,509.8062,1031.3125,513.8062,1027.3125" style="stroke:#181818;stroke-width:1;"/><line style="stroke:#181818;stroke-width:1;" x1="256.7983" x2="515.8062" y1="1027.3125" y2="1027.3125"/><text fill="#000000" font-family="sans-serif" font-size="13" lengthAdjust="spacing" textLength="111.7124" x="263.7983" y="1022.2466">update(0.1, now)</text><polygon fill="#181818" points="267.7983,1052.4453,257.7983,1056.4453,267.7983,1060.4453,263.7983,1056.4453" style="stroke:#181818;stroke-width:1;"/><line style="stroke:#181818;stroke-width:1;stroke-dasharray:2.0,2.0;" x1="261.7983" x2="520.8062" y1="1056.4453" y2="1056.4453"/><text fill="#000000" font-family="sans-serif" font-size="13" lengthAdjust="spacing" textLength="28.082" x="273.7983" y="1051.3794">diag</text><path d="M179.5571,1071.4453 L244,1071.4453 L244,1078.5781 L234,1088.5781 L179.5571,1088.5781 L179.5571,1071.4453 " fill="#EEEEEE" style="stroke:#000000;stroke-width:1.5;"/><rect fill="transparent" height="46.2656" style="stroke:#000000;stroke-width:1.5;" width="518.8291" x="179.5571" y="1071.4453"/><text fill="#000000" font-family="sans-serif" font-size="13" font-weight="bold" lengthAdjust="spacing" textLength="19.4429" x="194.5571" y="1084.5122">alt</text><text fill="#000000" font-family="sans-serif" font-size="11" font-weight="bold" lengthAdjust="spacing" textLength="155.0259" x="259" y="1083.6558">[if diag.level &gt;= NOTICE]</text><polygon fill="#181818" points="645.1323,1105.7109,655.1323,1109.7109,645.1323,1113.7109,649.1323,1109.7109" style="stroke:#181818;stroke-width:1;"/><line style="stroke:#181818;stroke-width:1;" x1="256.7983" x2="651.1323" y1="1109.7109" y2="1109.7109"/><text fill="#000000" font-family="sans-serif" font-size="13" lengthAdjust="spacing" textLength="131.4473" x="263.7983" y="1104.645">log_diagnostic(diag)</text><polygon fill="#181818" points="509.8062,1141.8438,519.8062,1145.8438,509.8062,1149.8438,513.8062,1145.8438" style="stroke:#181818;stroke-width:1;"/><line style="stroke:#181818;stroke-width:1;" x1="256.7983" x2="515.8062" y1="1145.8438" y2="1145.8438"/><text fill="#000000" font-family="sans-serif" font-size="13" lengthAdjust="spacing" textLength="111.668" x="263.7983" y="1140.7778">get_diagnostics()</text><polygon fill="#181818" points="267.7983,1170.9766,257.7983,1174.9766,267.7983,1178.9766,263.7983,1174.9766" style="stroke:#181818;stroke-width:1;"/><line style="stroke:#181818;stroke-width:1;stroke-dasharray:2.0,2.0;" x1="261.7983" x2="520.8062" y1="1174.9766" y2="1174.9766"/><text fill="#000000" font-family="sans-serif" font-size="13" lengthAdjust="spacing" textLength="73.6772" x="273.7983" y="1169.9106">diagnostics</text><line style="stroke:#181818;stroke-width:1;" x1="256.7983" x2="298.7983" y1="1204.1094" y2="1204.1094"/><line style="stroke:#181818;stroke-width:1;" x1="298.7983" x2="298.7983" y1="1204.1094" y2="1217.1094"/><line style="stroke:#181818;stroke-width:1;" x1="257.7983" x2="298.7983" y1="1217.1094" y2="1217.1094"/><polygon fill="#181818" points="267.7983,1213.1094,257.7983,1217.1094,267.7983,1221.1094,263.7983,1217.1094" style="stroke:#181818;stroke-width:1;"/><text fill="#000000" font-family="sans-serif" font-size="13" lengthAdjust="spacing" textLength="209.8027" x="263.7983" y="1199.0435">update_diagnostics(diagnostics)</text><polygon fill="#181818" points="509.8062,1242.2422,519.8062,1246.2422,509.8062,1250.2422,513.8062,1246.2422" style="stroke:#181818;stroke-width:1;"/><line style="stroke:#181818;stroke-width:1;" x1="256.7983" x2="515.8062" y1="1246.2422" y2="1246.2422"/><text fill="#000000" font-family="sans-serif" font-size="13" lengthAdjust="spacing" textLength="127.2705" x="263.7983" y="1241.1763">get_ready_to_arm()</text><polygon fill="#181818" points="267.7983,1271.375,257.7983,1275.375,267.7983,1279.375,263.7983,1275.375" style="stroke:#181818;stroke-width:1;"/><line style="stroke:#181818;stroke-width:1;stroke-dasharray:2.0,2.0;" x1="261.7983" x2="520.8062" y1="1275.375" y2="1275.375"/><text fill="#000000" font-family="sans-serif" font-size="13" lengthAdjust="spacing" textLength="89.2798" x="273.7983" y="1270.3091">ready_to_arm</text><line style="stroke:#181818;stroke-width:1;" x1="256.7983" x2="298.7983" y1="1304.5078" y2="1304.5078"/><line style="stroke:#181818;stroke-width:1;" x1="298.7983" x2="298.7983" y1="1304.5078" y2="1317.5078"/><line style="stroke:#181818;stroke-width:1;" x1="257.7983" x2="298.7983" y1="1317.5078" y2="1317.5078"/><polygon fill="#181818" points="267.7983,1313.5078,257.7983,1317.5078,267.7983,1321.5078,263.7983,1317.5078" style="stroke:#181818;stroke-width:1;"/><text fill="#000000" font-family="sans-serif" font-size="13" lengthAdjust="spacing" textLength="241.0078" x="263.7983" y="1299.4419">update_ready_to_arm(ready_to_arm)</text><!--SRC=[dLHDQzmm4BtxL-Ze9TsmwT4bWTA4OWXkQPDBBs9iJxoYMicLv9JDh-_8sZXo_S6s1gEHvisRfvb1JZY9x5P0exHrecA5hf5znryTgYeu31mIg9msxD6YOM1PHslIWY6yQ46vABuF9uYYTGNorUWAhVN8DfWZyBrkcf1AzbQIW7HCAE44IF622QEFD8bdS1Xo-HDliErDlrvSPCmwuamt4ryMKV5w43R2dMHvcbdfixIjmOYv18l-_2_eYJbZgA2KiG2xX7mYLhld0pSueTMiWlEH1cq5YllDObxZvy0wJeLqMEr1DPZcHVwGVxpFV-J5v_y9kxlzXwXlZqKnohFT9gZgC0y72eC6UGLIbb3zVFD8hLiRXkIqUz_lveR4T8el8pBcsyEkvyeLOyESPdwD6ffwS_DXXAORUDDhVHNe9UokzY_4BknnmZrKYCRBkMEK_UHXsq6jTMPT6vPTan9gCwk2H2odRz1nIRsX7ardTbxE53wXzuy9NQqh9GrkEWrO4BfRKzgrDV6akykhT-JylQRGPnhS_Ilpr9zTIdn6oMwkMV7b8VzqDs3ExVeGy2fziQRd5dEjYW4HxZqYd5HoKOP1g8_SQGxciAeZ1guB6L76cqqoT9N-Fm00]--></g></svg>