<svg xmlns="http://www.w3.org/2000/svg" xmlns:xlink="http://www.w3.org/1999/xlink" contentStyleType="text/css" data-diagram-type="CLASS" height="700px" preserveAspectRatio="none" style="width:2053px;height:700px;background:#FFFFFF;" version="1.1" viewBox="0 0 2053 700" width="2053px" zoomAndPan="magnify"><title>Diagnostic Class Diagram</title><defs/><g><text fill="#000000" font-family="sans-serif" font-size="14" font-weight="bold" lengthAdjust="spacing" textLength="201.3594" x="918.8486" y="22.9951">Diagnostic Class Diagram</text><!--cluster eros--><g id="cluster_eros"><path d="M8.5,168.3669 L43.8506,168.3669 A3.75,3.75 0 0 1 46.3506,170.8669 L53.3506,190.6638 L739.5,190.6638 A2.5,2.5 0 0 1 742,193.1638 L742,608.8669 A2.5,2.5 0 0 1 739.5,611.3669 L8.5,611.3669 A2.5,2.5 0 0 1 6,608.8669 L6,170.8669 A2.5,2.5 0 0 1 8.5,168.3669 " fill="transparent" style="stroke:#000000;stroke-width:1.5;"/><line style="stroke:#000000;stroke-width:1.5;" x1="6" x2="53.3506" y1="190.6638" y2="190.6638"/><text fill="#000000" font-family="sans-serif" font-size="14" font-weight="bold" lengthAdjust="spacing" textLength="34.3506" x="10" y="183.362">eros</text></g><!--class System--><g id="elem_System"><rect codeLine="3" fill="#F1F1F1" height="48" id="System" rx="2.5" ry="2.5" style="stroke:#181818;stroke-width:0.5;" width="84.2061" x="22" y="211.3669"/><ellipse cx="37" cy="227.3669" fill="#ADD1B2" rx="11" ry="11" style="stroke:#181818;stroke-width:1;"/><path d="M39.9688,233.0075 Q39.3906,233.3044 38.75,233.445 Q38.1094,233.6013 37.4063,233.6013 Q34.9063,233.6013 33.5781,231.9606 Q32.2656,230.3044 32.2656,227.1794 Q32.2656,224.0544 33.5781,222.3981 Q34.9063,220.7419 37.4063,220.7419 Q38.1094,220.7419 38.75,220.8981 Q39.4063,221.0544 39.9688,221.3513 L39.9688,224.07 Q39.3438,223.4919 38.75,223.2263 Q38.1563,222.945 37.5313,222.945 Q36.1875,222.945 35.5,224.0231 Q34.8125,225.0856 34.8125,227.1794 Q34.8125,229.2731 35.5,230.3513 Q36.1875,231.4138 37.5313,231.4138 Q38.1563,231.4138 38.75,231.1481 Q39.3438,230.8669 39.9688,230.2888 L39.9688,233.0075 Z " fill="#000000"/><text fill="#000000" font-family="sans-serif" font-size="14" lengthAdjust="spacing" textLength="52.2061" x="51" y="232.2136">System</text><line style="stroke:#181818;stroke-width:0.5;" x1="23" x2="105.2061" y1="243.3669" y2="243.3669"/><line style="stroke:#181818;stroke-width:0.5;" x1="23" x2="105.2061" y1="251.3669" y2="251.3669"/></g><!--class Diagnostic--><g id="elem_Diagnostic"><rect codeLine="5" fill="#F1F1F1" height="48" id="Diagnostic" rx="2.5" ry="2.5" style="stroke:#181818;stroke-width:0.5;" width="105.9443" x="612" y="211.3669"/><ellipse cx="627" cy="227.3669" fill="#ADD1B2" rx="11" ry="11" style="stroke:#181818;stroke-width:1;"/><path d="M629.9688,233.0075 Q629.3906,233.3044 628.75,233.445 Q628.1094,233.6013 627.4063,233.6013 Q624.9063,233.6013 623.5781,231.9606 Q622.2656,230.3044 622.2656,227.1794 Q622.2656,224.0544 623.5781,222.3981 Q624.9063,220.7419 627.4063,220.7419 Q628.1094,220.7419 628.75,220.8981 Q629.4063,221.0544 629.9688,221.3513 L629.9688,224.07 Q629.3438,223.4919 628.75,223.2263 Q628.1563,222.945 627.5313,222.945 Q626.1875,222.945 625.5,224.0231 Q624.8125,225.0856 624.8125,227.1794 Q624.8125,229.2731 625.5,230.3513 Q626.1875,231.4138 627.5313,231.4138 Q628.1563,231.4138 628.75,231.1481 Q629.3438,230.8669 629.9688,230.2888 L629.9688,233.0075 Z " fill="#000000"/><text fill="#000000" font-family="sans-serif" font-size="14" lengthAdjust="spacing" textLength="73.9443" x="641" y="232.2136">Diagnostic</text><line style="stroke:#181818;stroke-width:0.5;" x1="613" x2="716.9443" y1="243.3669" y2="243.3669"/><line style="stroke:#181818;stroke-width:0.5;" x1="613" x2="716.9443" y1="251.3669" y2="251.3669"/></g><!--class Diagnostic::DiagnosticType--><g id="elem_Diagnostic::DiagnosticType"><rect codeLine="6" fill="#F1F1F1" height="48" id="Diagnostic::DiagnosticType" rx="2.5" ry="2.5" style="stroke:#181818;stroke-width:0.5;" width="223.6592" x="141" y="211.3669"/><ellipse cx="156" cy="227.3669" fill="#EB937F" rx="11" ry="11" style="stroke:#181818;stroke-width:1;"/><path d="M160.1094,233.3669 L152.3906,233.3669 L152.3906,220.9763 L160.1094,220.9763 L160.1094,223.1325 L154.8438,223.1325 L154.8438,225.8044 L159.6094,225.8044 L159.6094,227.9606 L154.8438,227.9606 L154.8438,231.2106 L160.1094,231.2106 L160.1094,233.3669 Z " fill="#000000"/><text fill="#000000" font-family="sans-serif" font-size="14" lengthAdjust="spacing" textLength="191.6592" x="170" y="232.2136">Diagnostic::DiagnosticType</text><line style="stroke:#181818;stroke-width:0.5;" x1="142" x2="363.6592" y1="243.3669" y2="243.3669"/><line style="stroke:#181818;stroke-width:0.5;" x1="142" x2="363.6592" y1="251.3669" y2="251.3669"/></g><!--class Diagnostic::Message--><g id="elem_Diagnostic::Message"><rect codeLine="7" fill="#F1F1F1" height="48" id="Diagnostic::Message" rx="2.5" ry="2.5" style="stroke:#181818;stroke-width:0.5;" width="176.7373" x="400.5" y="211.3669"/><ellipse cx="415.5" cy="227.3669" fill="#EB937F" rx="11" ry="11" style="stroke:#181818;stroke-width:1;"/><path d="M419.6094,233.3669 L411.8906,233.3669 L411.8906,220.9763 L419.6094,220.9763 L419.6094,223.1325 L414.3438,223.1325 L414.3438,225.8044 L419.1094,225.8044 L419.1094,227.9606 L414.3438,227.9606 L414.3438,231.2106 L419.6094,231.2106 L419.6094,233.3669 Z " fill="#000000"/><text fill="#000000" font-family="sans-serif" font-size="14" lengthAdjust="spacing" textLength="144.7373" x="429.5" y="232.2136">Diagnostic::Message</text><line style="stroke:#181818;stroke-width:0.5;" x1="401.5" x2="576.2373" y1="243.3669" y2="243.3669"/><line style="stroke:#181818;stroke-width:0.5;" x1="401.5" x2="576.2373" y1="251.3669" y2="251.3669"/></g><!--class Diagnostic::DiagnosticDefinition--><g id="elem_Diagnostic::DiagnosticDefinition"><rect codeLine="8" fill="#F1F1F1" height="48" id="Diagnostic::DiagnosticDefinition" rx="2.5" ry="2.5" style="stroke:#181818;stroke-width:0.5;" width="257.1143" x="141.5" y="539.3669"/><ellipse cx="156.5" cy="555.3669" fill="#F1F1F1" rx="11" ry="11" style="stroke:#181818;stroke-width:1;"/><path d="M155.9844,555.9294 Q154.125,555.2263 153.4688,554.4606 Q152.8281,553.6794 152.8281,552.3669 Q152.8281,550.6794 153.9063,549.7106 Q154.9844,548.7419 156.8594,548.7419 Q157.7188,548.7419 158.5625,548.945 Q159.4219,549.1325 160.2656,549.5231 L160.2656,551.9138 Q159.4844,551.3513 158.6563,551.07 Q157.8438,550.7731 157.0469,550.7731 Q156.1719,550.7731 155.6875,551.1325 Q155.2188,551.4919 155.2188,552.1481 Q155.2188,552.6638 155.5625,553.0075 Q155.9063,553.3356 157,553.7419 L158.0625,554.1481 Q159.5469,554.695 160.25,555.6013 Q160.9688,556.5075 160.9688,557.8825 Q160.9688,559.7575 159.8594,560.6794 Q158.75,561.6013 156.5,561.6013 Q155.5781,561.6013 154.6563,561.3825 Q153.7344,561.1638 152.875,560.7419 L152.875,558.2106 Q153.8438,558.8981 154.7656,559.2419 Q155.6875,559.5856 156.5781,559.5856 Q157.4844,559.5856 157.9844,559.1794 Q158.4844,558.7575 158.4844,558.0231 Q158.4844,557.4606 158.1406,557.0544 Q157.8125,556.6325 157.1875,556.3825 L155.9844,555.9294 Z " fill="#000000"/><text fill="#000000" font-family="sans-serif" font-size="14" lengthAdjust="spacing" textLength="225.1143" x="170.5" y="560.2136">Diagnostic::DiagnosticDefinition</text><line style="stroke:#181818;stroke-width:0.5;" x1="142.5" x2="397.6143" y1="571.3669" y2="571.3669"/><line style="stroke:#181818;stroke-width:0.5;" x1="142.5" x2="397.6143" y1="579.3669" y2="579.3669"/></g><!--class Diagnostic::DiagnosticType--><g id="elem_Diagnostic::DiagnosticType"><rect codeLine="11" fill="#F1F1F1" height="227.2656" id="Diagnostic::DiagnosticType" rx="2.5" ry="2.5" style="stroke:#181818;stroke-width:0.5;" width="223.6592" x="758" y="449.8669"/><ellipse cx="773" cy="465.8669" fill="#EB937F" rx="11" ry="11" style="stroke:#181818;stroke-width:1;"/><path d="M777.1094,471.8669 L769.3906,471.8669 L769.3906,459.4763 L777.1094,459.4763 L777.1094,461.6325 L771.8438,461.6325 L771.8438,464.3044 L776.6094,464.3044 L776.6094,466.4606 L771.8438,466.4606 L771.8438,469.7106 L777.1094,469.7106 L777.1094,471.8669 Z " fill="#000000"/><text fill="#000000" font-family="sans-serif" font-size="14" lengthAdjust="spacing" textLength="191.6592" x="787" y="470.7136">Diagnostic::DiagnosticType</text><line style="stroke:#181818;stroke-width:0.5;" x1="759" x2="980.6592" y1="481.8669" y2="481.8669"/><text fill="#000000" font-family="sans-serif" font-size="14" lengthAdjust="spacing" textLength="117.0996" x="764" y="498.862">UNKNOWN_TYPE</text><text fill="#000000" font-family="sans-serif" font-size="14" lengthAdjust="spacing" textLength="78.5039" x="764" y="515.1589">SOFTWARE</text><text fill="#000000" font-family="sans-serif" font-size="14" lengthAdjust="spacing" textLength="132.2139" x="764" y="531.4557">COMMUNICATIONS</text><text fill="#000000" font-family="sans-serif" font-size="14" lengthAdjust="spacing" textLength="66.7256" x="764" y="547.7526">SENSORS</text><text fill="#000000" font-family="sans-serif" font-size="14" lengthAdjust="spacing" textLength="85.9141" x="764" y="564.0495">ACTUATORS</text><text fill="#000000" font-family="sans-serif" font-size="14" lengthAdjust="spacing" textLength="112.9434" x="764" y="580.3464">DATA_STORAGE</text><text fill="#000000" font-family="sans-serif" font-size="14" lengthAdjust="spacing" textLength="134.4355" x="764" y="596.6432">REMOTE_CONTROL</text><text fill="#000000" font-family="sans-serif" font-size="14" lengthAdjust="spacing" textLength="81.5527" x="764" y="612.9401">TARGETING</text><text fill="#000000" font-family="sans-serif" font-size="14" lengthAdjust="spacing" textLength="37.1943" x="764" y="629.237">POSE</text><text fill="#000000" font-family="sans-serif" font-size="14" lengthAdjust="spacing" textLength="50.21" x="764" y="645.5339">TIMING</text><text fill="#000000" font-family="sans-serif" font-size="14" lengthAdjust="spacing" textLength="139.877" x="764" y="661.8307">SYSTEM_RESOURCE</text><line style="stroke:#181818;stroke-width:0.5;" x1="759" x2="980.6592" y1="669.1325" y2="669.1325"/></g><!--class Diagnostic::Message--><g id="elem_Diagnostic::Message"><rect codeLine="24" fill="#F1F1F1" height="259.8594" id="Diagnostic::Message" rx="2.5" ry="2.5" style="stroke:#181818;stroke-width:0.5;" width="187.5127" x="1017" y="433.3669"/><ellipse cx="1036.8489" cy="449.3669" fill="#EB937F" rx="11" ry="11" style="stroke:#181818;stroke-width:1;"/><path d="M1040.9583,455.3669 L1033.2396,455.3669 L1033.2396,442.9763 L1040.9583,442.9763 L1040.9583,445.1325 L1035.6927,445.1325 L1035.6927,447.8044 L1040.4583,447.8044 L1040.4583,449.9606 L1035.6927,449.9606 L1035.6927,453.2106 L1040.9583,453.2106 L1040.9583,455.3669 Z " fill="#000000"/><text fill="#000000" font-family="sans-serif" font-size="14" lengthAdjust="spacing" textLength="144.7373" x="1051.9265" y="454.2136">Diagnostic::Message</text><line style="stroke:#181818;stroke-width:0.5;" x1="1018" x2="1203.5127" y1="465.3669" y2="465.3669"/><text fill="#000000" font-family="sans-serif" font-size="14" lengthAdjust="spacing" textLength="70.54" x="1023" y="482.362">NOERROR</text><text fill="#000000" font-family="sans-serif" font-size="14" lengthAdjust="spacing" textLength="59.9785" x="1023" y="498.6589">NODATA</text><text fill="#000000" font-family="sans-serif" font-size="14" lengthAdjust="spacing" textLength="131.7559" x="1023" y="514.9557">UNKNOWN_ERROR</text><text fill="#000000" font-family="sans-serif" font-size="14" lengthAdjust="spacing" textLength="87.958" x="1023" y="531.2526">INITIALIZING</text><text fill="#000000" font-family="sans-serif" font-size="14" lengthAdjust="spacing" textLength="144.0059" x="1023" y="547.5495">INITIALIZING_ERROR</text><text fill="#000000" font-family="sans-serif" font-size="14" lengthAdjust="spacing" textLength="144.1221" x="1023" y="563.8464">DROPPING_PACKETS</text><text fill="#000000" font-family="sans-serif" font-size="14" lengthAdjust="spacing" textLength="159.127" x="1023" y="580.1432">MISSING_HEARTBEATS</text><text fill="#000000" font-family="sans-serif" font-size="14" lengthAdjust="spacing" textLength="172.4844" x="1023" y="596.4401">DEVICE_NOT_AVAILABLE</text><text fill="#000000" font-family="sans-serif" font-size="14" lengthAdjust="spacing" textLength="146.4736" x="1023" y="612.737">TEMPERATURE_HIGH</text><text fill="#000000" font-family="sans-serif" font-size="14" lengthAdjust="spacing" textLength="143.1035" x="1023" y="629.0339">TEMPERATURE_LOW</text><text fill="#000000" font-family="sans-serif" font-size="14" lengthAdjust="spacing" textLength="119.4785" x="1023" y="645.3307">RESOURCE_LEAK</text><text fill="#000000" font-family="sans-serif" font-size="14" lengthAdjust="spacing" textLength="175.5127" x="1023" y="661.6276">HIGH_RESOURCE_USAGE</text><text fill="#000000" font-family="sans-serif" font-size="14" lengthAdjust="spacing" textLength="144.3545" x="1023" y="677.9245">DIAGNOSTIC_FAILED</text><line style="stroke:#181818;stroke-width:0.5;" x1="1018" x2="1203.5127" y1="685.2263" y2="685.2263"/></g><!--class Diagnostic::DiagnosticDefinition--><g id="elem_Diagnostic::DiagnosticDefinition"><rect codeLine="40" fill="#F1F1F1" height="210.9688" id="Diagnostic::DiagnosticDefinition" rx="2.5" ry="2.5" style="stroke:#181818;stroke-width:0.5;" width="257.1143" x="1240.5" y="457.8669"/><ellipse cx="1255.5" cy="473.8669" fill="#F1F1F1" rx="11" ry="11" style="stroke:#181818;stroke-width:1;"/><path d="M1254.9844,474.4294 Q1253.125,473.7263 1252.4688,472.9606 Q1251.8281,472.1794 1251.8281,470.8669 Q1251.8281,469.1794 1252.9063,468.2106 Q1253.9844,467.2419 1255.8594,467.2419 Q1256.7188,467.2419 1257.5625,467.445 Q1258.4219,467.6325 1259.2656,468.0231 L1259.2656,470.4138 Q1258.4844,469.8513 1257.6563,469.57 Q1256.8438,469.2731 1256.0469,469.2731 Q1255.1719,469.2731 1254.6875,469.6325 Q1254.2188,469.9919 1254.2188,470.6481 Q1254.2188,471.1638 1254.5625,471.5075 Q1254.9063,471.8356 1256,472.2419 L1257.0625,472.6481 Q1258.5469,473.195 1259.25,474.1013 Q1259.9688,475.0075 1259.9688,476.3825 Q1259.9688,478.2575 1258.8594,479.1794 Q1257.75,480.1013 1255.5,480.1013 Q1254.5781,480.1013 1253.6563,479.8825 Q1252.7344,479.6638 1251.875,479.2419 L1251.875,476.7106 Q1252.8438,477.3981 1253.7656,477.7419 Q1254.6875,478.0856 1255.5781,478.0856 Q1256.4844,478.0856 1256.9844,477.6794 Q1257.4844,477.2575 1257.4844,476.5231 Q1257.4844,475.9606 1257.1406,475.5544 Q1256.8125,475.1325 1256.1875,474.8825 L1254.9844,474.4294 Z " fill="#000000"/><text fill="#000000" font-family="sans-serif" font-size="14" lengthAdjust="spacing" textLength="225.1143" x="1269.5" y="478.7136">Diagnostic::DiagnosticDefinition</text><line style="stroke:#181818;stroke-width:0.5;" x1="1241.5" x2="1496.6143" y1="489.8669" y2="489.8669"/><text fill="#000000" font-family="sans-serif" font-size="14" lengthAdjust="spacing" textLength="168.4307" x="1246.5" y="506.862">std::string device_name</text><text fill="#000000" font-family="sans-serif" font-size="14" lengthAdjust="spacing" textLength="157.3838" x="1246.5" y="523.1589">std::string node_name</text><text fill="#000000" font-family="sans-serif" font-size="14" lengthAdjust="spacing" textLength="202.3301" x="1246.5" y="539.4557">System::MainSystem system</text><text fill="#000000" font-family="sans-serif" font-size="14" lengthAdjust="spacing" textLength="220.6094" x="1246.5" y="555.7526">System::SubSystem subsystem</text><text fill="#000000" font-family="sans-serif" font-size="14" lengthAdjust="spacing" textLength="226.5703" x="1246.5" y="572.0495">System::Component component</text><text fill="#000000" font-family="sans-serif" font-size="14" lengthAdjust="spacing" textLength="227.3838" x="1246.5" y="588.3464">Diagnostic::DiagnosticType type</text><text fill="#000000" font-family="sans-serif" font-size="14" lengthAdjust="spacing" textLength="212.1055" x="1246.5" y="604.6432">Diagnostic::Message message</text><text fill="#000000" font-family="sans-serif" font-size="14" lengthAdjust="spacing" textLength="118.7129" x="1246.5" y="620.9401">Level::Type level</text><text fill="#000000" font-family="sans-serif" font-size="14" lengthAdjust="spacing" textLength="153.583" x="1246.5" y="637.237">std::string description</text><text fill="#000000" font-family="sans-serif" font-size="14" lengthAdjust="spacing" textLength="157.7051" x="1246.5" y="653.5339">uint64_t update_count</text><line style="stroke:#181818;stroke-width:0.5;" x1="1241.5" x2="1496.6143" y1="660.8356" y2="660.8356"/></g><!--class Diagnostic--><g id="elem_Diagnostic"><rect codeLine="56" fill="#F1F1F1" height="276.1563" id="Diagnostic" rx="2.5" ry="2.5" style="stroke:#181818;stroke-width:0.5;" width="1288.5566" x="757.5" y="97.3669"/><ellipse cx="1360.5562" cy="113.3669" fill="#ADD1B2" rx="11" ry="11" style="stroke:#181818;stroke-width:1;"/><path d="M1363.5249,119.0075 Q1362.9468,119.3044 1362.3062,119.445 Q1361.6655,119.6013 1360.9624,119.6013 Q1358.4624,119.6013 1357.1343,117.9606 Q1355.8218,116.3044 1355.8218,113.1794 Q1355.8218,110.0544 1357.1343,108.3981 Q1358.4624,106.7419 1360.9624,106.7419 Q1361.6655,106.7419 1362.3062,106.8981 Q1362.9624,107.0544 1363.5249,107.3513 L1363.5249,110.07 Q1362.8999,109.4919 1362.3062,109.2263 Q1361.7124,108.945 1361.0874,108.945 Q1359.7437,108.945 1359.0562,110.0231 Q1358.3687,111.0856 1358.3687,113.1794 Q1358.3687,115.2731 1359.0562,116.3513 Q1359.7437,117.4138 1361.0874,117.4138 Q1361.7124,117.4138 1362.3062,117.1481 Q1362.8999,116.8669 1363.5249,116.2888 L1363.5249,119.0075 Z " fill="#000000"/><text fill="#000000" font-family="sans-serif" font-size="14" lengthAdjust="spacing" textLength="73.9443" x="1381.0562" y="118.2136">Diagnostic</text><line style="stroke:#181818;stroke-width:0.5;" x1="758.5" x2="2045.0566" y1="129.3669" y2="129.3669"/><line style="stroke:#181818;stroke-width:0.5;" x1="758.5" x2="2045.0566" y1="137.3669" y2="137.3669"/><ellipse cx="768.5" cy="151.0153" fill="#84BE84" rx="3" ry="3" style="stroke:#038048;stroke-width:1;"/><text fill="#000000" font-family="sans-serif" font-size="14" lengthAdjust="spacing" text-decoration="underline" textLength="441.123" x="777.5" y="154.362">std::string DiagnosticTypeString(Diagnostic::DiagnosticType v)</text><ellipse cx="768.5" cy="167.3122" fill="#84BE84" rx="3" ry="3" style="stroke:#038048;stroke-width:1;"/><text fill="#000000" font-family="sans-serif" font-size="14" lengthAdjust="spacing" text-decoration="underline" textLength="421.2236" x="777.5" y="170.6589">std::string DiagnosticMessageString(Diagnostic::Message v)</text><ellipse cx="768.5" cy="183.6091" fill="#84BE84" rx="3" ry="3" style="stroke:#038048;stroke-width:1;"/><text fill="#000000" font-family="sans-serif" font-size="14" lengthAdjust="spacing" text-decoration="underline" textLength="561.5859" x="777.5" y="186.9557">std::string pretty(std::string pre, std::vector&lt;DiagnosticDefinition&gt; diagnostics)</text><ellipse cx="768.5" cy="199.9059" fill="#84BE84" rx="3" ry="3" style="stroke:#038048;stroke-width:1;"/><text fill="#000000" font-family="sans-serif" font-size="14" lengthAdjust="spacing" text-decoration="underline" textLength="595.7656" x="777.5" y="203.2526">std::string pretty(std::string pre,DiagnosticDefinition diag,bool print_end_line = true)</text><ellipse cx="768.5" cy="216.2028" fill="#84BE84" rx="3" ry="3" style="stroke:#038048;stroke-width:1;"/><text fill="#000000" font-family="sans-serif" font-size="14" lengthAdjust="spacing" textLength="129.1855" x="777.5" y="219.5495">std::string pretty()</text><ellipse cx="768.5" cy="232.4997" fill="#84BE84" rx="3" ry="3" style="stroke:#038048;stroke-width:1;"/><text fill="#000000" font-family="sans-serif" font-size="14" lengthAdjust="spacing" textLength="1096.4775" x="777.5" y="235.8464">void initialize(std::string device_name,std::string node_name,System::MainSystem system,System::SubSystem subsystem,System::Component component)</text><ellipse cx="768.5" cy="248.7966" fill="#84BE84" rx="3" ry="3" style="stroke:#038048;stroke-width:1;"/><text fill="#000000" font-family="sans-serif" font-size="14" lengthAdjust="spacing" textLength="363.1592" x="777.5" y="252.1432">void initialize(Diagnostic::DiagnosticDefinition diag)</text><ellipse cx="768.5" cy="265.0934" fill="#84BE84" rx="3" ry="3" style="stroke:#038048;stroke-width:1;"/><text fill="#000000" font-family="sans-serif" font-size="14" lengthAdjust="spacing" textLength="591.7803" x="777.5" y="268.4401">bool enable_diagnostics(std::vector&lt;Diagnostic::DiagnosticType&gt; diagnostic_types)</text><ellipse cx="768.5" cy="281.3903" fill="#84BE84" rx="3" ry="3" style="stroke:#038048;stroke-width:1;"/><text fill="#000000" font-family="sans-serif" font-size="14" lengthAdjust="spacing" textLength="294.5264" x="777.5" y="284.737">DiagnosticDefinition get_root_diagnostic()</text><ellipse cx="768.5" cy="297.6872" fill="#84BE84" rx="3" ry="3" style="stroke:#038048;stroke-width:1;"/><text fill="#000000" font-family="sans-serif" font-size="14" lengthAdjust="spacing" textLength="365.415" x="777.5" y="301.0339">std::vector&lt;DiagnosticDefinition&gt; get_diagnostics()</text><ellipse cx="768.5" cy="313.9841" fill="#84BE84" rx="3" ry="3" style="stroke:#038048;stroke-width:1;"/><text fill="#000000" font-family="sans-serif" font-size="14" lengthAdjust="spacing" textLength="411.7695" x="777.5" y="317.3307">std::vector&lt;DiagnosticDefinition&gt; get_latest_diagnostics()</text><ellipse cx="768.5" cy="330.2809" fill="#84BE84" rx="3" ry="3" style="stroke:#038048;stroke-width:1;"/><text fill="#000000" font-family="sans-serif" font-size="14" lengthAdjust="spacing" textLength="1089.6758" x="777.5" y="333.6276">DiagnosticDefinition update_diagnostic(Diagnostic::DiagnosticType diagnostic_type,Level::Type level,Diagnostic::Message message,std::string description)</text><ellipse cx="768.5" cy="346.5778" fill="#84BE84" rx="3" ry="3" style="stroke:#038048;stroke-width:1;"/><text fill="#000000" font-family="sans-serif" font-size="14" lengthAdjust="spacing" textLength="461.918" x="777.5" y="349.9245">DiagnosticDefinition update_diagnostic(DiagnosticDefinition diag)</text><ellipse cx="768.5" cy="362.8747" fill="#84BE84" rx="3" ry="3" style="stroke:#038048;stroke-width:1;"/><text fill="#000000" font-family="sans-serif" font-size="14" lengthAdjust="spacing" textLength="1262.5566" x="777.5" y="366.2214">DiagnosticDefinition update_diagnostic(std::string device_name Diagnostic::DiagnosticType diagnostic_type,Level::Type level,Diagnostic::Message message,std::string description)</text></g><!--reverse link Diagnostic to Diagnostic::Message--><g id="link_Diagnostic_Diagnostic::Message"><path codeLine="52" d="M675.8729,274.7301 C685.3629,305.5901 701.85,344.4669 740,373.3669 C834.53,444.9869 898.5,372.0369 1000,433.3669 C1005.82,436.8769 1011.48,440.8069 1016.98,445.0369 " fill="transparent" id="Diagnostic-backto-Diagnostic::Message" style="stroke:#181818;stroke-width:1;"/><ellipse cx="673.5215" cy="267.0835" fill="#FFFFFF" rx="8" ry="8" style="stroke:#181818;stroke-width:1;"/><line style="stroke:#181818;stroke-width:1;" x1="675.8729" x2="671.17" y1="274.7301" y2="259.4369"/><line style="stroke:#181818;stroke-width:1;" x1="665.8749" x2="681.1681" y1="269.4349" y2="264.732"/></g><!--reverse link Diagnostic to Diagnostic::DiagnosticType--><g id="link_Diagnostic_Diagnostic::DiagnosticType"><path codeLine="53" d="M684.1082,273.78 C698.3182,301.36 715.98,334.3369 740,373.3669 C755.45,398.4669 772.83,424.8469 789.73,449.6669 " fill="transparent" id="Diagnostic-backto-Diagnostic::DiagnosticType" style="stroke:#181818;stroke-width:1;"/><ellipse cx="680.4441" cy="266.6684" fill="#FFFFFF" rx="8" ry="8" style="stroke:#181818;stroke-width:1;"/><line style="stroke:#181818;stroke-width:1;" x1="684.1082" x2="676.78" y1="273.78" y2="259.5569"/><line style="stroke:#181818;stroke-width:1;" x1="673.3325" x2="687.5557" y1="270.3325" y2="263.0044"/></g><!--reverse link Diagnostic to Diagnostic::DiagnosticDefinition--><g id="link_Diagnostic_Diagnostic::DiagnosticDefinition"><path codeLine="54" d="M674.9729,274.8777 C683.9029,306.3077 700.19,346.3169 740,373.3669 C918.93,494.9269 1025.8,344.4469 1223,433.3669 C1237.34,439.8369 1251.28,448.2069 1264.51,457.5769 " fill="transparent" id="Diagnostic-backto-Diagnostic::DiagnosticDefinition" style="stroke:#181818;stroke-width:1;"/><ellipse cx="672.7864" cy="267.1823" fill="#FFFFFF" rx="8" ry="8" style="stroke:#181818;stroke-width:1;"/><line style="stroke:#181818;stroke-width:1;" x1="674.9729" x2="670.6" y1="274.8777" y2="259.4869"/><line style="stroke:#181818;stroke-width:1;" x1="665.091" x2="680.4819" y1="269.3687" y2="264.9958"/></g><!--reverse link System to Diagnostic--><g id="link_System_Diagnostic"><path codeLine="55" d="M68.5534,199.3832 C74.4634,160.5032 90.58,97.1869 142.5,67.3669 C184.41,43.2969 535.59,43.2969 577.5,67.3669 C630.4,97.7469 652.58,172.3069 660.78,211.0769 " fill="transparent" id="System-backto-Diagnostic" style="stroke:#181818;stroke-width:1;"/><polygon fill="#181818" points="66.75,211.2469,71.6063,205.9161,68.5534,199.3832,63.6971,204.7139,66.75,211.2469" style="stroke:#181818;stroke-width:1;"/></g><!--SRC=[lLNFRvim5Bxdh_0nNUbjsY7Q9hdWfbO1HzXfr5qi0bw6HY024wchyh_F64XeQcZMmpZPttj-lx-7J6GgW9E4comlPH81EmtBKWD5k9timkXtk15057a9NYP0VP5MeC-b55iDo7mZv2zHjFAJpidgKI2oQjl3PxFJcJtlnB2U9yfI1N9KA6LHHNB0b2D-9baYappJ-eV9OVAEupRsfV_WavNFsTC20OrGSiTMC43wOXFFM_hOXWmJdpPov5CIq4OPscm9cRhgcmCPv5HTuRnv7Y2FCCHjuhE0k1fYC9WZXlsvlYq8RJGPzZgCFb66F1uWIfQ1ZKofjBLfS_092W8IjESwY5UfdOJOnmn35__eNFM1dfuJaCMYXXRGVa2iISx3bDROFO81kqMmXHtqY6t4VS8uV8JOXRTkcn7o5YY0R1aWVe_dzsz0bwpQ8ZM9SXV11utKwiVy-P9svNGmdFk4CcppE-KAEHDLd0ldegrLAUFPJ3r9iWs8nJw91C_2hNWZo_Au9sbcNzKzJBBc3CeJ7JefhTQTi5eRv7Q-tUMPo2I8kbEJrl2GoeuYfkvlUmnnnLwaivb-bDPdGxPbL2Ix8qUg99DVFdC9gbqSIi6Zl5Bn72QzpN1zSsEav8ZA6RilqkoHjwtVfxxgv7otg5Rg3AvVIXcg- -5LdgyZe1gSZfHuVtMHiJPtWxsk7QE6TeMGydbw1bcDpbv4CY- -cYho7SH7jFo00oCLQfFMEizJfQAcW8iivccI2V0DA3A9natZo-2YZMAV9p7G5iCq-IEc0yooZAoo1XbbZR396c7IG5JlheMw5krRNH6HXUjKy5xLf-OUdGzIlrEyvctNBgDRzGFbHPxBdgFfLR_cepDHl-v7UFKl3rF5zjButXXfknvwSOwGwQm4rfkrP8qiCcjWNNqqEdENBpGpCCxW_oT_-0i0]--></g></svg>