<?xml version="1.0" encoding="UTF-8" standalone="no"?><svg xmlns="http://www.w3.org/2000/svg" xmlns:xlink="http://www.w3.org/1999/xlink" contentStyleType="text/css" height="745px" preserveAspectRatio="none" style="width:1457px;height:745px;background:#FFFFFF;" version="1.1" viewBox="0 0 1457 745" width="1457px" zoomAndPan="magnify"><defs/><g><rect fill="none" height="26.2969" id="_title" style="stroke:none;stroke-width:1.0;" width="208" x="617.5" y="5"/><text fill="#000000" font-family="sans-serif" font-size="14" font-weight="bold" lengthAdjust="spacing" textLength="198" x="622.5" y="22.9951">Diagnostic Class Diagram</text><!--MD5=[04e143e1b92f58df159b9d5ccef94150]
cluster eros--><g id="cluster_eros"><path d="M8.5,43.2969 L45.5,43.2969 A3.75,3.75 0 0 1 48,45.7969 L55,65.5938 L1447.5,65.5938 A2.5,2.5 0 0 1 1450,68.0938 L1450,735.7969 A2.5,2.5 0 0 1 1447.5,738.2969 L8.5,738.2969 A2.5,2.5 0 0 1 6,735.7969 L6,45.7969 A2.5,2.5 0 0 1 8.5,43.2969 " fill="none" style="stroke:#000000;stroke-width:1.5;"/><line style="stroke:#000000;stroke-width:1.5;" x1="6" x2="55" y1="65.5938" y2="65.5938"/><text fill="#000000" font-family="sans-serif" font-size="14" font-weight="bold" lengthAdjust="spacing" textLength="36" x="10" y="58.292">eros</text></g><!--MD5=[f8e092794d52bf9a252466252ae7bd1c]
class System--><g id="elem_System"><rect codeLine="3" fill="#F1F1F1" height="48" id="System" rx="2.5" ry="2.5" style="stroke:#181818;stroke-width:0.5;" width="83" x="22.5" y="216.2969"/><ellipse cx="37.5" cy="232.2969" fill="#ADD1B2" rx="11" ry="11" style="stroke:#181818;stroke-width:1.0;"/><path d="M40.4688,237.9375 Q39.8906,238.2344 39.25,238.375 Q38.6094,238.5313 37.9063,238.5313 Q35.4063,238.5313 34.0781,236.8906 Q32.7656,235.2344 32.7656,232.1094 Q32.7656,228.9844 34.0781,227.3281 Q35.4063,225.6719 37.9063,225.6719 Q38.6094,225.6719 39.25,225.8281 Q39.9063,225.9844 40.4688,226.2813 L40.4688,229 Q39.8438,228.4219 39.25,228.1563 Q38.6563,227.875 38.0313,227.875 Q36.6875,227.875 36,228.9531 Q35.3125,230.0156 35.3125,232.1094 Q35.3125,234.2031 36,235.2813 Q36.6875,236.3438 38.0313,236.3438 Q38.6563,236.3438 39.25,236.0781 Q39.8438,235.7969 40.4688,235.2188 L40.4688,237.9375 Z " fill="#000000"/><text fill="#000000" font-family="sans-serif" font-size="14" lengthAdjust="spacing" textLength="51" x="51.5" y="237.1436">System</text><line style="stroke:#181818;stroke-width:0.5;" x1="23.5" x2="104.5" y1="248.2969" y2="248.2969"/><line style="stroke:#181818;stroke-width:0.5;" x1="23.5" x2="104.5" y1="256.2969" y2="256.2969"/></g><!--MD5=[36fa9c4bc26a4196447d5dae16ba58f1]
class Diagnostic--><g id="elem_Diagnostic"><rect codeLine="56" fill="#F1F1F1" height="276.1563" id="Diagnostic" rx="2.5" ry="2.5" style="stroke:#181818;stroke-width:0.5;" width="1269" x="140.5" y="102.2969"/><ellipse cx="734.25" cy="118.2969" fill="#ADD1B2" rx="11" ry="11" style="stroke:#181818;stroke-width:1.0;"/><path d="M737.2188,123.9375 Q736.6406,124.2344 736,124.375 Q735.3594,124.5313 734.6563,124.5313 Q732.1563,124.5313 730.8281,122.8906 Q729.5156,121.2344 729.5156,118.1094 Q729.5156,114.9844 730.8281,113.3281 Q732.1563,111.6719 734.6563,111.6719 Q735.3594,111.6719 736,111.8281 Q736.6563,111.9844 737.2188,112.2813 L737.2188,115 Q736.5938,114.4219 736,114.1563 Q735.4063,113.875 734.7813,113.875 Q733.4375,113.875 732.75,114.9531 Q732.0625,116.0156 732.0625,118.1094 Q732.0625,120.2031 732.75,121.2813 Q733.4375,122.3438 734.7813,122.3438 Q735.4063,122.3438 736,122.0781 Q736.5938,121.7969 737.2188,121.2188 L737.2188,123.9375 Z " fill="#000000"/><text fill="#000000" font-family="sans-serif" font-size="14" lengthAdjust="spacing" textLength="73" x="754.75" y="123.1436">Diagnostic</text><line style="stroke:#181818;stroke-width:0.5;" x1="141.5" x2="1408.5" y1="134.2969" y2="134.2969"/><line style="stroke:#181818;stroke-width:0.5;" x1="141.5" x2="1408.5" y1="142.2969" y2="142.2969"/><ellipse cx="151.5" cy="155.9453" fill="#84BE84" rx="3" ry="3" style="stroke:#038048;stroke-width:1.0;"/><text fill="#000000" font-family="sans-serif" font-size="14" lengthAdjust="spacing" text-decoration="underline" textLength="433" x="160.5" y="159.292">std::string DiagnosticTypeString(Diagnostic::DiagnosticType v)</text><ellipse cx="151.5" cy="172.2422" fill="#84BE84" rx="3" ry="3" style="stroke:#038048;stroke-width:1.0;"/><text fill="#000000" font-family="sans-serif" font-size="14" lengthAdjust="spacing" text-decoration="underline" textLength="418" x="160.5" y="175.5889">std::string DiagnosticMessageString(Diagnostic::Message v)</text><ellipse cx="151.5" cy="188.5391" fill="#84BE84" rx="3" ry="3" style="stroke:#038048;stroke-width:1.0;"/><text fill="#000000" font-family="sans-serif" font-size="14" lengthAdjust="spacing" text-decoration="underline" textLength="551" x="160.5" y="191.8857">std::string pretty(std::string pre, std::vector&lt;DiagnosticDefinition&gt; diagnostics)</text><ellipse cx="151.5" cy="204.8359" fill="#84BE84" rx="3" ry="3" style="stroke:#038048;stroke-width:1.0;"/><text fill="#000000" font-family="sans-serif" font-size="14" lengthAdjust="spacing" text-decoration="underline" textLength="580" x="160.5" y="208.1826">std::string pretty(std::string pre,DiagnosticDefinition diag,bool print_end_line = true)</text><ellipse cx="151.5" cy="221.1328" fill="#84BE84" rx="3" ry="3" style="stroke:#038048;stroke-width:1.0;"/><text fill="#000000" font-family="sans-serif" font-size="14" lengthAdjust="spacing" textLength="125" x="160.5" y="224.4795">std::string pretty()</text><ellipse cx="151.5" cy="237.4297" fill="#84BE84" rx="3" ry="3" style="stroke:#038048;stroke-width:1.0;"/><text fill="#000000" font-family="sans-serif" font-size="14" lengthAdjust="spacing" textLength="1079" x="160.5" y="240.7764">void initialize(std::string device_name,std::string node_name,System::MainSystem system,System::SubSystem subsystem,System::Component component)</text><ellipse cx="151.5" cy="253.7266" fill="#84BE84" rx="3" ry="3" style="stroke:#038048;stroke-width:1.0;"/><text fill="#000000" font-family="sans-serif" font-size="14" lengthAdjust="spacing" textLength="350" x="160.5" y="257.0732">void initialize(Diagnostic::DiagnosticDefinition diag)</text><ellipse cx="151.5" cy="270.0234" fill="#84BE84" rx="3" ry="3" style="stroke:#038048;stroke-width:1.0;"/><text fill="#000000" font-family="sans-serif" font-size="14" lengthAdjust="spacing" textLength="586" x="160.5" y="273.3701">bool enable_diagnostics(std::vector&lt;Diagnostic::DiagnosticType&gt; diagnostic_types)</text><ellipse cx="151.5" cy="286.3203" fill="#84BE84" rx="3" ry="3" style="stroke:#038048;stroke-width:1.0;"/><text fill="#000000" font-family="sans-serif" font-size="14" lengthAdjust="spacing" textLength="288" x="160.5" y="289.667">DiagnosticDefinition get_root_diagnostic()</text><ellipse cx="151.5" cy="302.6172" fill="#84BE84" rx="3" ry="3" style="stroke:#038048;stroke-width:1.0;"/><text fill="#000000" font-family="sans-serif" font-size="14" lengthAdjust="spacing" textLength="360" x="160.5" y="305.9639">std::vector&lt;DiagnosticDefinition&gt; get_diagnostics()</text><ellipse cx="151.5" cy="318.9141" fill="#84BE84" rx="3" ry="3" style="stroke:#038048;stroke-width:1.0;"/><text fill="#000000" font-family="sans-serif" font-size="14" lengthAdjust="spacing" textLength="405" x="160.5" y="322.2607">std::vector&lt;DiagnosticDefinition&gt; get_latest_diagnostics()</text><ellipse cx="151.5" cy="335.2109" fill="#84BE84" rx="3" ry="3" style="stroke:#038048;stroke-width:1.0;"/><text fill="#000000" font-family="sans-serif" font-size="14" lengthAdjust="spacing" textLength="1073" x="160.5" y="338.5576">DiagnosticDefinition update_diagnostic(Diagnostic::DiagnosticType diagnostic_type,Level::Type level,Diagnostic::Message message,std::string description)</text><ellipse cx="151.5" cy="351.5078" fill="#84BE84" rx="3" ry="3" style="stroke:#038048;stroke-width:1.0;"/><text fill="#000000" font-family="sans-serif" font-size="14" lengthAdjust="spacing" textLength="450" x="160.5" y="354.8545">DiagnosticDefinition update_diagnostic(DiagnosticDefinition diag)</text><ellipse cx="151.5" cy="367.8047" fill="#84BE84" rx="3" ry="3" style="stroke:#038048;stroke-width:1.0;"/><text fill="#000000" font-family="sans-serif" font-size="14" lengthAdjust="spacing" textLength="1243" x="160.5" y="371.1514">DiagnosticDefinition update_diagnostic(std::string device_name Diagnostic::DiagnosticType diagnostic_type,Level::Type level,Diagnostic::Message message,std::string description)</text></g><!--MD5=[c374ded7600c3fccd41504593c422e53]
class Diagnostic::DiagnosticType--><g id="elem_Diagnostic::DiagnosticType"><rect codeLine="11" fill="#F1F1F1" height="227.2656" id="Diagnostic::DiagnosticType" rx="2.5" ry="2.5" style="stroke:#181818;stroke-width:0.5;" width="222" x="425" y="454.7969"/><ellipse cx="440" cy="470.7969" fill="#EB937F" rx="11" ry="11" style="stroke:#181818;stroke-width:1.0;"/><path d="M444.1094,476.7969 L436.3906,476.7969 L436.3906,464.4063 L444.1094,464.4063 L444.1094,466.5625 L438.8438,466.5625 L438.8438,469.2344 L443.6094,469.2344 L443.6094,471.3906 L438.8438,471.3906 L438.8438,474.6406 L444.1094,474.6406 L444.1094,476.7969 Z " fill="#000000"/><text fill="#000000" font-family="sans-serif" font-size="14" lengthAdjust="spacing" textLength="190" x="454" y="475.6436">Diagnostic::DiagnosticType</text><line style="stroke:#181818;stroke-width:0.5;" x1="426" x2="646" y1="486.7969" y2="486.7969"/><text fill="#000000" font-family="sans-serif" font-size="14" lengthAdjust="spacing" textLength="116" x="431" y="503.792">UNKNOWN_TYPE</text><text fill="#000000" font-family="sans-serif" font-size="14" lengthAdjust="spacing" textLength="78" x="431" y="520.0889">SOFTWARE</text><text fill="#000000" font-family="sans-serif" font-size="14" lengthAdjust="spacing" textLength="129" x="431" y="536.3857">COMMUNICATIONS</text><text fill="#000000" font-family="sans-serif" font-size="14" lengthAdjust="spacing" textLength="67" x="431" y="552.6826">SENSORS</text><text fill="#000000" font-family="sans-serif" font-size="14" lengthAdjust="spacing" textLength="86" x="431" y="568.9795">ACTUATORS</text><text fill="#000000" font-family="sans-serif" font-size="14" lengthAdjust="spacing" textLength="113" x="431" y="585.2764">DATA_STORAGE</text><text fill="#000000" font-family="sans-serif" font-size="14" lengthAdjust="spacing" textLength="135" x="431" y="601.5732">REMOTE_CONTROL</text><text fill="#000000" font-family="sans-serif" font-size="14" lengthAdjust="spacing" textLength="81" x="431" y="617.8701">TARGETING</text><text fill="#000000" font-family="sans-serif" font-size="14" lengthAdjust="spacing" textLength="38" x="431" y="634.167">POSE</text><text fill="#000000" font-family="sans-serif" font-size="14" lengthAdjust="spacing" textLength="48" x="431" y="650.4639">TIMING</text><text fill="#000000" font-family="sans-serif" font-size="14" lengthAdjust="spacing" textLength="142" x="431" y="666.7607">SYSTEM_RESOURCE</text><line style="stroke:#181818;stroke-width:0.5;" x1="426" x2="646" y1="674.0625" y2="674.0625"/></g><!--MD5=[cef777665e9df4b5513e331d8d5f6ca3]
class Diagnostic::Message--><g id="elem_Diagnostic::Message"><rect codeLine="24" fill="#F1F1F1" height="259.8594" id="Diagnostic::Message" rx="2.5" ry="2.5" style="stroke:#181818;stroke-width:0.5;" width="186" x="682" y="438.2969"/><ellipse cx="700.6" cy="454.2969" fill="#EB937F" rx="11" ry="11" style="stroke:#181818;stroke-width:1.0;"/><path d="M704.7094,460.2969 L696.9906,460.2969 L696.9906,447.9063 L704.7094,447.9063 L704.7094,450.0625 L699.4438,450.0625 L699.4438,452.7344 L704.2094,452.7344 L704.2094,454.8906 L699.4438,454.8906 L699.4438,458.1406 L704.7094,458.1406 L704.7094,460.2969 Z " fill="#000000"/><text fill="#000000" font-family="sans-serif" font-size="14" lengthAdjust="spacing" textLength="146" x="715.4" y="459.1436">Diagnostic::Message</text><line style="stroke:#181818;stroke-width:0.5;" x1="683" x2="867" y1="470.2969" y2="470.2969"/><text fill="#000000" font-family="sans-serif" font-size="14" lengthAdjust="spacing" textLength="71" x="688" y="487.292">NOERROR</text><text fill="#000000" font-family="sans-serif" font-size="14" lengthAdjust="spacing" textLength="59" x="688" y="503.5889">NODATA</text><text fill="#000000" font-family="sans-serif" font-size="14" lengthAdjust="spacing" textLength="130" x="688" y="519.8857">UNKNOWN_ERROR</text><text fill="#000000" font-family="sans-serif" font-size="14" lengthAdjust="spacing" textLength="81" x="688" y="536.1826">INITIALIZING</text><text fill="#000000" font-family="sans-serif" font-size="14" lengthAdjust="spacing" textLength="138" x="688" y="552.4795">INITIALIZING_ERROR</text><text fill="#000000" font-family="sans-serif" font-size="14" lengthAdjust="spacing" textLength="145" x="688" y="568.7764">DROPPING_PACKETS</text><text fill="#000000" font-family="sans-serif" font-size="14" lengthAdjust="spacing" textLength="157" x="688" y="585.0732">MISSING_HEARTBEATS</text><text fill="#000000" font-family="sans-serif" font-size="14" lengthAdjust="spacing" textLength="167" x="688" y="601.3701">DEVICE_NOT_AVAILABLE</text><text fill="#000000" font-family="sans-serif" font-size="14" lengthAdjust="spacing" textLength="146" x="688" y="617.667">TEMPERATURE_HIGH</text><text fill="#000000" font-family="sans-serif" font-size="14" lengthAdjust="spacing" textLength="143" x="688" y="633.9639">TEMPERATURE_LOW</text><text fill="#000000" font-family="sans-serif" font-size="14" lengthAdjust="spacing" textLength="119" x="688" y="650.2607">RESOURCE_LEAK</text><text fill="#000000" font-family="sans-serif" font-size="14" lengthAdjust="spacing" textLength="174" x="688" y="666.5576">HIGH_RESOURCE_USAGE</text><text fill="#000000" font-family="sans-serif" font-size="14" lengthAdjust="spacing" textLength="140" x="688" y="682.8545">DIAGNOSTIC_FAILED</text><line style="stroke:#181818;stroke-width:0.5;" x1="683" x2="867" y1="690.1563" y2="690.1563"/></g><!--MD5=[e5916490e9e6a84b67f3f18d2db3c230]
class Diagnostic::DiagnosticDefinition--><g id="elem_Diagnostic::DiagnosticDefinition"><rect codeLine="40" fill="#F1F1F1" height="210.9688" id="Diagnostic::DiagnosticDefinition" rx="2.5" ry="2.5" style="stroke:#181818;stroke-width:0.5;" width="253" x="903.5" y="462.7969"/><ellipse cx="918.5" cy="478.7969" fill="#F1F1F1" rx="11" ry="11" style="stroke:#181818;stroke-width:1.0;"/><path d="M917.9844,479.3594 Q916.125,478.6563 915.4688,477.8906 Q914.8281,477.1094 914.8281,475.7969 Q914.8281,474.1094 915.9063,473.1406 Q916.9844,472.1719 918.8594,472.1719 Q919.7188,472.1719 920.5625,472.375 Q921.4219,472.5625 922.2656,472.9531 L922.2656,475.3438 Q921.4844,474.7813 920.6563,474.5 Q919.8438,474.2031 919.0469,474.2031 Q918.1719,474.2031 917.6875,474.5625 Q917.2188,474.9219 917.2188,475.5781 Q917.2188,476.0938 917.5625,476.4375 Q917.9063,476.7656 919,477.1719 L920.0625,477.5781 Q921.5469,478.125 922.25,479.0313 Q922.9688,479.9375 922.9688,481.3125 Q922.9688,483.1875 921.8594,484.1094 Q920.75,485.0313 918.5,485.0313 Q917.5781,485.0313 916.6563,484.8125 Q915.7344,484.5938 914.875,484.1719 L914.875,481.6406 Q915.8438,482.3281 916.7656,482.6719 Q917.6875,483.0156 918.5781,483.0156 Q919.4844,483.0156 919.9844,482.6094 Q920.4844,482.1875 920.4844,481.4531 Q920.4844,480.8906 920.1406,480.4844 Q919.8125,480.0625 919.1875,479.8125 L917.9844,479.3594 Z " fill="#000000"/><text fill="#000000" font-family="sans-serif" font-size="14" lengthAdjust="spacing" textLength="221" x="932.5" y="483.6436">Diagnostic::DiagnosticDefinition</text><line style="stroke:#181818;stroke-width:0.5;" x1="904.5" x2="1155.5" y1="494.7969" y2="494.7969"/><text fill="#000000" font-family="sans-serif" font-size="14" lengthAdjust="spacing" textLength="166" x="909.5" y="511.792">std::string device_name</text><text fill="#000000" font-family="sans-serif" font-size="14" lengthAdjust="spacing" textLength="157" x="909.5" y="528.0889">std::string node_name</text><text fill="#000000" font-family="sans-serif" font-size="14" lengthAdjust="spacing" textLength="198" x="909.5" y="544.3857">System::MainSystem system</text><text fill="#000000" font-family="sans-serif" font-size="14" lengthAdjust="spacing" textLength="219" x="909.5" y="560.6826">System::SubSystem subsystem</text><text fill="#000000" font-family="sans-serif" font-size="14" lengthAdjust="spacing" textLength="227" x="909.5" y="576.9795">System::Component component</text><text fill="#000000" font-family="sans-serif" font-size="14" lengthAdjust="spacing" textLength="224" x="909.5" y="593.2764">Diagnostic::DiagnosticType type</text><text fill="#000000" font-family="sans-serif" font-size="14" lengthAdjust="spacing" textLength="214" x="909.5" y="609.5732">Diagnostic::Message message</text><text fill="#000000" font-family="sans-serif" font-size="14" lengthAdjust="spacing" textLength="114" x="909.5" y="625.8701">Level::Type level</text><text fill="#000000" font-family="sans-serif" font-size="14" lengthAdjust="spacing" textLength="152" x="909.5" y="642.167">std::string description</text><text fill="#000000" font-family="sans-serif" font-size="14" lengthAdjust="spacing" textLength="156" x="909.5" y="658.4639">uint64_t update_count</text><line style="stroke:#181818;stroke-width:0.5;" x1="904.5" x2="1155.5" y1="665.7656" y2="665.7656"/></g><!--MD5=[e7bfa04a245c1522c7d62748266414df]
reverse link Diagnostic to Diagnostic::Message--><g id="link_Diagnostic_Diagnostic::Message"><path codeLine="52" d="M775,393.9669 C775,408.7569 775,423.6669 775,438.2069 " fill="none" id="Diagnostic-backto-Diagnostic::Message" style="stroke:#181818;stroke-width:1.0;"/><ellipse cx="775" cy="386.6069" fill="#FFFFFF" rx="8" ry="8" style="stroke:#181818;stroke-width:1.0;"/><line style="stroke:#181818;stroke-width:1.0;" x1="775" x2="775" y1="394.6069" y2="378.6069"/><line style="stroke:#181818;stroke-width:1.0;" x1="767" x2="783" y1="386.6069" y2="386.6069"/></g><!--MD5=[dfb73a0f4b50bc3943ad9ec2871ffeb0]
reverse link Diagnostic to Diagnostic::DiagnosticType--><g id="link_Diagnostic_Diagnostic::DiagnosticType"><path codeLine="53" d="M665.38,390.8269 C649.66,412.2669 633.71,434.0169 618.64,454.5769 " fill="none" id="Diagnostic-backto-Diagnostic::DiagnosticType" style="stroke:#181818;stroke-width:1.0;"/><ellipse cx="669.6098" cy="385.0586" fill="#FFFFFF" rx="8" ry="8" style="stroke:#181818;stroke-width:1.0;"/><line style="stroke:#181818;stroke-width:1.0;" x1="664.8795" x2="674.34" y1="391.5103" y2="378.6069"/><line style="stroke:#181818;stroke-width:1.0;" x1="663.158" x2="676.0615" y1="380.3284" y2="389.7888"/></g><!--MD5=[e6bba0c6f9a634d1774ea1e20463ada1]
reverse link Diagnostic to Diagnostic::DiagnosticDefinition--><g id="link_Diagnostic_Diagnostic::DiagnosticDefinition"><path codeLine="54" d="M891.69,390.4769 C910.67,414.7469 929.98,439.4269 947.91,462.3469 " fill="none" id="Diagnostic-backto-Diagnostic::DiagnosticDefinition" style="stroke:#181818;stroke-width:1.0;"/><ellipse cx="887.3294" cy="384.9077" fill="#FFFFFF" rx="8" ry="8" style="stroke:#181818;stroke-width:1.0;"/><line style="stroke:#181818;stroke-width:1.0;" x1="892.2589" x2="882.4" y1="391.2086" y2="378.6069"/><line style="stroke:#181818;stroke-width:1.0;" x1="881.0286" x2="893.6303" y1="389.8372" y2="379.9783"/></g><!--MD5=[1bb0bc52e7456076043a7f914f36018d]
reverse link System to Diagnostic--><g id="link_System_Diagnostic"><path codeLine="55" d="M118.92,240.2969 C126.05,240.2969 133.18,240.2969 140.3,240.2969 " fill="none" id="System-backto-Diagnostic" style="stroke:#181818;stroke-width:1.0;"/><polygon fill="#181818" points="105.66,240.2969,111.66,244.2969,117.66,240.2969,111.66,236.2969,105.66,240.2969" style="stroke:#181818;stroke-width:1.0;"/></g><!--MD5=[dd21a035e7271511851602a99879db99]
@startuml
title Diagnostic Class Diagram
package eros {
    class System
    together {
        class Diagnostic
        enum Diagnostic::DiagnosticType
        enum Diagnostic::Message
        struct Diagnostic::DiagnosticDefinition
    }
}
enum Diagnostic::DiagnosticType {
    UNKNOWN_TYPE 
    SOFTWARE
    COMMUNICATIONS
    SENSORS 
    ACTUATORS
    DATA_STORAGE
    REMOTE_CONTROL
    TARGETING
    POSE
    TIMING
    SYSTEM_RESOURCE
}
enum Diagnostic::Message {
    NOERROR
    NODATA
    UNKNOWN_ERROR
    INITIALIZING
    INITIALIZING_ERROR
    DROPPING_PACKETS
    MISSING_HEARTBEATS
    DEVICE_NOT_AVAILABLE
    TEMPERATURE_HIGH
    TEMPERATURE_LOW
    RESOURCE_LEAK
    HIGH_RESOURCE_USAGE
    DIAGNOSTIC_FAILED

}
struct Diagnostic::DiagnosticDefinition {
    std::string device_name
    std::string node_name
    System::MainSystem system
    System::SubSystem subsystem
    System::Component component
    Diagnostic::DiagnosticType type
    Diagnostic::Message message
    Level::Type level
    std::string description
    uint64_t update_count
}
Diagnostic +- - Diagnostic::Message
Diagnostic +- - Diagnostic::DiagnosticType
Diagnostic +- - Diagnostic::DiagnosticDefinition
System *- Diagnostic
class Diagnostic {

    +{static} std::string DiagnosticTypeString(Diagnostic::DiagnosticType v)
    +{static} std::string DiagnosticMessageString(Diagnostic::Message v)
    +{static} std::string pretty(std::string pre, std::vector<DiagnosticDefinition> diagnostics)
    +{static} std::string pretty(std::string pre,DiagnosticDefinition diag,bool print_end_line = true)
    
    +std::string pretty()
    +void initialize(std::string device_name,std::string node_name,System::MainSystem system,System::SubSystem subsystem,System::Component component)
    +void initialize(Diagnostic::DiagnosticDefinition diag)
    +bool enable_diagnostics(std::vector<Diagnostic::DiagnosticType> diagnostic_types)
    +DiagnosticDefinition get_root_diagnostic() 
    +std::vector<DiagnosticDefinition> get_diagnostics()
    +std::vector<DiagnosticDefinition> get_latest_diagnostics()
    +DiagnosticDefinition update_diagnostic(Diagnostic::DiagnosticType diagnostic_type,Level::Type level,Diagnostic::Message message,std::string description)
    +DiagnosticDefinition update_diagnostic(DiagnosticDefinition diag)
    +DiagnosticDefinition update_diagnostic(std::string device_name Diagnostic::DiagnosticType diagnostic_type,Level::Type level,Diagnostic::Message message,std::string description)
}
@enduml

PlantUML version 1.2022.8(Sun Sep 25 09:00:33 UTC 2022)
(GPL source distribution)
Java Runtime: OpenJDK Runtime Environment
JVM: OpenJDK 64-Bit Server VM
Default Encoding: UTF-8
Language: en
Country: US
--></g></svg>