<svg xmlns="http://www.w3.org/2000/svg" xmlns:xlink="http://www.w3.org/1999/xlink" contentStyleType="text/css" data-diagram-type="CLASS" height="149px" preserveAspectRatio="none" style="width:338px;height:149px;background:#FFFFFF;" version="1.1" viewBox="0 0 338 149" width="338px" zoomAndPan="magnify"><title>System Monitor Window Class Diagram</title><defs/><g><text fill="#000000" font-family="sans-serif" font-size="14" font-weight="bold" lengthAdjust="spacing" textLength="310.1396" x="10" y="22.9951">System Monitor Window Class Diagram</text><!--cluster eros_nodes::SystemMonitor--><g id="cluster_eros_nodes::SystemMonitor"><path d="M56.5698,43.2969 L277.3999,43.2969 A3.75,3.75 0 0 1 279.8999,45.7969 L286.8999,65.5938 L286.5698,65.5938 A2.5,2.5 0 0 1 289.0698,68.0938 L289.0698,139.7969 A2.5,2.5 0 0 1 286.5698,142.2969 L56.5698,142.2969 A2.5,2.5 0 0 1 54.0698,139.7969 L54.0698,45.7969 A2.5,2.5 0 0 1 56.5698,43.2969 " fill="transparent" style="stroke:#000000;stroke-width:1.5;"/><line style="stroke:#000000;stroke-width:1.5;" x1="54.0698" x2="286.8999" y1="65.5938" y2="65.5938"/><text fill="#000000" font-family="sans-serif" font-size="14" font-weight="bold" lengthAdjust="spacing" textLength="219.8301" x="58.0698" y="58.292">eros_nodes::SystemMonitor</text></g><!--class IWindow--><g id="elem_IWindow"><rect codeLine="3" fill="#F1F1F1" height="48" id="IWindow" rx="2.5" ry="2.5" style="stroke:#181818;stroke-width:0.5;" width="91.6367" x="125.0698" y="78.2969"/><ellipse cx="140.0698" cy="94.2969" fill="#B4A7E5" rx="11" ry="11" style="stroke:#181818;stroke-width:1;"/><path d="M135.9917,90.0625 L135.9917,87.9063 L143.3823,87.9063 L143.3823,90.0625 L140.9136,90.0625 L140.9136,98.1406 L143.3823,98.1406 L143.3823,100.2969 L135.9917,100.2969 L135.9917,98.1406 L138.4604,98.1406 L138.4604,90.0625 L135.9917,90.0625 Z " fill="#000000"/><text fill="#000000" font-family="sans-serif" font-size="14" font-style="italic" lengthAdjust="spacing" textLength="59.6367" x="154.0698" y="99.1436">IWindow</text><line style="stroke:#181818;stroke-width:0.5;" x1="126.0698" x2="215.7065" y1="110.2969" y2="110.2969"/><line style="stroke:#181818;stroke-width:0.5;" x1="126.0698" x2="215.7065" y1="118.2969" y2="118.2969"/></g><!--SRC=[DSmn2e0m3030lQ_8Exhguk3au2YXZIMeZJG1aTA_EwWFk3EsdM2wrUY0KJAR59WvHxcWsr4LUiPKy70dXWqJ0HNH9KiazVvrFwkEir5PCH0Ctr5TS-q1]--></g></svg>