<?xml version="1.0" encoding="UTF-8" standalone="no"?><svg xmlns="http://www.w3.org/2000/svg" xmlns:xlink="http://www.w3.org/1999/xlink" contentStyleType="text/css" height="207px" preserveAspectRatio="none" style="width:262px;height:207px;background:#FFFFFF;" version="1.1" viewBox="0 0 262 207" width="262px" zoomAndPan="magnify"><defs/><g><rect fill="none" height="26.2969" id="_title" style="stroke:none;stroke-width:1.0;" width="244" x="5" y="5"/><text fill="#000000" font-family="sans-serif" font-size="14" font-weight="bold" lengthAdjust="spacing" textLength="234" x="10" y="22.9951">Status Window Class Diagram</text><!--MD5=[2506e8cbce3968d97a35ac88ada47e1e]
class WindowText--><g id="elem_WindowText"><rect codeLine="2" fill="#F1F1F1" height="48" id="WindowText" rx="2.5" ry="2.5" style="stroke:#181818;stroke-width:0.5;" width="118" x="75" y="44.2969"/><ellipse cx="90" cy="60.2969" fill="#A9DCDF" rx="11" ry="11" style="stroke:#181818;stroke-width:1.0;"/><path d="M90.1094,55.6406 L88.9531,60.7188 L91.2813,60.7188 L90.1094,55.6406 Z M88.625,53.4063 L91.6094,53.4063 L94.9688,65.7969 L92.5156,65.7969 L91.75,62.7344 L88.4688,62.7344 L87.7188,65.7969 L85.2813,65.7969 L88.625,53.4063 Z " fill="#000000"/><text fill="#000000" font-family="sans-serif" font-size="14" font-style="italic" lengthAdjust="spacing" textLength="86" x="104" y="65.1436">WindowText</text><line style="stroke:#181818;stroke-width:0.5;" x1="76" x2="192" y1="76.2969" y2="76.2969"/><line style="stroke:#181818;stroke-width:0.5;" x1="76" x2="192" y1="84.2969" y2="84.2969"/></g><!--MD5=[74c9b6806b718f403bafb8cf17b4e40d]
class StatusWindow--><g id="elem_StatusWindow"><rect codeLine="5" fill="#F1F1F1" height="48" id="StatusWindow" rx="2.5" ry="2.5" style="stroke:#181818;stroke-width:0.5;" width="130" x="69" y="152.2969"/><ellipse cx="84" cy="168.2969" fill="#ADD1B2" rx="11" ry="11" style="stroke:#181818;stroke-width:1.0;"/><path d="M86.9688,173.9375 Q86.3906,174.2344 85.75,174.375 Q85.1094,174.5313 84.4063,174.5313 Q81.9063,174.5313 80.5781,172.8906 Q79.2656,171.2344 79.2656,168.1094 Q79.2656,164.9844 80.5781,163.3281 Q81.9063,161.6719 84.4063,161.6719 Q85.1094,161.6719 85.75,161.8281 Q86.4063,161.9844 86.9688,162.2813 L86.9688,165 Q86.3438,164.4219 85.75,164.1563 Q85.1563,163.875 84.5313,163.875 Q83.1875,163.875 82.5,164.9531 Q81.8125,166.0156 81.8125,168.1094 Q81.8125,170.2031 82.5,171.2813 Q83.1875,172.3438 84.5313,172.3438 Q85.1563,172.3438 85.75,172.0781 Q86.3438,171.7969 86.9688,171.2188 L86.9688,173.9375 Z " fill="#000000"/><text fill="#000000" font-family="sans-serif" font-size="14" lengthAdjust="spacing" textLength="98" x="98" y="173.1436">StatusWindow</text><line style="stroke:#181818;stroke-width:0.5;" x1="70" x2="198" y1="184.2969" y2="184.2969"/><line style="stroke:#181818;stroke-width:0.5;" x1="70" x2="198" y1="192.2969" y2="192.2969"/></g><!--MD5=[1fed8ee891b797ad5668ca8d402c5500]
reverse link WindowText to StatusWindow--><g id="link_WindowText_StatusWindow"><path codeLine="8" d="M134,112.3169 C134,125.8769 134,140.3369 134,151.9769 " fill="none" id="WindowText-backto-StatusWindow" style="stroke:#181818;stroke-width:1.0;"/><polygon fill="none" points="127,112.2969,134,92.2969,141,112.2969,127,112.2969" style="stroke:#181818;stroke-width:1.0;"/></g><!--MD5=[9ce8e38ac5bc0a716b824eac06701397]
@startuml
title "Status Window Class Diagram"
abstract WindowText {
    
}
class StatusWindow {

}
WindowText <|- - StatusWindow
@enduml

PlantUML version 1.2022.8(Sun Sep 25 04:00:33 CDT 2022)
(GPL source distribution)
Java Runtime: OpenJDK Runtime Environment
JVM: OpenJDK 64-Bit Server VM
Default Encoding: UTF-8
Language: en
Country: US
--></g></svg>