<?xml version="1.0" encoding="UTF-8" standalone="no"?><svg xmlns="http://www.w3.org/2000/svg" xmlns:xlink="http://www.w3.org/1999/xlink" contentStyleType="text/css" height="207px" preserveAspectRatio="none" style="width:265px;height:207px;background:#FFFFFF;" version="1.1" viewBox="0 0 265 207" width="265px" zoomAndPan="magnify"><defs/><g><rect fill="none" height="26.2969" id="_title" style="stroke:none;stroke-width:1.0;" width="247" x="5" y="5"/><text fill="#000000" font-family="sans-serif" font-size="14" font-weight="bold" lengthAdjust="spacing" textLength="237" x="10" y="22.9951">Device Window Class Diagram</text><!--MD5=[c58e0bd06874a0c0f3955fe7b23323b6]
class WindowTable--><g id="elem_WindowTable"><rect codeLine="2" fill="#F1F1F1" height="48" id="WindowTable" rx="2.5" ry="2.5" style="stroke:#181818;stroke-width:0.5;" width="125" x="73" y="44.2969"/><ellipse cx="88" cy="60.2969" fill="#A9DCDF" rx="11" ry="11" style="stroke:#181818;stroke-width:1.0;"/><path d="M88.1094,55.6406 L86.9531,60.7188 L89.2813,60.7188 L88.1094,55.6406 Z M86.625,53.4063 L89.6094,53.4063 L92.9688,65.7969 L90.5156,65.7969 L89.75,62.7344 L86.4688,62.7344 L85.7188,65.7969 L83.2813,65.7969 L86.625,53.4063 Z " fill="#000000"/><text fill="#000000" font-family="sans-serif" font-size="14" font-style="italic" lengthAdjust="spacing" textLength="93" x="102" y="65.1436">WindowTable</text><line style="stroke:#181818;stroke-width:0.5;" x1="74" x2="197" y1="76.2969" y2="76.2969"/><line style="stroke:#181818;stroke-width:0.5;" x1="74" x2="197" y1="84.2969" y2="84.2969"/></g><!--MD5=[458eb4fcef45875e3ab99dd4ceacc1dc]
class DeviceWindow--><g id="elem_DeviceWindow"><rect codeLine="5" fill="#F1F1F1" height="48" id="DeviceWindow" rx="2.5" ry="2.5" style="stroke:#181818;stroke-width:0.5;" width="133" x="69" y="152.2969"/><ellipse cx="84" cy="168.2969" fill="#ADD1B2" rx="11" ry="11" style="stroke:#181818;stroke-width:1.0;"/><path d="M86.9688,173.9375 Q86.3906,174.2344 85.75,174.375 Q85.1094,174.5313 84.4063,174.5313 Q81.9063,174.5313 80.5781,172.8906 Q79.2656,171.2344 79.2656,168.1094 Q79.2656,164.9844 80.5781,163.3281 Q81.9063,161.6719 84.4063,161.6719 Q85.1094,161.6719 85.75,161.8281 Q86.4063,161.9844 86.9688,162.2813 L86.9688,165 Q86.3438,164.4219 85.75,164.1563 Q85.1563,163.875 84.5313,163.875 Q83.1875,163.875 82.5,164.9531 Q81.8125,166.0156 81.8125,168.1094 Q81.8125,170.2031 82.5,171.2813 Q83.1875,172.3438 84.5313,172.3438 Q85.1563,172.3438 85.75,172.0781 Q86.3438,171.7969 86.9688,171.2188 L86.9688,173.9375 Z " fill="#000000"/><text fill="#000000" font-family="sans-serif" font-size="14" lengthAdjust="spacing" textLength="101" x="98" y="173.1436">DeviceWindow</text><line style="stroke:#181818;stroke-width:0.5;" x1="70" x2="201" y1="184.2969" y2="184.2969"/><line style="stroke:#181818;stroke-width:0.5;" x1="70" x2="201" y1="192.2969" y2="192.2969"/></g><!--MD5=[cad58ad33ad10b4bc6f6d372f6571f5e]
reverse link WindowTable to DeviceWindow--><g id="link_WindowTable_DeviceWindow"><path codeLine="8" d="M135.5,112.3169 C135.5,125.8769 135.5,140.3369 135.5,151.9769 " fill="none" id="WindowTable-backto-DeviceWindow" style="stroke:#181818;stroke-width:1.0;"/><polygon fill="none" points="128.5,112.2969,135.5,92.2969,142.5,112.2969,128.5,112.2969" style="stroke:#181818;stroke-width:1.0;"/></g><!--MD5=[e6d121c77abe4e51705d7ff3b7a8094f]
@startuml
title "Device Window Class Diagram"
abstract WindowTable {
    
}
class DeviceWindow {

}
WindowTable <|- - DeviceWindow
@enduml

PlantUML version 1.2022.8(Sun Sep 25 04:00:33 CDT 2022)
(GPL source distribution)
Java Runtime: OpenJDK Runtime Environment
JVM: OpenJDK 64-Bit Server VM
Default Encoding: UTF-8
Language: en
Country: US
--></g></svg>