<?xml version="1.0" encoding="UTF-8" standalone="no"?><svg xmlns="http://www.w3.org/2000/svg" xmlns:xlink="http://www.w3.org/1999/xlink" contentStyleType="text/css" height="827px" preserveAspectRatio="none" style="width:590px;height:827px;background:#FFFFFF;" version="1.1" viewBox="0 0 590 827" width="590px" zoomAndPan="magnify"><defs/><g><rect fill="none" height="26.2969" id="_title" style="stroke:none;stroke-width:1.0;" width="284" x="154.75" y="10"/><text fill="#000000" font-family="sans-serif" font-size="14" font-weight="bold" lengthAdjust="spacing" textLength="274" x="159.75" y="27.9951">Device Window Sequence Diagram</text><rect fill="#FFFFFF" height="201.6641" style="stroke:#181818;stroke-width:1.0;" width="10" x="173" y="149.7266"/><rect fill="#FFFFFF" height="201.6641" style="stroke:#181818;stroke-width:1.0;" width="10" x="173" y="380.5234"/><rect fill="#FFFFFF" height="117.3984" style="stroke:#181818;stroke-width:1.0;" width="10" x="173" y="611.3203"/><rect fill="#FFFFFF" height="172.5313" style="stroke:#181818;stroke-width:1.0;" width="10" x="356" y="178.8594"/><rect fill="#FFFFFF" height="172.5313" style="stroke:#181818;stroke-width:1.0;" width="10" x="356" y="409.6563"/><rect fill="#FFFFFF" height="88.2656" style="stroke:#181818;stroke-width:1.0;" width="10" x="356" y="640.4531"/><rect fill="none" height="101.3984" style="stroke:#000000;stroke-width:1.5;" width="242" x="290.5" y="193.8594"/><rect fill="none" height="101.3984" style="stroke:#000000;stroke-width:1.5;" width="242" x="290.5" y="424.6563"/><rect fill="none" height="60.2656" style="stroke:#000000;stroke-width:1.5;" width="294" x="290.5" y="655.4531"/><line style="stroke:#181818;stroke-width:0.5;stroke-dasharray:5.0,5.0;" x1="177.5" x2="177.5" y1="118.5938" y2="746.7188"/><line style="stroke:#181818;stroke-width:0.5;stroke-dasharray:5.0,5.0;" x1="360.5" x2="360.5" y1="118.5938" y2="746.7188"/><line style="stroke:#181818;stroke-width:0.5;stroke-dasharray:5.0,5.0;" x1="543.5" x2="543.5" y1="118.5938" y2="746.7188"/><text fill="#000000" font-family="sans-serif" font-size="14" lengthAdjust="spacing" textLength="101" x="124.5" y="115.292">DeviceWindow</text><ellipse cx="178" cy="50.7969" fill="#E2E2F0" rx="8" ry="8" style="stroke:#181818;stroke-width:0.5;"/><path d="M178,58.7969 L178,85.7969 M165,66.7969 L191,66.7969 M178,85.7969 L165,100.7969 M178,85.7969 L191,100.7969 " fill="none" style="stroke:#181818;stroke-width:0.5;"/><text fill="#000000" font-family="sans-serif" font-size="14" lengthAdjust="spacing" textLength="101" x="124.5" y="758.7139">DeviceWindow</text><ellipse cx="178" cy="770.5156" fill="#E2E2F0" rx="8" ry="8" style="stroke:#181818;stroke-width:0.5;"/><path d="M178,778.5156 L178,805.5156 M165,786.5156 L191,786.5156 M178,805.5156 L165,820.5156 M178,805.5156 L191,820.5156 " fill="none" style="stroke:#181818;stroke-width:0.5;"/><rect fill="#E2E2F0" height="30.2969" rx="2.5" ry="2.5" style="stroke:#181818;stroke-width:0.5;" width="121" x="300.5" y="87.2969"/><text fill="#000000" font-family="sans-serif" font-size="14" lengthAdjust="spacing" textLength="107" x="307.5" y="107.292">DeviceManager</text><rect fill="#E2E2F0" height="30.2969" rx="2.5" ry="2.5" style="stroke:#181818;stroke-width:0.5;" width="121" x="300.5" y="745.7188"/><text fill="#000000" font-family="sans-serif" font-size="14" lengthAdjust="spacing" textLength="107" x="307.5" y="765.7139">DeviceManager</text><rect fill="#E2E2F0" height="30.2969" rx="2.5" ry="2.5" style="stroke:#181818;stroke-width:0.5;" width="61" x="513.5" y="87.2969"/><text fill="#000000" font-family="sans-serif" font-size="14" lengthAdjust="spacing" textLength="47" x="520.5" y="107.292">Device</text><rect fill="#E2E2F0" height="30.2969" rx="2.5" ry="2.5" style="stroke:#181818;stroke-width:0.5;" width="61" x="513.5" y="745.7188"/><text fill="#000000" font-family="sans-serif" font-size="14" lengthAdjust="spacing" textLength="47" x="520.5" y="765.7139">Device</text><rect fill="#FFFFFF" height="201.6641" style="stroke:#181818;stroke-width:1.0;" width="10" x="173" y="149.7266"/><rect fill="#FFFFFF" height="201.6641" style="stroke:#181818;stroke-width:1.0;" width="10" x="173" y="380.5234"/><rect fill="#FFFFFF" height="117.3984" style="stroke:#181818;stroke-width:1.0;" width="10" x="173" y="611.3203"/><rect fill="#FFFFFF" height="172.5313" style="stroke:#181818;stroke-width:1.0;" width="10" x="356" y="178.8594"/><rect fill="#FFFFFF" height="172.5313" style="stroke:#181818;stroke-width:1.0;" width="10" x="356" y="409.6563"/><rect fill="#FFFFFF" height="88.2656" style="stroke:#181818;stroke-width:1.0;" width="10" x="356" y="640.4531"/><polygon fill="#181818" points="161,145.7266,171,149.7266,161,153.7266,165,149.7266" style="stroke:#181818;stroke-width:1.0;"/><line style="stroke:#181818;stroke-width:1.0;" x1="0" x2="167" y1="149.7266" y2="149.7266"/><text fill="#000000" font-family="sans-serif" font-size="13" lengthAdjust="spacing" textLength="106" x="7" y="144.6606">new_loadfactor()</text><polygon fill="#181818" points="344,174.8594,354,178.8594,344,182.8594,348,178.8594" style="stroke:#181818;stroke-width:1.0;"/><line style="stroke:#181818;stroke-width:1.0;" x1="183" x2="350" y1="178.8594" y2="178.8594"/><text fill="#000000" font-family="sans-serif" font-size="13" lengthAdjust="spacing" textLength="106" x="190" y="173.7935">new_loadfactor()</text><path d="M290.5,193.8594 L354.5,193.8594 L354.5,200.9922 L344.5,210.9922 L290.5,210.9922 L290.5,193.8594 " fill="#EEEEEE" style="stroke:#000000;stroke-width:1.5;"/><rect fill="none" height="101.3984" style="stroke:#000000;stroke-width:1.5;" width="242" x="290.5" y="193.8594"/><text fill="#000000" font-family="sans-serif" font-size="13" font-weight="bold" lengthAdjust="spacing" textLength="19" x="305.5" y="206.9263">alt</text><text fill="#000000" font-family="sans-serif" font-size="11" font-weight="bold" lengthAdjust="spacing" textLength="158" x="369.5" y="206.0698">[DeviceName in devices]</text><line style="stroke:#181818;stroke-width:1.0;" x1="366" x2="408" y1="232.125" y2="232.125"/><line style="stroke:#181818;stroke-width:1.0;" x1="408" x2="408" y1="232.125" y2="245.125"/><line style="stroke:#181818;stroke-width:1.0;" x1="367" x2="408" y1="245.125" y2="245.125"/><polygon fill="#181818" points="377,241.125,367,245.125,377,249.125,373,245.125" style="stroke:#181818;stroke-width:1.0;"/><text fill="#000000" font-family="sans-serif" font-size="13" lengthAdjust="spacing" textLength="113" x="373" y="227.0591">create newDevice</text><line style="stroke:#181818;stroke-width:1.0;" x1="366" x2="408" y1="274.2578" y2="274.2578"/><line style="stroke:#181818;stroke-width:1.0;" x1="408" x2="408" y1="274.2578" y2="287.2578"/><line style="stroke:#181818;stroke-width:1.0;" x1="367" x2="408" y1="287.2578" y2="287.2578"/><polygon fill="#181818" points="377,283.2578,367,287.2578,377,291.2578,373,287.2578" style="stroke:#181818;stroke-width:1.0;"/><text fill="#000000" font-family="sans-serif" font-size="13" lengthAdjust="spacing" textLength="114" x="373" y="269.1919">insert(newDevice)</text><polygon fill="#181818" points="532,319.3906,542,323.3906,532,327.3906,536,323.3906" style="stroke:#181818;stroke-width:1.0;"/><line style="stroke:#181818;stroke-width:1.0;" x1="366" x2="538" y1="323.3906" y2="323.3906"/><text fill="#000000" font-family="sans-serif" font-size="13" lengthAdjust="spacing" textLength="106" x="373" y="318.3247">new_loadfactor()</text><polygon fill="#181818" points="377,333.3906,367,337.3906,377,341.3906,373,337.3906" style="stroke:#181818;stroke-width:1.0;"/><line style="stroke:#181818;stroke-width:1.0;stroke-dasharray:2.0,2.0;" x1="371" x2="543" y1="337.3906" y2="337.3906"/><polygon fill="#181818" points="189,347.3906,179,351.3906,189,355.3906,185,351.3906" style="stroke:#181818;stroke-width:1.0;"/><line style="stroke:#181818;stroke-width:1.0;stroke-dasharray:2.0,2.0;" x1="183" x2="360" y1="351.3906" y2="351.3906"/><polygon fill="#181818" points="161,376.5234,171,380.5234,161,384.5234,165,380.5234" style="stroke:#181818;stroke-width:1.0;"/><line style="stroke:#181818;stroke-width:1.0;" x1="0" x2="167" y1="380.5234" y2="380.5234"/><text fill="#000000" font-family="sans-serif" font-size="13" lengthAdjust="spacing" textLength="154" x="7" y="375.4575">new_resourceavailable()</text><polygon fill="#181818" points="344,405.6563,354,409.6563,344,413.6563,348,409.6563" style="stroke:#181818;stroke-width:1.0;"/><line style="stroke:#181818;stroke-width:1.0;" x1="183" x2="350" y1="409.6563" y2="409.6563"/><text fill="#000000" font-family="sans-serif" font-size="13" lengthAdjust="spacing" textLength="154" x="190" y="404.5903">new_resourceavailable()</text><path d="M290.5,424.6563 L354.5,424.6563 L354.5,431.7891 L344.5,441.7891 L290.5,441.7891 L290.5,424.6563 " fill="#EEEEEE" style="stroke:#000000;stroke-width:1.5;"/><rect fill="none" height="101.3984" style="stroke:#000000;stroke-width:1.5;" width="242" x="290.5" y="424.6563"/><text fill="#000000" font-family="sans-serif" font-size="13" font-weight="bold" lengthAdjust="spacing" textLength="19" x="305.5" y="437.7231">alt</text><text fill="#000000" font-family="sans-serif" font-size="11" font-weight="bold" lengthAdjust="spacing" textLength="158" x="369.5" y="436.8667">[DeviceName in devices]</text><line style="stroke:#181818;stroke-width:1.0;" x1="366" x2="408" y1="462.9219" y2="462.9219"/><line style="stroke:#181818;stroke-width:1.0;" x1="408" x2="408" y1="462.9219" y2="475.9219"/><line style="stroke:#181818;stroke-width:1.0;" x1="367" x2="408" y1="475.9219" y2="475.9219"/><polygon fill="#181818" points="377,471.9219,367,475.9219,377,479.9219,373,475.9219" style="stroke:#181818;stroke-width:1.0;"/><text fill="#000000" font-family="sans-serif" font-size="13" lengthAdjust="spacing" textLength="113" x="373" y="457.856">create newDevice</text><line style="stroke:#181818;stroke-width:1.0;" x1="366" x2="408" y1="505.0547" y2="505.0547"/><line style="stroke:#181818;stroke-width:1.0;" x1="408" x2="408" y1="505.0547" y2="518.0547"/><line style="stroke:#181818;stroke-width:1.0;" x1="367" x2="408" y1="518.0547" y2="518.0547"/><polygon fill="#181818" points="377,514.0547,367,518.0547,377,522.0547,373,518.0547" style="stroke:#181818;stroke-width:1.0;"/><text fill="#000000" font-family="sans-serif" font-size="13" lengthAdjust="spacing" textLength="114" x="373" y="499.9888">insert(newDevice)</text><polygon fill="#181818" points="532,550.1875,542,554.1875,532,558.1875,536,554.1875" style="stroke:#181818;stroke-width:1.0;"/><line style="stroke:#181818;stroke-width:1.0;" x1="366" x2="538" y1="554.1875" y2="554.1875"/><text fill="#000000" font-family="sans-serif" font-size="13" lengthAdjust="spacing" textLength="154" x="373" y="549.1216">new_resourceavailable()</text><polygon fill="#181818" points="377,564.1875,367,568.1875,377,572.1875,373,568.1875" style="stroke:#181818;stroke-width:1.0;"/><line style="stroke:#181818;stroke-width:1.0;stroke-dasharray:2.0,2.0;" x1="371" x2="543" y1="568.1875" y2="568.1875"/><polygon fill="#181818" points="189,578.1875,179,582.1875,189,586.1875,185,582.1875" style="stroke:#181818;stroke-width:1.0;"/><line style="stroke:#181818;stroke-width:1.0;stroke-dasharray:2.0,2.0;" x1="183" x2="360" y1="582.1875" y2="582.1875"/><polygon fill="#181818" points="161,607.3203,171,611.3203,161,615.3203,165,611.3203" style="stroke:#181818;stroke-width:1.0;"/><line style="stroke:#181818;stroke-width:1.0;" x1="0" x2="167" y1="611.3203" y2="611.3203"/><text fill="#000000" font-family="sans-serif" font-size="13" lengthAdjust="spacing" textLength="45" x="7" y="606.2544">update</text><polygon fill="#181818" points="344,636.4531,354,640.4531,344,644.4531,348,640.4531" style="stroke:#181818;stroke-width:1.0;"/><line style="stroke:#181818;stroke-width:1.0;" x1="183" x2="350" y1="640.4531" y2="640.4531"/><text fill="#000000" font-family="sans-serif" font-size="13" lengthAdjust="spacing" textLength="132" x="190" y="635.3872">update(currentTime)</text><path d="M290.5,655.4531 L367.5,655.4531 L367.5,662.5859 L357.5,672.5859 L290.5,672.5859 L290.5,655.4531 " fill="#EEEEEE" style="stroke:#000000;stroke-width:1.5;"/><rect fill="none" height="60.2656" style="stroke:#000000;stroke-width:1.5;" width="294" x="290.5" y="655.4531"/><text fill="#000000" font-family="sans-serif" font-size="13" font-weight="bold" lengthAdjust="spacing" textLength="32" x="305.5" y="668.52">loop</text><text fill="#000000" font-family="sans-serif" font-size="11" font-weight="bold" lengthAdjust="spacing" textLength="144" x="382.5" y="667.6636">[for Device in devices]</text><polygon fill="#181818" points="532,689.7188,542,693.7188,532,697.7188,536,693.7188" style="stroke:#181818;stroke-width:1.0;"/><line style="stroke:#181818;stroke-width:1.0;" x1="366" x2="538" y1="693.7188" y2="693.7188"/><text fill="#000000" font-family="sans-serif" font-size="13" lengthAdjust="spacing" textLength="132" x="373" y="688.6528">update(currentTime)</text><polygon fill="#181818" points="377,703.7188,367,707.7188,377,711.7188,373,707.7188" style="stroke:#181818;stroke-width:1.0;"/><line style="stroke:#181818;stroke-width:1.0;stroke-dasharray:2.0,2.0;" x1="371" x2="543" y1="707.7188" y2="707.7188"/><polygon fill="#181818" points="189,724.7188,179,728.7188,189,732.7188,185,728.7188" style="stroke:#181818;stroke-width:1.0;"/><line style="stroke:#181818;stroke-width:1.0;stroke-dasharray:2.0,2.0;" x1="183" x2="360" y1="728.7188" y2="728.7188"/><!--MD5=[1b4eb867c41b6d18a10758f3196eff28]
@startuml
title "Device Window Sequence Diagram"
actor DeviceWindow
participant DeviceManager
participant Device

-> DeviceWindow: new_loadfactor()
activate DeviceWindow
DeviceWindow -> DeviceManager: new_loadfactor()
activate DeviceManager
alt DeviceName in devices
    DeviceManager -> DeviceManager: create newDevice
    DeviceManager -> DeviceManager: insert(newDevice)
end
DeviceManager -> Device: new_loadfactor() 
Device - -> DeviceManager
DeviceManager - -> DeviceWindow
deactivate DeviceManager
deactivate DeviceWindow

-> DeviceWindow: new_resourceavailable()
activate DeviceWindow
DeviceWindow -> DeviceManager: new_resourceavailable()
activate DeviceManager
alt DeviceName in devices
    DeviceManager -> DeviceManager: create newDevice
    DeviceManager -> DeviceManager: insert(newDevice)
end
DeviceManager -> Device: new_resourceavailable() 
Device - -> DeviceManager
DeviceManager - -> DeviceWindow
deactivate DeviceManager
deactivate DeviceWindow

-> DeviceWindow: update
activate DeviceWindow
DeviceWindow -> DeviceManager: update(currentTime)
activate DeviceManager
loop for Device in devices
DeviceManager -> Device: update(currentTime)
Device - -> DeviceManager
end 
DeviceManager - -> DeviceWindow
deactivate DeviceManager
deactivate DeviceWindow
@enduml

PlantUML version 1.2022.8(Sun Sep 25 04:00:33 CDT 2022)
(GPL source distribution)
Java Runtime: OpenJDK Runtime Environment
JVM: OpenJDK 64-Bit Server VM
Default Encoding: UTF-8
Language: en
Country: US
--></g></svg>