<?xml version="1.0" encoding="UTF-8" standalone="no"?><svg xmlns="http://www.w3.org/2000/svg" xmlns:xlink="http://www.w3.org/1999/xlink" contentStyleType="text/css" height="575px" preserveAspectRatio="none" style="width:820px;height:575px;background:#FFFFFF;" version="1.1" viewBox="0 0 820 575" width="820px" zoomAndPan="magnify"><defs/><g><rect fill="none" height="26.2969" id="_title" style="stroke:none;stroke-width:1.0;" width="247" x="279.75" y="5"/><text fill="#000000" font-family="sans-serif" font-size="14" font-weight="bold" lengthAdjust="spacing" textLength="237" x="284.75" y="22.9951">Device Window Class Diagram</text><!--MD5=[c58e0bd06874a0c0f3955fe7b23323b6]
class WindowTable--><g id="elem_WindowTable"><rect codeLine="2" fill="#F1F1F1" height="48" id="WindowTable" rx="2.5" ry="2.5" style="stroke:#181818;stroke-width:0.5;" width="125" x="126" y="44.2969"/><ellipse cx="141" cy="60.2969" fill="#A9DCDF" rx="11" ry="11" style="stroke:#181818;stroke-width:1.0;"/><path d="M141.1094,55.6406 L139.9531,60.7188 L142.2813,60.7188 L141.1094,55.6406 Z M139.625,53.4063 L142.6094,53.4063 L145.9688,65.7969 L143.5156,65.7969 L142.75,62.7344 L139.4688,62.7344 L138.7188,65.7969 L136.2813,65.7969 L139.625,53.4063 Z " fill="#000000"/><text fill="#000000" font-family="sans-serif" font-size="14" font-style="italic" lengthAdjust="spacing" textLength="93" x="155" y="65.1436">WindowTable</text><line style="stroke:#181818;stroke-width:0.5;" x1="127" x2="250" y1="76.2969" y2="76.2969"/><line style="stroke:#181818;stroke-width:0.5;" x1="127" x2="250" y1="84.2969" y2="84.2969"/></g><!--MD5=[458eb4fcef45875e3ab99dd4ceacc1dc]
class DeviceWindow--><g id="elem_DeviceWindow"><rect codeLine="5" fill="#F1F1F1" height="178.375" id="DeviceWindow" rx="2.5" ry="2.5" style="stroke:#181818;stroke-width:0.5;" width="363" x="7" y="152.2969"/><ellipse cx="133.75" cy="168.2969" fill="#ADD1B2" rx="11" ry="11" style="stroke:#181818;stroke-width:1.0;"/><path d="M136.7188,173.9375 Q136.1406,174.2344 135.5,174.375 Q134.8594,174.5313 134.1563,174.5313 Q131.6563,174.5313 130.3281,172.8906 Q129.0156,171.2344 129.0156,168.1094 Q129.0156,164.9844 130.3281,163.3281 Q131.6563,161.6719 134.1563,161.6719 Q134.8594,161.6719 135.5,161.8281 Q136.1563,161.9844 136.7188,162.2813 L136.7188,165 Q136.0938,164.4219 135.5,164.1563 Q134.9063,163.875 134.2813,163.875 Q132.9375,163.875 132.25,164.9531 Q131.5625,166.0156 131.5625,168.1094 Q131.5625,170.2031 132.25,171.2813 Q132.9375,172.3438 134.2813,172.3438 Q134.9063,172.3438 135.5,172.0781 Q136.0938,171.7969 136.7188,171.2188 L136.7188,173.9375 Z " fill="#000000"/><text fill="#000000" font-family="sans-serif" font-size="14" lengthAdjust="spacing" textLength="101" x="154.25" y="173.1436">DeviceWindow</text><line style="stroke:#181818;stroke-width:0.5;" x1="8" x2="369" y1="184.2969" y2="184.2969"/><rect fill="none" height="6" style="stroke:#C82930;stroke-width:1.0;" width="6" x="15" y="194.9453"/><text fill="#000000" font-family="sans-serif" font-size="14" lengthAdjust="spacing" textLength="172" x="27" y="201.292">DeviceManager manager</text><line style="stroke:#181818;stroke-width:0.5;" x1="8" x2="369" y1="208.5938" y2="208.5938"/><ellipse cx="18" cy="222.2422" fill="#84BE84" rx="3" ry="3" style="stroke:#038048;stroke-width:1.0;"/><text fill="#000000" font-family="sans-serif" font-size="14" lengthAdjust="spacing" textLength="203" x="27" y="225.5889">WindowSize getWindowSize()</text><ellipse cx="18" cy="238.5391" fill="#84BE84" rx="3" ry="3" style="stroke:#038048;stroke-width:1.0;"/><text fill="#000000" font-family="sans-serif" font-size="14" lengthAdjust="spacing" textLength="158" x="27" y="241.8857">IRecord[] getRecords()</text><ellipse cx="18" cy="254.8359" fill="#84BE84" rx="3" ry="3" style="stroke:#038048;stroke-width:1.0;"/><text fill="#000000" font-family="sans-serif" font-size="14" lengthAdjust="spacing" textLength="244" x="27" y="258.1826">bool setRecords(IRecord[] records)</text><ellipse cx="18" cy="271.1328" fill="#84BE84" rx="3" ry="3" style="stroke:#038048;stroke-width:1.0;"/><text fill="#000000" font-family="sans-serif" font-size="14" lengthAdjust="spacing" textLength="207" x="27" y="274.4795">bool keyPressed(KeyMap key)</text><ellipse cx="18" cy="287.4297" fill="#84BE84" rx="3" ry="3" style="stroke:#038048;stroke-width:1.0;"/><text fill="#000000" font-family="sans-serif" font-size="14" lengthAdjust="spacing" textLength="291" x="27" y="290.7764">bool new_loadfactor(eros::loadfactor msg)</text><ellipse cx="18" cy="303.7266" fill="#84BE84" rx="3" ry="3" style="stroke:#038048;stroke-width:1.0;"/><text fill="#000000" font-family="sans-serif" font-size="14" lengthAdjust="spacing" textLength="337" x="27" y="307.0732">bool new_resourceavailable(eros::resource msg)</text><ellipse cx="18" cy="320.0234" fill="#84BE84" rx="3" ry="3" style="stroke:#038048;stroke-width:1.0;"/><text fill="#000000" font-family="sans-serif" font-size="14" lengthAdjust="spacing" textLength="244" x="27" y="323.3701">bool update(double currentTime_s)</text></g><!--MD5=[ecb11212b679d060773ba01d721b3831]
class DeviceManager--><g id="elem_DeviceManager"><rect codeLine="15" fill="#F1F1F1" height="129.4844" id="DeviceManager" rx="2.5" ry="2.5" style="stroke:#181818;stroke-width:0.5;" width="363" x="405" y="176.7969"/><ellipse cx="528.75" cy="192.7969" fill="#ADD1B2" rx="11" ry="11" style="stroke:#181818;stroke-width:1.0;"/><path d="M531.7188,198.4375 Q531.1406,198.7344 530.5,198.875 Q529.8594,199.0313 529.1563,199.0313 Q526.6563,199.0313 525.3281,197.3906 Q524.0156,195.7344 524.0156,192.6094 Q524.0156,189.4844 525.3281,187.8281 Q526.6563,186.1719 529.1563,186.1719 Q529.8594,186.1719 530.5,186.3281 Q531.1563,186.4844 531.7188,186.7813 L531.7188,189.5 Q531.0938,188.9219 530.5,188.6563 Q529.9063,188.375 529.2813,188.375 Q527.9375,188.375 527.25,189.4531 Q526.5625,190.5156 526.5625,192.6094 Q526.5625,194.7031 527.25,195.7813 Q527.9375,196.8438 529.2813,196.8438 Q529.9063,196.8438 530.5,196.5781 Q531.0938,196.2969 531.7188,195.7188 L531.7188,198.4375 Z " fill="#000000"/><text fill="#000000" font-family="sans-serif" font-size="14" lengthAdjust="spacing" textLength="107" x="549.25" y="197.6436">DeviceManager</text><line style="stroke:#181818;stroke-width:0.5;" x1="406" x2="767" y1="208.7969" y2="208.7969"/><rect fill="none" height="6" style="stroke:#C82930;stroke-width:1.0;" width="6" x="413" y="219.4453"/><text fill="#000000" font-family="sans-serif" font-size="14" lengthAdjust="spacing" textLength="114" x="425" y="225.792">Device[] devices</text><line style="stroke:#181818;stroke-width:0.5;" x1="406" x2="767" y1="233.0938" y2="233.0938"/><ellipse cx="416" cy="246.7422" fill="#84BE84" rx="3" ry="3" style="stroke:#038048;stroke-width:1.0;"/><text fill="#000000" font-family="sans-serif" font-size="14" lengthAdjust="spacing" textLength="291" x="425" y="250.0889">bool new_loadfactor(eros::loadfactor msg)</text><ellipse cx="416" cy="263.0391" fill="#84BE84" rx="3" ry="3" style="stroke:#038048;stroke-width:1.0;"/><text fill="#000000" font-family="sans-serif" font-size="14" lengthAdjust="spacing" textLength="337" x="425" y="266.3857">bool new_resourceavailable(eros::resource msg)</text><ellipse cx="416" cy="279.3359" fill="#84BE84" rx="3" ry="3" style="stroke:#038048;stroke-width:1.0;"/><text fill="#000000" font-family="sans-serif" font-size="14" lengthAdjust="spacing" textLength="149" x="425" y="282.6826">Device[] getDevices()</text><text fill="#000000" font-family="sans-serif" font-size="14" lengthAdjust="spacing" textLength="249" x="425" y="298.9795">bool update(double currentTime_s);</text></g><!--MD5=[fc539fa3f3b7db9b31467e896d367b3b]
class Device--><g id="elem_Device"><rect codeLine="23" fill="#F1F1F1" height="178.375" id="Device" rx="2.5" ry="2.5" style="stroke:#181818;stroke-width:0.5;" width="454" x="359.5" y="390.2969"/><ellipse cx="558.75" cy="406.2969" fill="#ADD1B2" rx="11" ry="11" style="stroke:#181818;stroke-width:1.0;"/><path d="M561.7188,411.9375 Q561.1406,412.2344 560.5,412.375 Q559.8594,412.5313 559.1563,412.5313 Q556.6563,412.5313 555.3281,410.8906 Q554.0156,409.2344 554.0156,406.1094 Q554.0156,402.9844 555.3281,401.3281 Q556.6563,399.6719 559.1563,399.6719 Q559.8594,399.6719 560.5,399.8281 Q561.1563,399.9844 561.7188,400.2813 L561.7188,403 Q561.0938,402.4219 560.5,402.1563 Q559.9063,401.875 559.2813,401.875 Q557.9375,401.875 557.25,402.9531 Q556.5625,404.0156 556.5625,406.1094 Q556.5625,408.2031 557.25,409.2813 Q557.9375,410.3438 559.2813,410.3438 Q559.9063,410.3438 560.5,410.0781 Q561.0938,409.7969 561.7188,409.2188 L561.7188,411.9375 Z " fill="#000000"/><text fill="#000000" font-family="sans-serif" font-size="14" lengthAdjust="spacing" textLength="47" x="579.25" y="411.1436">Device</text><line style="stroke:#181818;stroke-width:0.5;" x1="360.5" x2="812.5" y1="422.2969" y2="422.2969"/><line style="stroke:#181818;stroke-width:0.5;" x1="360.5" x2="812.5" y1="430.2969" y2="430.2969"/><ellipse cx="370.5" cy="443.9453" fill="#84BE84" rx="3" ry="3" style="stroke:#038048;stroke-width:1.0;"/><text fill="#000000" font-family="sans-serif" font-size="14" lengthAdjust="spacing" textLength="116" x="379.5" y="447.292">string getName()</text><ellipse cx="370.5" cy="460.2422" fill="#84BE84" rx="3" ry="3" style="stroke:#038048;stroke-width:1.0;"/><text fill="#000000" font-family="sans-serif" font-size="14" lengthAdjust="spacing" textLength="428" x="379.5" y="463.5889">bool new_resourceavailable(eros::resource resourceAvailable)</text><ellipse cx="370.5" cy="476.5391" fill="#84BE84" rx="3" ry="3" style="stroke:#038048;stroke-width:1.0;"/><text fill="#000000" font-family="sans-serif" font-size="14" lengthAdjust="spacing" textLength="266" x="379.5" y="479.8857">eros::resource getResourceAvailable()</text><ellipse cx="370.5" cy="492.8359" fill="#84BE84" rx="3" ry="3" style="stroke:#038048;stroke-width:1.0;"/><text fill="#000000" font-family="sans-serif" font-size="14" lengthAdjust="spacing" textLength="333" x="379.5" y="496.1826">bool new_loadfactor(eros::loadfactor loadFactor)</text><ellipse cx="370.5" cy="509.1328" fill="#84BE84" rx="3" ry="3" style="stroke:#038048;stroke-width:1.0;"/><text fill="#000000" font-family="sans-serif" font-size="14" lengthAdjust="spacing" textLength="222" x="379.5" y="512.4795">eros::loadfactor getLoadFactor()</text><ellipse cx="370.5" cy="525.4297" fill="#84BE84" rx="3" ry="3" style="stroke:#038048;stroke-width:1.0;"/><text fill="#000000" font-family="sans-serif" font-size="14" lengthAdjust="spacing" textLength="160" x="379.5" y="528.7764">Level::Type getStatus()</text><ellipse cx="370.5" cy="541.7266" fill="#84BE84" rx="3" ry="3" style="stroke:#038048;stroke-width:1.0;"/><text fill="#000000" font-family="sans-serif" font-size="14" lengthAdjust="spacing" textLength="244" x="379.5" y="545.0732">bool update(double currentTime_s)</text><ellipse cx="370.5" cy="558.0234" fill="#84BE84" rx="3" ry="3" style="stroke:#038048;stroke-width:1.0;"/><text fill="#000000" font-family="sans-serif" font-size="14" lengthAdjust="spacing" textLength="217" x="379.5" y="561.3701">double getLastHeartbeatDelta()</text></g><!--MD5=[a6ec5ea4d02ec360a90d6d771d3df0ec]
link DeviceWindow to DeviceManager--><g id="link_DeviceWindow_DeviceManager"><path codeLine="22" d="M370.01,241.2969 C379.85,241.2969 389.69,241.2969 399.54,241.2969 " fill="none" id="DeviceWindow-to-DeviceManager" style="stroke:#181818;stroke-width:1.0;"/><polygon fill="#181818" points="404.68,241.2969,395.68,237.2969,399.68,241.2969,395.68,245.2969,404.68,241.2969" style="stroke:#181818;stroke-width:1.0;"/></g><!--MD5=[0d74e6f8a957985558d93caef5f92f17]
link DeviceManager to Device--><g id="link_DeviceManager_Device"><path codeLine="33" d="M586.5,305.8469 C586.5,327.7369 586.5,352.8269 586.5,376.9569 " fill="none" id="DeviceManager-to-Device" style="stroke:#181818;stroke-width:1.0;"/><polygon fill="#181818" points="586.5,390.2469,590.5,384.2469,586.5,378.2469,582.5,384.2469,586.5,390.2469" style="stroke:#181818;stroke-width:1.0;"/><text fill="#000000" font-family="sans-serif" font-size="13" lengthAdjust="spacing" textLength="7" x="579.2102" y="379.3082">*</text></g><!--MD5=[cad58ad33ad10b4bc6f6d372f6571f5e]
reverse link WindowTable to DeviceWindow--><g id="link_WindowTable_DeviceWindow"><path codeLine="34" d="M188.5,112.7469 C188.5,124.7969 188.5,138.3369 188.5,151.9669 " fill="none" id="WindowTable-backto-DeviceWindow" style="stroke:#181818;stroke-width:1.0;"/><polygon fill="none" points="181.5,112.3569,188.5,92.3569,195.5,112.3569,181.5,112.3569" style="stroke:#181818;stroke-width:1.0;"/></g><!--MD5=[6d8a4037fa87514725e94171efbfc2fc]
@startuml
title "Device Window Class Diagram"
abstract WindowTable {
    
}
class DeviceWindow {
    -DeviceManager manager
    +WindowSize getWindowSize()
    +IRecord[] getRecords()
    +bool setRecords(IRecord[] records)
    +bool keyPressed(KeyMap key)
    +bool new_loadfactor(eros::loadfactor msg)
    +bool new_resourceavailable(eros::resource msg)
    +bool update(double currentTime_s)
}
class DeviceManager {
    -Device[] devices
    +bool new_loadfactor(eros::loadfactor msg)
    +bool new_resourceavailable(eros::resource msg)
    +Device[] getDevices()
    bool update(double currentTime_s);
}
DeviceWindow -> DeviceManager
class Device {
    +string getName() 
    +bool new_resourceavailable(eros::resource resourceAvailable)
    +eros::resource getResourceAvailable()
    +bool new_loadfactor(eros::loadfactor loadFactor)
    +eros::loadfactor getLoadFactor()
    +Level::Type getStatus() 
    +bool update(double currentTime_s)
    +double getLastHeartbeatDelta()
}
DeviceManager - -* "*" Device
WindowTable <|- - DeviceWindow
@enduml

PlantUML version 1.2022.8(Sun Sep 25 04:00:33 CDT 2022)
(GPL source distribution)
Java Runtime: OpenJDK Runtime Environment
JVM: OpenJDK 64-Bit Server VM
Default Encoding: UTF-8
Language: en
Country: US
--></g></svg>