<svg xmlns="http://www.w3.org/2000/svg" xmlns:xlink="http://www.w3.org/1999/xlink" contentStyleType="text/css" data-diagram-type="CLASS" height="568px" preserveAspectRatio="none" style="width:1328px;height:568px;background:#FFFFFF;" version="1.1" viewBox="0 0 1328 568" width="1328px" zoomAndPan="magnify"><title>Resource Monitor Class Diagram</title><defs/><g><text fill="#000000" font-family="sans-serif" font-size="14" font-weight="bold" lengthAdjust="spacing" textLength="257.0586" x="528.7207" y="22.9951">Resource Monitor Class Diagram</text><!--cluster eros--><g id="cluster_eros"><path d="M705,43.2969 L740.3506,43.2969 A3.75,3.75 0 0 1 742.8506,45.7969 L749.8506,65.5938 L1319,65.5938 A2.5,2.5 0 0 1 1321.5,68.0938 L1321.5,559.2969 A2.5,2.5 0 0 1 1319,561.7969 L705,561.7969 A2.5,2.5 0 0 1 702.5,559.2969 L702.5,45.7969 A2.5,2.5 0 0 1 705,43.2969 " fill="transparent" style="stroke:#000000;stroke-width:1.5;"/><line style="stroke:#000000;stroke-width:1.5;" x1="702.5" x2="749.8506" y1="65.5938" y2="65.5938"/><text fill="#000000" font-family="sans-serif" font-size="14" font-weight="bold" lengthAdjust="spacing" textLength="34.3506" x="706.5" y="58.292">eros</text></g><!--class ResourceMonitor--><g id="elem_ResourceMonitor"><rect codeLine="4" fill="#F1F1F1" height="48" id="ResourceMonitor" rx="2.5" ry="2.5" style="stroke:#181818;stroke-width:0.5;" width="150.3574" x="889.5" y="308.2969"/><ellipse cx="904.5" cy="324.2969" fill="#ADD1B2" rx="11" ry="11" style="stroke:#181818;stroke-width:1;"/><path d="M907.4688,329.9375 Q906.8906,330.2344 906.25,330.375 Q905.6094,330.5313 904.9063,330.5313 Q902.4063,330.5313 901.0781,328.8906 Q899.7656,327.2344 899.7656,324.1094 Q899.7656,320.9844 901.0781,319.3281 Q902.4063,317.6719 904.9063,317.6719 Q905.6094,317.6719 906.25,317.8281 Q906.9063,317.9844 907.4688,318.2813 L907.4688,321 Q906.8438,320.4219 906.25,320.1563 Q905.6563,319.875 905.0313,319.875 Q903.6875,319.875 903,320.9531 Q902.3125,322.0156 902.3125,324.1094 Q902.3125,326.2031 903,327.2813 Q903.6875,328.3438 905.0313,328.3438 Q905.6563,328.3438 906.25,328.0781 Q906.8438,327.7969 907.4688,327.2188 L907.4688,329.9375 Z " fill="#000000"/><text fill="#000000" font-family="sans-serif" font-size="14" lengthAdjust="spacing" textLength="118.3574" x="918.5" y="329.1436">ResourceMonitor</text><line style="stroke:#181818;stroke-width:0.5;" x1="890.5" x2="1038.8574" y1="340.2969" y2="340.2969"/><line style="stroke:#181818;stroke-width:0.5;" x1="890.5" x2="1038.8574" y1="348.2969" y2="348.2969"/></g><!--class ResourceMonitor::ResourceInfo--><g id="elem_ResourceMonitor::ResourceInfo"><rect codeLine="6" fill="#F1F1F1" height="48" id="ResourceMonitor::ResourceInfo" rx="2.5" ry="2.5" style="stroke:#181818;stroke-width:0.5;" width="251.4268" x="770" y="489.7969"/><ellipse cx="785" cy="505.7969" fill="#F1F1F1" rx="11" ry="11" style="stroke:#181818;stroke-width:1;"/><path d="M784.4844,506.3594 Q782.625,505.6563 781.9688,504.8906 Q781.3281,504.1094 781.3281,502.7969 Q781.3281,501.1094 782.4063,500.1406 Q783.4844,499.1719 785.3594,499.1719 Q786.2188,499.1719 787.0625,499.375 Q787.9219,499.5625 788.7656,499.9531 L788.7656,502.3438 Q787.9844,501.7813 787.1563,501.5 Q786.3438,501.2031 785.5469,501.2031 Q784.6719,501.2031 784.1875,501.5625 Q783.7188,501.9219 783.7188,502.5781 Q783.7188,503.0938 784.0625,503.4375 Q784.4063,503.7656 785.5,504.1719 L786.5625,504.5781 Q788.0469,505.125 788.75,506.0313 Q789.4688,506.9375 789.4688,508.3125 Q789.4688,510.1875 788.3594,511.1094 Q787.25,512.0313 785,512.0313 Q784.0781,512.0313 783.1563,511.8125 Q782.2344,511.5938 781.375,511.1719 L781.375,508.6406 Q782.3438,509.3281 783.2656,509.6719 Q784.1875,510.0156 785.0781,510.0156 Q785.9844,510.0156 786.4844,509.6094 Q786.9844,509.1875 786.9844,508.4531 Q786.9844,507.8906 786.6406,507.4844 Q786.3125,507.0625 785.6875,506.8125 L784.4844,506.3594 Z " fill="#000000"/><text fill="#000000" font-family="sans-serif" font-size="14" lengthAdjust="spacing" textLength="219.4268" x="799" y="510.6436">ResourceMonitor::ResourceInfo</text><line style="stroke:#181818;stroke-width:0.5;" x1="771" x2="1020.4268" y1="521.7969" y2="521.7969"/><line style="stroke:#181818;stroke-width:0.5;" x1="771" x2="1020.4268" y1="529.7969" y2="529.7969"/></g><!--class ResourceMonitor::Mode--><g id="elem_ResourceMonitor::Mode"><rect codeLine="7" fill="#F1F1F1" height="48" id="ResourceMonitor::Mode" rx="2.5" ry="2.5" style="stroke:#181818;stroke-width:0.5;" width="197.9355" x="1056.5" y="489.7969"/><ellipse cx="1071.5" cy="505.7969" fill="#EB937F" rx="11" ry="11" style="stroke:#181818;stroke-width:1;"/><path d="M1075.6094,511.7969 L1067.8906,511.7969 L1067.8906,499.4063 L1075.6094,499.4063 L1075.6094,501.5625 L1070.3438,501.5625 L1070.3438,504.2344 L1075.1094,504.2344 L1075.1094,506.3906 L1070.3438,506.3906 L1070.3438,509.6406 L1075.6094,509.6406 L1075.6094,511.7969 Z " fill="#000000"/><text fill="#000000" font-family="sans-serif" font-size="14" lengthAdjust="spacing" textLength="165.9355" x="1085.5" y="510.6436">ResourceMonitor::Mode</text><line style="stroke:#181818;stroke-width:0.5;" x1="1057.5" x2="1253.4355" y1="521.7969" y2="521.7969"/><line style="stroke:#181818;stroke-width:0.5;" x1="1057.5" x2="1253.4355" y1="529.7969" y2="529.7969"/></g><!--class Diagnostic::DiagnosticDefinition--><g id="elem_Diagnostic::DiagnosticDefinition"><rect codeLine="10" fill="#F1F1F1" height="48" id="Diagnostic::DiagnosticDefinition" rx="2.5" ry="2.5" style="stroke:#181818;stroke-width:0.5;" width="257.1143" x="1040" y="86.2969"/><ellipse cx="1055" cy="102.2969" fill="#F1F1F1" rx="11" ry="11" style="stroke:#181818;stroke-width:1;"/><path d="M1054.4844,102.8594 Q1052.625,102.1563 1051.9688,101.3906 Q1051.3281,100.6094 1051.3281,99.2969 Q1051.3281,97.6094 1052.4063,96.6406 Q1053.4844,95.6719 1055.3594,95.6719 Q1056.2188,95.6719 1057.0625,95.875 Q1057.9219,96.0625 1058.7656,96.4531 L1058.7656,98.8438 Q1057.9844,98.2813 1057.1563,98 Q1056.3438,97.7031 1055.5469,97.7031 Q1054.6719,97.7031 1054.1875,98.0625 Q1053.7188,98.4219 1053.7188,99.0781 Q1053.7188,99.5938 1054.0625,99.9375 Q1054.4063,100.2656 1055.5,100.6719 L1056.5625,101.0781 Q1058.0469,101.625 1058.75,102.5313 Q1059.4688,103.4375 1059.4688,104.8125 Q1059.4688,106.6875 1058.3594,107.6094 Q1057.25,108.5313 1055,108.5313 Q1054.0781,108.5313 1053.1563,108.3125 Q1052.2344,108.0938 1051.375,107.6719 L1051.375,105.1406 Q1052.3438,105.8281 1053.2656,106.1719 Q1054.1875,106.5156 1055.0781,106.5156 Q1055.9844,106.5156 1056.4844,106.1094 Q1056.9844,105.6875 1056.9844,104.9531 Q1056.9844,104.3906 1056.6406,103.9844 Q1056.3125,103.5625 1055.6875,103.3125 L1054.4844,102.8594 Z " fill="#000000"/><text fill="#000000" font-family="sans-serif" font-size="14" lengthAdjust="spacing" textLength="225.1143" x="1069" y="107.1436">Diagnostic::DiagnosticDefinition</text><line style="stroke:#181818;stroke-width:0.5;" x1="1041" x2="1296.1143" y1="118.2969" y2="118.2969"/><line style="stroke:#181818;stroke-width:0.5;" x1="1041" x2="1296.1143" y1="126.2969" y2="126.2969"/></g><!--class Logger--><g id="elem_Logger"><rect codeLine="11" fill="#F1F1F1" height="48" id="Logger" rx="2.5" ry="2.5" style="stroke:#181818;stroke-width:0.5;" width="80.5078" x="924" y="86.2969"/><ellipse cx="939" cy="102.2969" fill="#ADD1B2" rx="11" ry="11" style="stroke:#181818;stroke-width:1;"/><path d="M941.9688,107.9375 Q941.3906,108.2344 940.75,108.375 Q940.1094,108.5313 939.4063,108.5313 Q936.9063,108.5313 935.5781,106.8906 Q934.2656,105.2344 934.2656,102.1094 Q934.2656,98.9844 935.5781,97.3281 Q936.9063,95.6719 939.4063,95.6719 Q940.1094,95.6719 940.75,95.8281 Q941.4063,95.9844 941.9688,96.2813 L941.9688,99 Q941.3438,98.4219 940.75,98.1563 Q940.1563,97.875 939.5313,97.875 Q938.1875,97.875 937.5,98.9531 Q936.8125,100.0156 936.8125,102.1094 Q936.8125,104.2031 937.5,105.2813 Q938.1875,106.3438 939.5313,106.3438 Q940.1563,106.3438 940.75,106.0781 Q941.3438,105.7969 941.9688,105.2188 L941.9688,107.9375 Z " fill="#000000"/><text fill="#000000" font-family="sans-serif" font-size="14" lengthAdjust="spacing" textLength="48.5078" x="953" y="107.1436">Logger</text><line style="stroke:#181818;stroke-width:0.5;" x1="925" x2="1003.5078" y1="118.2969" y2="118.2969"/><line style="stroke:#181818;stroke-width:0.5;" x1="925" x2="1003.5078" y1="126.2969" y2="126.2969"/></g><!--class Architecture::Type--><g id="elem_Architecture::Type"><rect codeLine="12" fill="#F1F1F1" height="48" id="Architecture::Type" rx="2.5" ry="2.5" style="stroke:#181818;stroke-width:0.5;" width="162.0947" x="726.5" y="86.2969"/><ellipse cx="741.5" cy="102.2969" fill="#EB937F" rx="11" ry="11" style="stroke:#181818;stroke-width:1;"/><path d="M745.6094,108.2969 L737.8906,108.2969 L737.8906,95.9063 L745.6094,95.9063 L745.6094,98.0625 L740.3438,98.0625 L740.3438,100.7344 L745.1094,100.7344 L745.1094,102.8906 L740.3438,102.8906 L740.3438,106.1406 L745.6094,106.1406 L745.6094,108.2969 Z " fill="#000000"/><text fill="#000000" font-family="sans-serif" font-size="14" lengthAdjust="spacing" textLength="130.0947" x="755.5" y="107.1436">Architecture::Type</text><line style="stroke:#181818;stroke-width:0.5;" x1="727.5" x2="887.5947" y1="118.2969" y2="118.2969"/><line style="stroke:#181818;stroke-width:0.5;" x1="727.5" x2="887.5947" y1="126.2969" y2="126.2969"/></g><!--class ResourceMonitor::ResourceInfo--><g id="elem_ResourceMonitor::ResourceInfo"><rect codeLine="20" fill="#F1F1F1" height="129.4844" id="ResourceMonitor::ResourceInfo" rx="2.5" ry="2.5" style="stroke:#181818;stroke-width:0.5;" width="251.4268" x="202" y="45.7969"/><ellipse cx="217" cy="61.7969" fill="#F1F1F1" rx="11" ry="11" style="stroke:#181818;stroke-width:1;"/><path d="M216.4844,62.3594 Q214.625,61.6563 213.9688,60.8906 Q213.3281,60.1094 213.3281,58.7969 Q213.3281,57.1094 214.4063,56.1406 Q215.4844,55.1719 217.3594,55.1719 Q218.2188,55.1719 219.0625,55.375 Q219.9219,55.5625 220.7656,55.9531 L220.7656,58.3438 Q219.9844,57.7813 219.1563,57.5 Q218.3438,57.2031 217.5469,57.2031 Q216.6719,57.2031 216.1875,57.5625 Q215.7188,57.9219 215.7188,58.5781 Q215.7188,59.0938 216.0625,59.4375 Q216.4063,59.7656 217.5,60.1719 L218.5625,60.5781 Q220.0469,61.125 220.75,62.0313 Q221.4688,62.9375 221.4688,64.3125 Q221.4688,66.1875 220.3594,67.1094 Q219.25,68.0313 217,68.0313 Q216.0781,68.0313 215.1563,67.8125 Q214.2344,67.5938 213.375,67.1719 L213.375,64.6406 Q214.3438,65.3281 215.2656,65.6719 Q216.1875,66.0156 217.0781,66.0156 Q217.9844,66.0156 218.4844,65.6094 Q218.9844,65.1875 218.9844,64.4531 Q218.9844,63.8906 218.6406,63.4844 Q218.3125,63.0625 217.6875,62.8125 L216.4844,62.3594 Z " fill="#000000"/><text fill="#000000" font-family="sans-serif" font-size="14" lengthAdjust="spacing" textLength="219.4268" x="231" y="66.6436">ResourceMonitor::ResourceInfo</text><line style="stroke:#181818;stroke-width:0.5;" x1="203" x2="452.4268" y1="77.7969" y2="77.7969"/><text fill="#000000" font-family="sans-serif" font-size="14" lengthAdjust="spacing" textLength="176.5518" x="208" y="94.792">std::string process_name</text><text fill="#000000" font-family="sans-serif" font-size="14" lengthAdjust="spacing" textLength="83.542" x="208" y="111.0889">uint16_t pid</text><text fill="#000000" font-family="sans-serif" font-size="14" lengthAdjust="spacing" textLength="115.5752" x="208" y="127.3857">double cpu_perc</text><text fill="#000000" font-family="sans-serif" font-size="14" lengthAdjust="spacing" textLength="118.0908" x="208" y="143.6826">double ram_perc</text><text fill="#000000" font-family="sans-serif" font-size="14" lengthAdjust="spacing" textLength="118.2959" x="208" y="159.9795">double disk_perc</text><line style="stroke:#181818;stroke-width:0.5;" x1="203" x2="452.4268" y1="167.2813" y2="167.2813"/></g><!--class ResourceMonitor::Mode--><g id="elem_ResourceMonitor::Mode"><rect codeLine="27" fill="#F1F1F1" height="80.5938" id="ResourceMonitor::Mode" rx="2.5" ry="2.5" style="stroke:#181818;stroke-width:0.5;" width="197.9355" x="488.5" y="69.7969"/><ellipse cx="503.5" cy="85.7969" fill="#EB937F" rx="11" ry="11" style="stroke:#181818;stroke-width:1;"/><path d="M507.6094,91.7969 L499.8906,91.7969 L499.8906,79.4063 L507.6094,79.4063 L507.6094,81.5625 L502.3438,81.5625 L502.3438,84.2344 L507.1094,84.2344 L507.1094,86.3906 L502.3438,86.3906 L502.3438,89.6406 L507.6094,89.6406 L507.6094,91.7969 Z " fill="#000000"/><text fill="#000000" font-family="sans-serif" font-size="14" lengthAdjust="spacing" textLength="165.9355" x="517.5" y="90.6436">ResourceMonitor::Mode</text><line style="stroke:#181818;stroke-width:0.5;" x1="489.5" x2="685.4355" y1="101.7969" y2="101.7969"/><text fill="#000000" font-family="sans-serif" font-size="14" lengthAdjust="spacing" textLength="65.584" x="494.5" y="118.792">PROCESS</text><text fill="#000000" font-family="sans-serif" font-size="14" lengthAdjust="spacing" textLength="51.9531" x="494.5" y="135.0889">DEVICE</text><line style="stroke:#181818;stroke-width:0.5;" x1="489.5" x2="685.4355" y1="142.3906" y2="142.3906"/></g><!--class ResourceMonitor--><g id="elem_ResourceMonitor"><rect codeLine="31" fill="#F1F1F1" height="194.6719" id="ResourceMonitor" rx="2.5" ry="2.5" style="stroke:#181818;stroke-width:0.5;" width="640.7422" x="7" y="234.7969"/><ellipse cx="263.9424" cy="250.7969" fill="#ADD1B2" rx="11" ry="11" style="stroke:#181818;stroke-width:1;"/><path d="M266.9111,256.4375 Q266.333,256.7344 265.6924,256.875 Q265.0518,257.0313 264.3486,257.0313 Q261.8486,257.0313 260.5205,255.3906 Q259.208,253.7344 259.208,250.6094 Q259.208,247.4844 260.5205,245.8281 Q261.8486,244.1719 264.3486,244.1719 Q265.0518,244.1719 265.6924,244.3281 Q266.3486,244.4844 266.9111,244.7813 L266.9111,247.5 Q266.2861,246.9219 265.6924,246.6563 Q265.0986,246.375 264.4736,246.375 Q263.1299,246.375 262.4424,247.4531 Q261.7549,248.5156 261.7549,250.6094 Q261.7549,252.7031 262.4424,253.7813 Q263.1299,254.8438 264.4736,254.8438 Q265.0986,254.8438 265.6924,254.5781 Q266.2861,254.2969 266.9111,253.7188 L266.9111,256.4375 Z " fill="#000000"/><text fill="#000000" font-family="sans-serif" font-size="14" lengthAdjust="spacing" textLength="118.3574" x="284.4424" y="255.6436">ResourceMonitor</text><line style="stroke:#181818;stroke-width:0.5;" x1="8" x2="646.7422" y1="266.7969" y2="266.7969"/><line style="stroke:#181818;stroke-width:0.5;" x1="8" x2="646.7422" y1="274.7969" y2="274.7969"/><ellipse cx="18" cy="288.4453" fill="#84BE84" rx="3" ry="3" style="stroke:#038048;stroke-width:1;"/><text fill="#000000" font-family="sans-serif" font-size="14" lengthAdjust="spacing" textLength="614.7422" x="27" y="291.792">ResourceMonitor(Mode _mode, Diagnostic::DiagnosticDefinition _diag, Logger* _logger)</text><ellipse cx="18" cy="304.7422" fill="#84BE84" rx="3" ry="3" style="stroke:#038048;stroke-width:1;"/><text fill="#000000" font-family="sans-serif" font-size="14" lengthAdjust="spacing" textLength="130.7031" x="27" y="308.0889">bool is_initialized()</text><ellipse cx="18" cy="321.0391" fill="#84BE84" rx="3" ry="3" style="stroke:#038048;stroke-width:1;"/><text fill="#000000" font-family="sans-serif" font-size="14" lengthAdjust="spacing" textLength="251.5283" x="27" y="324.3857">std::string pretty(ResourceInfo info)</text><ellipse cx="18" cy="337.3359" fill="#84BE84" rx="3" ry="3" style="stroke:#038048;stroke-width:1;"/><text fill="#000000" font-family="sans-serif" font-size="14" lengthAdjust="spacing" textLength="262.6299" x="27" y="340.6826">Diagnostic::DiagnosticDefinition init()</text><ellipse cx="18" cy="353.6328" fill="#84BE84" rx="3" ry="3" style="stroke:#038048;stroke-width:1;"/><text fill="#000000" font-family="sans-serif" font-size="14" lengthAdjust="spacing" textLength="224.4238" x="27" y="356.9795">ResourceInfo get_resourceinfo()</text><ellipse cx="18" cy="369.9297" fill="#84BE84" rx="3" ry="3" style="stroke:#038048;stroke-width:1;"/><text fill="#000000" font-family="sans-serif" font-size="14" lengthAdjust="spacing" textLength="260.7842" x="27" y="373.2764">Architecture::Type get_architecture()</text><ellipse cx="18" cy="386.2266" fill="#84BE84" rx="3" ry="3" style="stroke:#038048;stroke-width:1;"/><text fill="#000000" font-family="sans-serif" font-size="14" lengthAdjust="spacing" textLength="368.8467" x="27" y="389.5732">Diagnostic::DiagnosticDefinition update(double t_dt)</text><ellipse cx="18" cy="402.5234" fill="#84BE84" rx="3" ry="3" style="stroke:#038048;stroke-width:1;"/><text fill="#000000" font-family="sans-serif" font-size="14" lengthAdjust="spacing" textLength="269.9854" x="27" y="405.8701">std::vector&lt;double&gt; get_load_factor()</text><ellipse cx="18" cy="418.8203" fill="#84BE84" rx="3" ry="3" style="stroke:#038048;stroke-width:1;"/><text fill="#000000" font-family="sans-serif" font-size="14" lengthAdjust="spacing" textLength="81.0469" x="27" y="422.167">bool reset()</text></g><!--reverse link ResourceMonitor to ResourceMonitor::ResourceInfo--><g id="link_ResourceMonitor_ResourceMonitor::ResourceInfo"><path codeLine="15" d="M949.8792,371.3315 C936.6292,405.8015 917.57,455.3669 904.35,489.7869 " fill="transparent" id="ResourceMonitor-backto-ResourceMonitor::ResourceInfo" style="stroke:#181818;stroke-width:1;"/><ellipse cx="952.7496" cy="363.8642" fill="#FFFFFF" rx="8" ry="8" style="stroke:#181818;stroke-width:1;"/><line style="stroke:#181818;stroke-width:1;" x1="949.8792" x2="955.62" y1="371.3315" y2="356.3969"/><line style="stroke:#181818;stroke-width:1;" x1="945.2823" x2="960.2169" y1="360.9938" y2="366.7346"/></g><!--reverse link ResourceMonitor to ResourceMonitor::Mode--><g id="link_ResourceMonitor_ResourceMonitor::Mode"><path codeLine="16" d="M1000.738,367.3555 C1037.408,401.8255 1094.4,455.3669 1131.02,489.7869 " fill="transparent" id="ResourceMonitor-backto-ResourceMonitor::Mode" style="stroke:#181818;stroke-width:1;"/><ellipse cx="994.909" cy="361.8762" fill="#FFFFFF" rx="8" ry="8" style="stroke:#181818;stroke-width:1;"/><line style="stroke:#181818;stroke-width:1;" x1="1000.738" x2="989.08" y1="367.3555" y2="356.3969"/><line style="stroke:#181818;stroke-width:1;" x1="989.4297" x2="1000.3883" y1="367.7052" y2="356.0472"/></g><!--reverse link Logger to ResourceMonitor--><g id="link_Logger_ResourceMonitor"><path codeLine="17" d="M964.5,146.4269 C964.5,188.6769 964.5,265.8769 964.5,308.1469 " fill="transparent" id="Logger-backto-ResourceMonitor" style="stroke:#181818;stroke-width:1;"/><polygon fill="#181818" points="964.5,134.4269,960.5,140.4269,964.5,146.4269,968.5,140.4269,964.5,134.4269" style="stroke:#181818;stroke-width:1;"/></g><!--reverse link Architecture::Type to ResourceMonitor--><g id="link_Architecture::Type_ResourceMonitor"><path codeLine="18" d="M830.9805,144.1948 C861.1305,186.4448 917.82,265.8769 947.98,308.1469 " fill="transparent" id="Architecture::Type-backto-ResourceMonitor" style="stroke:#181818;stroke-width:1;"/><polygon fill="#181818" points="824.01,134.4269,824.2393,141.6343,830.9805,144.1948,830.7512,136.9873,824.01,134.4269" style="stroke:#181818;stroke-width:1;"/></g><!--reverse link Diagnostic::DiagnosticDefinition to ResourceMonitor--><g id="link_Diagnostic::DiagnosticDefinition_ResourceMonitor"><path codeLine="19" d="M1138.8904,143.2258 C1099.7104,185.4758 1025.16,265.8769 985.96,308.1469 " fill="transparent" id="Diagnostic::DiagnosticDefinition-backto-ResourceMonitor" style="stroke:#181818;stroke-width:1;"/><polygon fill="#181818" points="1147.05,134.4269,1140.0372,136.1065,1138.8904,143.2258,1145.9032,141.5462,1147.05,134.4269" style="stroke:#181818;stroke-width:1;"/></g><!--SRC=[ZLCzRuCm4Dtv5HvfFeOk7L1LgKeoH6hKAgcwMevz8LO08_keb5RyznfZKWX4XC6OvtVltfqFb9W0sO9HXUP0DYgJg3HP9CmOifGirYmDSiPFB0O2MXdo6n3xe8e1Zw3zP_Lm5zD8UQNgzC8mg0kErvGeQe1rTb0NCcH5sgTkb017AM_Py4agxvaoA7aK_U-NS91MIQhiolQRYcFGtUIlcXyb0iT2GnHzdlCcSnbS-IBJ-NoahBiYN7Mr5JBf4uA-eo4Q2SQA7uwwvtfyemsAAB9ycSKarug3CJHZQTsWGcRu-4IHv58uGAXYRwUCvmNDGVCsPiUhXmbfJZLO1hUdm3lvsBulLhkTsozNN-l5oaODZg8Fc5x1eHEZgLrderD3gB3ep8_BXD34RHvgvRrI2P66EZ9Bv0-8q1zr6mQ8vx3JLcaNJntrKBqRtOw8_HUeza0bs906ngQYiXOStfkyo0L32FrL8HNOhl3RgYdzN9- -k2o9Oe8UM8M7xJvPer2L4PH_]--></g></svg>