<?xml version="1.0" encoding="UTF-8" standalone="no"?><svg xmlns="http://www.w3.org/2000/svg" xmlns:xlink="http://www.w3.org/1999/xlink" contentStyleType="text/css" height="641px" preserveAspectRatio="none" style="width:725px;height:641px;background:#FFFFFF;" version="1.1" viewBox="0 0 725 641" width="725px" zoomAndPan="magnify"><defs/><g><rect fill="none" height="26.2969" id="_title" style="stroke:none;stroke-width:1.0;" width="266" x="222.5" y="5"/><text fill="#000000" font-family="sans-serif" font-size="14" font-weight="bold" lengthAdjust="spacing" textLength="256" x="227.5" y="22.9951">Resource Monitor Class Diagram</text><!--MD5=[04e143e1b92f58df159b9d5ccef94150]
cluster eros--><g id="cluster_eros"><path d="M8.5,43.2969 L45.5,43.2969 A3.75,3.75 0 0 1 48,45.7969 L55,65.5938 L715.5,65.5938 A2.5,2.5 0 0 1 718,68.0938 L718,631.7969 A2.5,2.5 0 0 1 715.5,634.2969 L8.5,634.2969 A2.5,2.5 0 0 1 6,631.7969 L6,45.7969 A2.5,2.5 0 0 1 8.5,43.2969 " fill="none" style="stroke:#000000;stroke-width:1.5;"/><line style="stroke:#000000;stroke-width:1.5;" x1="6" x2="55" y1="65.5938" y2="65.5938"/><text fill="#000000" font-family="sans-serif" font-size="14" font-weight="bold" lengthAdjust="spacing" textLength="36" x="10" y="58.292">eros</text></g><!--MD5=[adf276bdf64f777bc0bfad08a1bb407c]
class ResourceMonitor--><g id="elem_ResourceMonitor"><rect codeLine="31" fill="#F1F1F1" height="194.6719" id="ResourceMonitor" rx="2.5" ry="2.5" style="stroke:#181818;stroke-width:0.5;" width="632" x="46" y="210.2969"/><ellipse cx="298.25" cy="226.2969" fill="#ADD1B2" rx="11" ry="11" style="stroke:#181818;stroke-width:1.0;"/><path d="M301.2188,231.9375 Q300.6406,232.2344 300,232.375 Q299.3594,232.5313 298.6563,232.5313 Q296.1563,232.5313 294.8281,230.8906 Q293.5156,229.2344 293.5156,226.1094 Q293.5156,222.9844 294.8281,221.3281 Q296.1563,219.6719 298.6563,219.6719 Q299.3594,219.6719 300,219.8281 Q300.6563,219.9844 301.2188,220.2813 L301.2188,223 Q300.5938,222.4219 300,222.1563 Q299.4063,221.875 298.7813,221.875 Q297.4375,221.875 296.75,222.9531 Q296.0625,224.0156 296.0625,226.1094 Q296.0625,228.2031 296.75,229.2813 Q297.4375,230.3438 298.7813,230.3438 Q299.4063,230.3438 300,230.0781 Q300.5938,229.7969 301.2188,229.2188 L301.2188,231.9375 Z " fill="#000000"/><text fill="#000000" font-family="sans-serif" font-size="14" lengthAdjust="spacing" textLength="119" x="318.75" y="231.1436">ResourceMonitor</text><line style="stroke:#181818;stroke-width:0.5;" x1="47" x2="677" y1="242.2969" y2="242.2969"/><line style="stroke:#181818;stroke-width:0.5;" x1="47" x2="677" y1="250.2969" y2="250.2969"/><ellipse cx="57" cy="263.9453" fill="#84BE84" rx="3" ry="3" style="stroke:#038048;stroke-width:1.0;"/><text fill="#000000" font-family="sans-serif" font-size="14" lengthAdjust="spacing" textLength="606" x="66" y="267.292">ResourceMonitor(Mode _mode, Diagnostic::DiagnosticDefinition _diag, Logger* _logger)</text><ellipse cx="57" cy="280.2422" fill="#84BE84" rx="3" ry="3" style="stroke:#038048;stroke-width:1.0;"/><text fill="#000000" font-family="sans-serif" font-size="14" lengthAdjust="spacing" textLength="125" x="66" y="283.5889">bool is_initialized()</text><ellipse cx="57" cy="296.5391" fill="#84BE84" rx="3" ry="3" style="stroke:#038048;stroke-width:1.0;"/><text fill="#000000" font-family="sans-serif" font-size="14" lengthAdjust="spacing" textLength="214" x="66" y="299.8857">string pretty(ResourceInfo info)</text><ellipse cx="57" cy="312.8359" fill="#84BE84" rx="3" ry="3" style="stroke:#038048;stroke-width:1.0;"/><text fill="#000000" font-family="sans-serif" font-size="14" lengthAdjust="spacing" textLength="255" x="66" y="316.1826">Diagnostic::DiagnosticDefinition init()</text><ellipse cx="57" cy="329.1328" fill="#84BE84" rx="3" ry="3" style="stroke:#038048;stroke-width:1.0;"/><text fill="#000000" font-family="sans-serif" font-size="14" lengthAdjust="spacing" textLength="223" x="66" y="332.4795">ResourceInfo get_resourceinfo()</text><ellipse cx="57" cy="345.4297" fill="#84BE84" rx="3" ry="3" style="stroke:#038048;stroke-width:1.0;"/><text fill="#000000" font-family="sans-serif" font-size="14" lengthAdjust="spacing" textLength="255" x="66" y="348.7764">Architecture::Type get_architecture()</text><ellipse cx="57" cy="361.7266" fill="#84BE84" rx="3" ry="3" style="stroke:#038048;stroke-width:1.0;"/><text fill="#000000" font-family="sans-serif" font-size="14" lengthAdjust="spacing" textLength="362" x="66" y="365.0732">Diagnostic::DiagnosticDefinition update(double t_dt)</text><ellipse cx="57" cy="378.0234" fill="#84BE84" rx="3" ry="3" style="stroke:#038048;stroke-width:1.0;"/><text fill="#000000" font-family="sans-serif" font-size="14" lengthAdjust="spacing" textLength="266" x="66" y="381.3701">std::vector&lt;double&gt; get_load_factor()</text><ellipse cx="57" cy="394.3203" fill="#84BE84" rx="3" ry="3" style="stroke:#038048;stroke-width:1.0;"/><text fill="#000000" font-family="sans-serif" font-size="14" lengthAdjust="spacing" textLength="80" x="66" y="397.667">bool reset()</text></g><!--MD5=[d26a277378b985e7eeac712cdc9295b2]
class ResourceMonitor::ResourceInfo--><g id="elem_ResourceMonitor::ResourceInfo"><rect codeLine="20" fill="#F1F1F1" height="129.4844" id="ResourceMonitor::ResourceInfo" rx="2.5" ry="2.5" style="stroke:#181818;stroke-width:0.5;" width="253" x="117.5" y="465.2969"/><ellipse cx="132.5" cy="481.2969" fill="#F1F1F1" rx="11" ry="11" style="stroke:#181818;stroke-width:1.0;"/><path d="M131.9844,481.8594 Q130.125,481.1563 129.4688,480.3906 Q128.8281,479.6094 128.8281,478.2969 Q128.8281,476.6094 129.9063,475.6406 Q130.9844,474.6719 132.8594,474.6719 Q133.7188,474.6719 134.5625,474.875 Q135.4219,475.0625 136.2656,475.4531 L136.2656,477.8438 Q135.4844,477.2813 134.6563,477 Q133.8438,476.7031 133.0469,476.7031 Q132.1719,476.7031 131.6875,477.0625 Q131.2188,477.4219 131.2188,478.0781 Q131.2188,478.5938 131.5625,478.9375 Q131.9063,479.2656 133,479.6719 L134.0625,480.0781 Q135.5469,480.625 136.25,481.5313 Q136.9688,482.4375 136.9688,483.8125 Q136.9688,485.6875 135.8594,486.6094 Q134.75,487.5313 132.5,487.5313 Q131.5781,487.5313 130.6563,487.3125 Q129.7344,487.0938 128.875,486.6719 L128.875,484.1406 Q129.8438,484.8281 130.7656,485.1719 Q131.6875,485.5156 132.5781,485.5156 Q133.4844,485.5156 133.9844,485.1094 Q134.4844,484.6875 134.4844,483.9531 Q134.4844,483.3906 134.1406,482.9844 Q133.8125,482.5625 133.1875,482.3125 L131.9844,481.8594 Z " fill="#000000"/><text fill="#000000" font-family="sans-serif" font-size="14" lengthAdjust="spacing" textLength="221" x="146.5" y="486.1436">ResourceMonitor::ResourceInfo</text><line style="stroke:#181818;stroke-width:0.5;" x1="118.5" x2="369.5" y1="497.2969" y2="497.2969"/><text fill="#000000" font-family="sans-serif" font-size="14" lengthAdjust="spacing" textLength="145" x="123.5" y="514.292">string process_name</text><text fill="#000000" font-family="sans-serif" font-size="14" lengthAdjust="spacing" textLength="81" x="123.5" y="530.5889">uint16_t pid</text><text fill="#000000" font-family="sans-serif" font-size="14" lengthAdjust="spacing" textLength="116" x="123.5" y="546.8857">double cpu_perc</text><text fill="#000000" font-family="sans-serif" font-size="14" lengthAdjust="spacing" textLength="116" x="123.5" y="563.1826">double ram_perc</text><text fill="#000000" font-family="sans-serif" font-size="14" lengthAdjust="spacing" textLength="118" x="123.5" y="579.4795">double disk_perc</text><line style="stroke:#181818;stroke-width:0.5;" x1="118.5" x2="369.5" y1="586.7813" y2="586.7813"/></g><!--MD5=[729a81ea2ebb5b614e46fde5e3ce1875]
class ResourceMonitor::Mode--><g id="elem_ResourceMonitor::Mode"><rect codeLine="27" fill="#F1F1F1" height="80.5938" id="ResourceMonitor::Mode" rx="2.5" ry="2.5" style="stroke:#181818;stroke-width:0.5;" width="200" x="406" y="489.2969"/><ellipse cx="421" cy="505.2969" fill="#EB937F" rx="11" ry="11" style="stroke:#181818;stroke-width:1.0;"/><path d="M425.1094,511.2969 L417.3906,511.2969 L417.3906,498.9063 L425.1094,498.9063 L425.1094,501.0625 L419.8438,501.0625 L419.8438,503.7344 L424.6094,503.7344 L424.6094,505.8906 L419.8438,505.8906 L419.8438,509.1406 L425.1094,509.1406 L425.1094,511.2969 Z " fill="#000000"/><text fill="#000000" font-family="sans-serif" font-size="14" lengthAdjust="spacing" textLength="168" x="435" y="510.1436">ResourceMonitor::Mode</text><line style="stroke:#181818;stroke-width:0.5;" x1="407" x2="605" y1="521.2969" y2="521.2969"/><text fill="#000000" font-family="sans-serif" font-size="14" lengthAdjust="spacing" textLength="67" x="412" y="538.292">PROCESS</text><text fill="#000000" font-family="sans-serif" font-size="14" lengthAdjust="spacing" textLength="51" x="412" y="554.5889">DEVICE</text><line style="stroke:#181818;stroke-width:0.5;" x1="407" x2="605" y1="561.8906" y2="561.8906"/></g><!--MD5=[e5916490e9e6a84b67f3f18d2db3c230]
class Diagnostic::DiagnosticDefinition--><g id="elem_Diagnostic::DiagnosticDefinition"><rect codeLine="10" fill="#F1F1F1" height="48" id="Diagnostic::DiagnosticDefinition" rx="2.5" ry="2.5" style="stroke:#181818;stroke-width:0.5;" width="253" x="424.5" y="102.2969"/><ellipse cx="439.5" cy="118.2969" fill="#F1F1F1" rx="11" ry="11" style="stroke:#181818;stroke-width:1.0;"/><path d="M438.9844,118.8594 Q437.125,118.1563 436.4688,117.3906 Q435.8281,116.6094 435.8281,115.2969 Q435.8281,113.6094 436.9063,112.6406 Q437.9844,111.6719 439.8594,111.6719 Q440.7188,111.6719 441.5625,111.875 Q442.4219,112.0625 443.2656,112.4531 L443.2656,114.8438 Q442.4844,114.2813 441.6563,114 Q440.8438,113.7031 440.0469,113.7031 Q439.1719,113.7031 438.6875,114.0625 Q438.2188,114.4219 438.2188,115.0781 Q438.2188,115.5938 438.5625,115.9375 Q438.9063,116.2656 440,116.6719 L441.0625,117.0781 Q442.5469,117.625 443.25,118.5313 Q443.9688,119.4375 443.9688,120.8125 Q443.9688,122.6875 442.8594,123.6094 Q441.75,124.5313 439.5,124.5313 Q438.5781,124.5313 437.6563,124.3125 Q436.7344,124.0938 435.875,123.6719 L435.875,121.1406 Q436.8438,121.8281 437.7656,122.1719 Q438.6875,122.5156 439.5781,122.5156 Q440.4844,122.5156 440.9844,122.1094 Q441.4844,121.6875 441.4844,120.9531 Q441.4844,120.3906 441.1406,119.9844 Q440.8125,119.5625 440.1875,119.3125 L438.9844,118.8594 Z " fill="#000000"/><text fill="#000000" font-family="sans-serif" font-size="14" lengthAdjust="spacing" textLength="221" x="453.5" y="123.1436">Diagnostic::DiagnosticDefinition</text><line style="stroke:#181818;stroke-width:0.5;" x1="425.5" x2="676.5" y1="134.2969" y2="134.2969"/><line style="stroke:#181818;stroke-width:0.5;" x1="425.5" x2="676.5" y1="142.2969" y2="142.2969"/></g><!--MD5=[248f897e4bb16c2722904b15df30346f]
class Logger--><g id="elem_Logger"><rect codeLine="11" fill="#F1F1F1" height="48" id="Logger" rx="2.5" ry="2.5" style="stroke:#181818;stroke-width:0.5;" width="80" x="309" y="102.2969"/><ellipse cx="324" cy="118.2969" fill="#ADD1B2" rx="11" ry="11" style="stroke:#181818;stroke-width:1.0;"/><path d="M326.9688,123.9375 Q326.3906,124.2344 325.75,124.375 Q325.1094,124.5313 324.4063,124.5313 Q321.9063,124.5313 320.5781,122.8906 Q319.2656,121.2344 319.2656,118.1094 Q319.2656,114.9844 320.5781,113.3281 Q321.9063,111.6719 324.4063,111.6719 Q325.1094,111.6719 325.75,111.8281 Q326.4063,111.9844 326.9688,112.2813 L326.9688,115 Q326.3438,114.4219 325.75,114.1563 Q325.1563,113.875 324.5313,113.875 Q323.1875,113.875 322.5,114.9531 Q321.8125,116.0156 321.8125,118.1094 Q321.8125,120.2031 322.5,121.2813 Q323.1875,122.3438 324.5313,122.3438 Q325.1563,122.3438 325.75,122.0781 Q326.3438,121.7969 326.9688,121.2188 L326.9688,123.9375 Z " fill="#000000"/><text fill="#000000" font-family="sans-serif" font-size="14" lengthAdjust="spacing" textLength="48" x="338" y="123.1436">Logger</text><line style="stroke:#181818;stroke-width:0.5;" x1="310" x2="388" y1="134.2969" y2="134.2969"/><line style="stroke:#181818;stroke-width:0.5;" x1="310" x2="388" y1="142.2969" y2="142.2969"/></g><!--MD5=[144c6deea9b3c9d1f56b2f6ccb4a0540]
class Architecture::Type--><g id="elem_Architecture::Type"><rect codeLine="12" fill="#F1F1F1" height="48" id="Architecture::Type" rx="2.5" ry="2.5" style="stroke:#181818;stroke-width:0.5;" width="160" x="114" y="102.2969"/><ellipse cx="129" cy="118.2969" fill="#EB937F" rx="11" ry="11" style="stroke:#181818;stroke-width:1.0;"/><path d="M133.1094,124.2969 L125.3906,124.2969 L125.3906,111.9063 L133.1094,111.9063 L133.1094,114.0625 L127.8438,114.0625 L127.8438,116.7344 L132.6094,116.7344 L132.6094,118.8906 L127.8438,118.8906 L127.8438,122.1406 L133.1094,122.1406 L133.1094,124.2969 Z " fill="#000000"/><text fill="#000000" font-family="sans-serif" font-size="14" lengthAdjust="spacing" textLength="128" x="143" y="123.1436">Architecture::Type</text><line style="stroke:#181818;stroke-width:0.5;" x1="115" x2="273" y1="134.2969" y2="134.2969"/><line style="stroke:#181818;stroke-width:0.5;" x1="115" x2="273" y1="142.2969" y2="142.2969"/></g><!--MD5=[c6a079592b0baf936074a5036e4f4b90]
reverse link ResourceMonitor to ResourceMonitor::ResourceInfo--><g id="link_ResourceMonitor_ResourceMonitor::ResourceInfo"><path codeLine="15" d="M302.94,418.9069 C294.43,434.7669 285.93,450.6269 278.13,465.1669 " fill="none" id="ResourceMonitor-backto-ResourceMonitor::ResourceInfo" style="stroke:#181818;stroke-width:1.0;"/><ellipse cx="306.2836" cy="412.6641" fill="#FFFFFF" rx="8" ry="8" style="stroke:#181818;stroke-width:1.0;"/><line style="stroke:#181818;stroke-width:1.0;" x1="302.4971" x2="310.07" y1="419.7113" y2="405.6169"/><line style="stroke:#181818;stroke-width:1.0;" x1="299.2364" x2="313.3308" y1="408.8776" y2="416.4505"/></g><!--MD5=[2cb87c7c8617e2e4c6551aa56b50fbc9]
reverse link ResourceMonitor to ResourceMonitor::Mode--><g id="link_ResourceMonitor_ResourceMonitor::Mode"><path codeLine="16" d="M433.75,418.4169 C450.31,443.7269 466.9,469.0569 479.99,489.0669 " fill="none" id="ResourceMonitor-backto-ResourceMonitor::Mode" style="stroke:#181818;stroke-width:1.0;"/><ellipse cx="429.7494" cy="412.3117" fill="#FFFFFF" rx="8" ry="8" style="stroke:#181818;stroke-width:1.0;"/><line style="stroke:#181818;stroke-width:1.0;" x1="434.1289" x2="425.37" y1="419.0065" y2="405.6169"/><line style="stroke:#181818;stroke-width:1.0;" x1="423.0546" x2="436.4442" y1="416.6911" y2="407.9323"/></g><!--MD5=[83877331e5797761cf2e71f7b24746f3]
reverse link Logger to ResourceMonitor--><g id="link_Logger_ResourceMonitor"><path codeLine="17" d="M351.63,163.6169 C352.62,177.2969 353.8,193.5869 355,210.1869 " fill="none" id="Logger-backto-ResourceMonitor" style="stroke:#181818;stroke-width:1.0;"/><polygon fill="#181818" points="350.67,150.3969,347.1086,156.6672,351.5268,162.3662,355.0882,156.0959,350.67,150.3969" style="stroke:#181818;stroke-width:1.0;"/></g><!--MD5=[f089fddf56afab350e04c3ba128d5b11]
reverse link Architecture::Type to ResourceMonitor--><g id="link_Architecture::Type_ResourceMonitor"><path codeLine="18" d="M224.81,160.2169 C238.23,174.5569 254.73,192.1869 271.58,210.1869 " fill="none" id="Architecture::Type-backto-ResourceMonitor" style="stroke:#181818;stroke-width:1.0;"/><polygon fill="#181818" points="215.62,150.3969,216.8026,157.5103,223.8238,159.1546,222.6411,152.0411,215.62,150.3969" style="stroke:#181818;stroke-width:1.0;"/></g><!--MD5=[c96752f6d8e39c455dd69e71ab705cb6]
reverse link Diagnostic::DiagnosticDefinition to ResourceMonitor--><g id="link_Diagnostic::DiagnosticDefinition_ResourceMonitor"><path codeLine="19" d="M517.22,159.3869 C501.96,173.8669 483.05,191.8369 463.73,210.1869 " fill="none" id="Diagnostic::DiagnosticDefinition-backto-ResourceMonitor" style="stroke:#181818;stroke-width:1.0;"/><polygon fill="#181818" points="526.68,150.3969,519.575,151.6294,517.98,158.6619,525.085,157.4294,526.68,150.3969" style="stroke:#181818;stroke-width:1.0;"/></g><!--MD5=[bca94d9b2f261f84b037a7d4a257be3d]
@startuml
title Resource Monitor Class Diagram
package eros {
    together {
        class ResourceMonitor
   
        struct ResourceMonitor::ResourceInfo
        enum ResourceMonitor::Mode
    }
    together {
        struct Diagnostic::DiagnosticDefinition
        class Logger
        enum Architecture::Type
    }
}
ResourceMonitor +- - ResourceMonitor::ResourceInfo
ResourceMonitor +- - ResourceMonitor::Mode
Logger *- - ResourceMonitor
Architecture::Type *- - ResourceMonitor 
Diagnostic::DiagnosticDefinition *- - ResourceMonitor 
struct ResourceMonitor::ResourceInfo {
    string process_name
    uint16_t pid
    double cpu_perc
    double ram_perc
    double disk_perc
}
enum ResourceMonitor::Mode {
    PROCESS
    DEVICE
}
class ResourceMonitor {
    +ResourceMonitor(Mode _mode, Diagnostic::DiagnosticDefinition _diag, Logger* _logger)
    +bool is_initialized()
    +string pretty(ResourceInfo info)
    +Diagnostic::DiagnosticDefinition init()
    +ResourceInfo get_resourceinfo()
    +Architecture::Type get_architecture()
    +Diagnostic::DiagnosticDefinition update(double t_dt)
    +std::vector<double> get_load_factor()
    +bool reset()

}
@enduml

PlantUML version 1.2022.8(Sun Sep 25 04:00:33 CDT 2022)
(GPL source distribution)
Java Runtime: OpenJDK Runtime Environment
JVM: OpenJDK 64-Bit Server VM
Default Encoding: UTF-8
Language: en
Country: US
--></g></svg>