<?xml version="1.0" encoding="UTF-8" standalone="no"?><svg xmlns="http://www.w3.org/2000/svg" xmlns:xlink="http://www.w3.org/1999/xlink" contentStyleType="text/css" height="509px" preserveAspectRatio="none" style="width:1314px;height:509px;background:#FFFFFF;" version="1.1" viewBox="0 0 1314 509" width="1314px" zoomAndPan="magnify"><defs/><g><rect fill="none" height="26.2969" id="_title" style="stroke:none;stroke-width:1.0;" width="262" x="519.25" y="5"/><text fill="#000000" font-family="sans-serif" font-size="14" font-weight="bold" lengthAdjust="spacing" textLength="252" x="524.25" y="22.9951">System Monitor Data Structures</text><!--MD5=[582b2f8826957b3cb874823a6be4ee51]
class CoordinateReference--><g id="elem_CoordinateReference"><rect codeLine="2" fill="#F1F1F1" height="80.5938" id="CoordinateReference" rx="2.5" ry="2.5" style="stroke:#181818;stroke-width:0.5;" width="180" x="392.5" y="422.2969"/><ellipse cx="407.5" cy="438.2969" fill="#EB937F" rx="11" ry="11" style="stroke:#181818;stroke-width:1.0;"/><path d="M411.6094,444.2969 L403.8906,444.2969 L403.8906,431.9063 L411.6094,431.9063 L411.6094,434.0625 L406.3438,434.0625 L406.3438,436.7344 L411.1094,436.7344 L411.1094,438.8906 L406.3438,438.8906 L406.3438,442.1406 L411.6094,442.1406 L411.6094,444.2969 Z " fill="#000000"/><text fill="#000000" font-family="sans-serif" font-size="14" lengthAdjust="spacing" textLength="148" x="421.5" y="443.1436">CoordinateReference</text><line style="stroke:#181818;stroke-width:0.5;" x1="393.5" x2="571.5" y1="454.2969" y2="454.2969"/><text fill="#000000" font-family="sans-serif" font-size="14" lengthAdjust="spacing" textLength="55" x="398.5" y="471.292">GLOBAL</text><text fill="#000000" font-family="sans-serif" font-size="14" lengthAdjust="spacing" textLength="83" x="398.5" y="487.5889">TO_PARENT</text><line style="stroke:#181818;stroke-width:0.5;" x1="393.5" x2="571.5" y1="494.8906" y2="494.8906"/></g><!--MD5=[e0ac9014e390fa1bc34e13d034a1882f]
class KeyMap--><g id="elem_KeyMap"><rect codeLine="6" fill="#F1F1F1" height="96.8906" id="KeyMap" rx="2.5" ry="2.5" style="stroke:#181818;stroke-width:0.5;" width="86" x="1221.5" y="60.2969"/><ellipse cx="1236.5" cy="76.2969" fill="#EB937F" rx="11" ry="11" style="stroke:#181818;stroke-width:1.0;"/><path d="M1240.6094,82.2969 L1232.8906,82.2969 L1232.8906,69.9063 L1240.6094,69.9063 L1240.6094,72.0625 L1235.3438,72.0625 L1235.3438,74.7344 L1240.1094,74.7344 L1240.1094,76.8906 L1235.3438,76.8906 L1235.3438,80.1406 L1240.6094,80.1406 L1240.6094,82.2969 Z " fill="#000000"/><text fill="#000000" font-family="sans-serif" font-size="14" lengthAdjust="spacing" textLength="54" x="1250.5" y="81.1436">KeyMap</text><line style="stroke:#181818;stroke-width:0.5;" x1="1222.5" x2="1306.5" y1="92.2969" y2="92.2969"/><text fill="#000000" font-family="sans-serif" font-size="14" lengthAdjust="spacing" textLength="43" x="1227.5" y="109.292">KEY_q</text><text fill="#000000" font-family="sans-serif" font-size="14" lengthAdjust="spacing" textLength="45" x="1227.5" y="125.5889">KEY_Q</text><text fill="#000000" font-family="sans-serif" font-size="14" lengthAdjust="spacing" textLength="62" x="1227.5" y="141.8857">KEY_TAB</text><line style="stroke:#181818;stroke-width:0.5;" x1="1222.5" x2="1306.5" y1="149.1875" y2="149.1875"/></g><!--MD5=[18eee71c88ab61f27581b8cbdd3ef5ee]
class Color--><g id="elem_Color"><rect codeLine="12" fill="#F1F1F1" height="129.4844" id="Color" rx="2.5" ry="2.5" style="stroke:#181818;stroke-width:0.5;" width="68" x="335.5" y="44.2969"/><ellipse cx="350.5" cy="60.2969" fill="#EB937F" rx="11" ry="11" style="stroke:#181818;stroke-width:1.0;"/><path d="M354.6094,66.2969 L346.8906,66.2969 L346.8906,53.9063 L354.6094,53.9063 L354.6094,56.0625 L349.3438,56.0625 L349.3438,58.7344 L354.1094,58.7344 L354.1094,60.8906 L349.3438,60.8906 L349.3438,64.1406 L354.6094,64.1406 L354.6094,66.2969 Z " fill="#000000"/><text fill="#000000" font-family="sans-serif" font-size="14" lengthAdjust="spacing" textLength="36" x="364.5" y="65.1436">Color</text><line style="stroke:#181818;stroke-width:0.5;" x1="336.5" x2="402.5" y1="76.2969" y2="76.2969"/><text fill="#000000" font-family="sans-serif" font-size="14" lengthAdjust="spacing" textLength="30" x="341.5" y="93.292">RED</text><text fill="#000000" font-family="sans-serif" font-size="14" lengthAdjust="spacing" textLength="49" x="341.5" y="109.5889">GREEN</text><text fill="#000000" font-family="sans-serif" font-size="14" lengthAdjust="spacing" textLength="36" x="341.5" y="125.8857">BLUE</text><text fill="#000000" font-family="sans-serif" font-size="14" lengthAdjust="spacing" textLength="44" x="341.5" y="142.1826">WHITE</text><text fill="#000000" font-family="sans-serif" font-size="14" lengthAdjust="spacing" textLength="45" x="341.5" y="158.4795">BLACK</text><line style="stroke:#181818;stroke-width:0.5;" x1="336.5" x2="402.5" y1="165.7813" y2="165.7813"/></g><!--MD5=[b31839853c244c0ee20f4e2e6a2eb017]
class ScreenCoordinatePerc--><g id="elem_ScreenCoordinatePerc"><rect codeLine="19" fill="#F1F1F1" height="129.4844" id="ScreenCoordinatePerc" rx="2.5" ry="2.5" style="stroke:#181818;stroke-width:0.5;" width="231" x="598" y="233.2969"/><ellipse cx="632.35" cy="249.2969" fill="#F1F1F1" rx="11" ry="11" style="stroke:#181818;stroke-width:1.0;"/><path d="M631.8344,249.8594 Q629.975,249.1563 629.3188,248.3906 Q628.6781,247.6094 628.6781,246.2969 Q628.6781,244.6094 629.7563,243.6406 Q630.8344,242.6719 632.7094,242.6719 Q633.5688,242.6719 634.4125,242.875 Q635.2719,243.0625 636.1156,243.4531 L636.1156,245.8438 Q635.3344,245.2813 634.5063,245 Q633.6938,244.7031 632.8969,244.7031 Q632.0219,244.7031 631.5375,245.0625 Q631.0688,245.4219 631.0688,246.0781 Q631.0688,246.5938 631.4125,246.9375 Q631.7563,247.2656 632.85,247.6719 L633.9125,248.0781 Q635.3969,248.625 636.1,249.5313 Q636.8188,250.4375 636.8188,251.8125 Q636.8188,253.6875 635.7094,254.6094 Q634.6,255.5313 632.35,255.5313 Q631.4281,255.5313 630.5063,255.3125 Q629.5844,255.0938 628.725,254.6719 L628.725,252.1406 Q629.6938,252.8281 630.6156,253.1719 Q631.5375,253.5156 632.4281,253.5156 Q633.3344,253.5156 633.8344,253.1094 Q634.3344,252.6875 634.3344,251.9531 Q634.3344,251.3906 633.9906,250.9844 Q633.6625,250.5625 633.0375,250.3125 L631.8344,249.8594 Z " fill="#000000"/><text fill="#000000" font-family="sans-serif" font-size="14" lengthAdjust="spacing" textLength="156" x="650.65" y="254.1436">ScreenCoordinatePerc</text><line style="stroke:#181818;stroke-width:0.5;" x1="599" x2="828" y1="265.2969" y2="265.2969"/><text fill="#000000" font-family="sans-serif" font-size="14" lengthAdjust="spacing" textLength="219" x="604" y="282.292">CoordinateReference reference</text><text fill="#000000" font-family="sans-serif" font-size="14" lengthAdjust="spacing" textLength="135" x="604" y="298.5889">double start_x_perc</text><text fill="#000000" font-family="sans-serif" font-size="14" lengthAdjust="spacing" textLength="135" x="604" y="314.8857">double start_y_perc</text><text fill="#000000" font-family="sans-serif" font-size="14" lengthAdjust="spacing" textLength="127" x="604" y="331.1826">double width_perc</text><text fill="#000000" font-family="sans-serif" font-size="14" lengthAdjust="spacing" textLength="134" x="604" y="347.4795">double height_perc</text><line style="stroke:#181818;stroke-width:0.5;" x1="599" x2="828" y1="354.7813" y2="354.7813"/></g><!--MD5=[e76991bf648602451e1bb35f8b8234bd]
class ScreenCoordinatePixel--><g id="elem_ScreenCoordinatePixel"><rect codeLine="27" fill="#F1F1F1" height="129.4844" id="ScreenCoordinatePixel" rx="2.5" ry="2.5" style="stroke:#181818;stroke-width:0.5;" width="231" x="234" y="233.2969"/><ellipse cx="268.35" cy="249.2969" fill="#F1F1F1" rx="11" ry="11" style="stroke:#181818;stroke-width:1.0;"/><path d="M267.8344,249.8594 Q265.975,249.1563 265.3188,248.3906 Q264.6781,247.6094 264.6781,246.2969 Q264.6781,244.6094 265.7563,243.6406 Q266.8344,242.6719 268.7094,242.6719 Q269.5688,242.6719 270.4125,242.875 Q271.2719,243.0625 272.1156,243.4531 L272.1156,245.8438 Q271.3344,245.2813 270.5063,245 Q269.6938,244.7031 268.8969,244.7031 Q268.0219,244.7031 267.5375,245.0625 Q267.0688,245.4219 267.0688,246.0781 Q267.0688,246.5938 267.4125,246.9375 Q267.7563,247.2656 268.85,247.6719 L269.9125,248.0781 Q271.3969,248.625 272.1,249.5313 Q272.8188,250.4375 272.8188,251.8125 Q272.8188,253.6875 271.7094,254.6094 Q270.6,255.5313 268.35,255.5313 Q267.4281,255.5313 266.5063,255.3125 Q265.5844,255.0938 264.725,254.6719 L264.725,252.1406 Q265.6938,252.8281 266.6156,253.1719 Q267.5375,253.5156 268.4281,253.5156 Q269.3344,253.5156 269.8344,253.1094 Q270.3344,252.6875 270.3344,251.9531 Q270.3344,251.3906 269.9906,250.9844 Q269.6625,250.5625 269.0375,250.3125 L267.8344,249.8594 Z " fill="#000000"/><text fill="#000000" font-family="sans-serif" font-size="14" lengthAdjust="spacing" textLength="156" x="286.65" y="254.1436">ScreenCoordinatePixel</text><line style="stroke:#181818;stroke-width:0.5;" x1="235" x2="464" y1="265.2969" y2="265.2969"/><text fill="#000000" font-family="sans-serif" font-size="14" lengthAdjust="spacing" textLength="219" x="240" y="282.292">CoordinateReference reference</text><text fill="#000000" font-family="sans-serif" font-size="14" lengthAdjust="spacing" textLength="143" x="240" y="298.5889">uint16_t start_x_pixel</text><text fill="#000000" font-family="sans-serif" font-size="14" lengthAdjust="spacing" textLength="143" x="240" y="314.8857">uint16_t start_y_pixel</text><text fill="#000000" font-family="sans-serif" font-size="14" lengthAdjust="spacing" textLength="135" x="240" y="331.1826">uint16_t width_pixel</text><text fill="#000000" font-family="sans-serif" font-size="14" lengthAdjust="spacing" textLength="142" x="240" y="347.4795">uint16_t height_pixel</text><line style="stroke:#181818;stroke-width:0.5;" x1="235" x2="464" y1="354.7813" y2="354.7813"/></g><!--MD5=[6e1c38769d1ba9dc742fd1e46d62ecc8]
class RenderData--><g id="elem_RenderData"><rect codeLine="36" fill="#F1F1F1" height="96.8906" id="RenderData" rx="2.5" ry="2.5" style="stroke:#181818;stroke-width:0.5;" width="293" x="7" y="60.2969"/><ellipse cx="107.75" cy="76.2969" fill="#F1F1F1" rx="11" ry="11" style="stroke:#181818;stroke-width:1.0;"/><path d="M107.2344,76.8594 Q105.375,76.1563 104.7188,75.3906 Q104.0781,74.6094 104.0781,73.2969 Q104.0781,71.6094 105.1563,70.6406 Q106.2344,69.6719 108.1094,69.6719 Q108.9688,69.6719 109.8125,69.875 Q110.6719,70.0625 111.5156,70.4531 L111.5156,72.8438 Q110.7344,72.2813 109.9063,72 Q109.0938,71.7031 108.2969,71.7031 Q107.4219,71.7031 106.9375,72.0625 Q106.4688,72.4219 106.4688,73.0781 Q106.4688,73.5938 106.8125,73.9375 Q107.1563,74.2656 108.25,74.6719 L109.3125,75.0781 Q110.7969,75.625 111.5,76.5313 Q112.2188,77.4375 112.2188,78.8125 Q112.2188,80.6875 111.1094,81.6094 Q110,82.5313 107.75,82.5313 Q106.8281,82.5313 105.9063,82.3125 Q104.9844,82.0938 104.125,81.6719 L104.125,79.1406 Q105.0938,79.8281 106.0156,80.1719 Q106.9375,80.5156 107.8281,80.5156 Q108.7344,80.5156 109.2344,80.1094 Q109.7344,79.6875 109.7344,78.9531 Q109.7344,78.3906 109.3906,77.9844 Q109.0625,77.5625 108.4375,77.3125 L107.2344,76.8594 Z " fill="#000000"/><text fill="#000000" font-family="sans-serif" font-size="14" lengthAdjust="spacing" textLength="83" x="128.25" y="81.1436">RenderData</text><line style="stroke:#181818;stroke-width:0.5;" x1="8" x2="299" y1="92.2969" y2="92.2969"/><ellipse cx="18" cy="105.9453" fill="none" rx="3" ry="3" style="stroke:#038048;stroke-width:1.0;"/><text fill="#000000" font-family="sans-serif" font-size="14" lengthAdjust="spacing" textLength="267" x="27" y="109.292">ScreenCoordinatePixel startCoordinate</text><ellipse cx="18" cy="122.2422" fill="none" rx="3" ry="3" style="stroke:#038048;stroke-width:1.0;"/><text fill="#000000" font-family="sans-serif" font-size="14" lengthAdjust="spacing" textLength="74" x="27" y="125.5889">Color color</text><ellipse cx="18" cy="138.5391" fill="none" rx="3" ry="3" style="stroke:#038048;stroke-width:1.0;"/><text fill="#000000" font-family="sans-serif" font-size="14" lengthAdjust="spacing" textLength="105" x="27" y="141.8857">std::string data</text><line style="stroke:#181818;stroke-width:0.5;" x1="8" x2="299" y1="149.1875" y2="149.1875"/></g><!--MD5=[7004124491af33556f8cdbac8f367da4]
class WindowSize--><g id="elem_WindowSize"><rect codeLine="41" fill="#F1F1F1" height="113.1875" id="WindowSize" rx="2.5" ry="2.5" style="stroke:#181818;stroke-width:0.5;" width="747" x="439" y="52.2969"/><ellipse cx="766.75" cy="68.2969" fill="#ADD1B2" rx="11" ry="11" style="stroke:#181818;stroke-width:1.0;"/><path d="M769.7188,73.9375 Q769.1406,74.2344 768.5,74.375 Q767.8594,74.5313 767.1563,74.5313 Q764.6563,74.5313 763.3281,72.8906 Q762.0156,71.2344 762.0156,68.1094 Q762.0156,64.9844 763.3281,63.3281 Q764.6563,61.6719 767.1563,61.6719 Q767.8594,61.6719 768.5,61.8281 Q769.1563,61.9844 769.7188,62.2813 L769.7188,65 Q769.0938,64.4219 768.5,64.1563 Q767.9063,63.875 767.2813,63.875 Q765.9375,63.875 765.25,64.9531 Q764.5625,66.0156 764.5625,68.1094 Q764.5625,70.2031 765.25,71.2813 Q765.9375,72.3438 767.2813,72.3438 Q767.9063,72.3438 768.5,72.0781 Q769.0938,71.7969 769.7188,71.2188 L769.7188,73.9375 Z " fill="#000000"/><text fill="#000000" font-family="sans-serif" font-size="14" lengthAdjust="spacing" textLength="83" x="787.25" y="73.1436">WindowSize</text><line style="stroke:#181818;stroke-width:0.5;" x1="440" x2="1185" y1="84.2969" y2="84.2969"/><ellipse cx="450" cy="97.9453" fill="none" rx="3" ry="3" style="stroke:#038048;stroke-width:1.0;"/><text fill="#000000" font-family="sans-serif" font-size="14" lengthAdjust="spacing" textLength="239" x="459" y="101.292">ScreenCoordinatePerc coordinate;</text><ellipse cx="450" cy="114.2422" fill="none" rx="3" ry="3" style="stroke:#038048;stroke-width:1.0;"/><text fill="#000000" font-family="sans-serif" font-size="14" lengthAdjust="spacing" textLength="179" x="459" y="117.5889">uint16_t min_height_pixel;</text><ellipse cx="450" cy="130.5391" fill="none" rx="3" ry="3" style="stroke:#038048;stroke-width:1.0;"/><text fill="#000000" font-family="sans-serif" font-size="14" lengthAdjust="spacing" textLength="172" x="459" y="133.8857">uint16_t min_width_pixel;</text><line style="stroke:#181818;stroke-width:0.5;" x1="440" x2="1185" y1="141.1875" y2="141.1875"/><ellipse cx="450" cy="154.8359" fill="#84BE84" rx="3" ry="3" style="stroke:#038048;stroke-width:1.0;"/><text fill="#000000" font-family="sans-serif" font-size="14" lengthAdjust="spacing" text-decoration="underline" textLength="721" x="459" y="158.1826">ScreenCoordinatePixel convert(ScreenCoordinatePerc coord_perc,uint16_t width_pix,uint16_t height_pix)</text></g><!--MD5=[7ab3d7dd2d17491a5c8ba6492a09bcd3]
link ScreenCoordinatePerc to CoordinateReference--><g id="link_ScreenCoordinatePerc_CoordinateReference"><path codeLine="26" d="M623.2,362.5169 C596.28,381.5069 567.45,401.8569 542.94,419.1569 " fill="none" id="ScreenCoordinatePerc-to-CoordinateReference" style="stroke:#181818;stroke-width:1.0;"/><polygon fill="#181818" points="538.73,422.1269,548.3889,420.2019,542.814,419.2423,543.7737,413.6675,538.73,422.1269" style="stroke:#181818;stroke-width:1.0;"/></g><!--MD5=[41b823d07e32bbd7cfe914fae5930226]
link ScreenCoordinatePixel to CoordinateReference--><g id="link_ScreenCoordinatePixel_CoordinateReference"><path codeLine="35" d="M401.68,362.7469 C416.71,381.1669 432.76,400.8369 446.57,417.7569 " fill="none" id="ScreenCoordinatePixel-to-CoordinateReference" style="stroke:#181818;stroke-width:1.0;"/><polygon fill="#181818" points="450.03,421.9969,447.421,412.4999,446.8615,418.129,441.2324,417.5695,450.03,421.9969" style="stroke:#181818;stroke-width:1.0;"/></g><!--MD5=[3d5d1eae74c23e1a8244c802cbe83ac8]
link WindowSize to ScreenCoordinatePerc--><g id="link_WindowSize_ScreenCoordinatePerc"><path codeLine="49" d="M783.06,165.3969 C772.57,185.2169 760.63,207.7669 749.64,228.5269 " fill="none" id="WindowSize-to-ScreenCoordinatePerc" style="stroke:#181818;stroke-width:1.0;"/><polygon fill="#181818" points="747.17,233.2069,754.9225,227.1324,749.514,228.7904,747.8561,223.3819,747.17,233.2069" style="stroke:#181818;stroke-width:1.0;"/></g><!--MD5=[cf77ac3d2a33affe8b5724bd8fbdd360]
link RenderData to ScreenCoordinatePixel--><g id="link_RenderData_ScreenCoordinatePixel"><path codeLine="50" d="M203.47,157.4669 C226.38,179.3369 253.96,205.6369 278.94,229.4769 " fill="none" id="RenderData-to-ScreenCoordinatePixel" style="stroke:#181818;stroke-width:1.0;"/><polygon fill="#181818" points="282.61,232.9769,278.8532,223.8727,278.99,229.5279,273.3348,229.6647,282.61,232.9769" style="stroke:#181818;stroke-width:1.0;"/></g><!--MD5=[95b4be2a6ae046352e273d83e68f1c3a]
link RenderData to Color--><g id="link_RenderData_Color"><path codeLine="51" d="M300.31,108.7969 C310.29,108.7969 320.26,108.7969 330.23,108.7969 " fill="none" id="RenderData-to-Color" style="stroke:#181818;stroke-width:1.0;"/><polygon fill="#181818" points="335.45,108.7969,326.45,104.7969,330.45,108.7969,326.45,112.7969,335.45,108.7969" style="stroke:#181818;stroke-width:1.0;"/></g><!--MD5=[089c06a960473980b9efb512f9004a54]
@startuml
title "System Monitor Data Structures"
enum CoordinateReference {
    GLOBAL
    TO_PARENT
}
enum KeyMap { 
    KEY_q
    KEY_Q
    KEY_TAB 
}

enum Color {
    RED
    GREEN
    BLUE
    WHITE
    BLACK
}
struct ScreenCoordinatePerc {
    CoordinateReference reference
    double start_x_perc
    double start_y_perc
    double width_perc
    double height_perc
}
ScreenCoordinatePerc - -> CoordinateReference
struct ScreenCoordinatePixel {
    CoordinateReference reference
    uint16_t start_x_pixel
    uint16_t start_y_pixel
    uint16_t width_pixel
    uint16_t height_pixel
}

ScreenCoordinatePixel - -> CoordinateReference
struct RenderData {
    +ScreenCoordinatePixel startCoordinate
    +Color color
    +std::string data
}
class WindowSize
{

    +{static} ScreenCoordinatePixel convert(ScreenCoordinatePerc coord_perc,uint16_t width_pix,uint16_t height_pix)
    +ScreenCoordinatePerc coordinate;
    +uint16_t min_height_pixel;
    +uint16_t min_width_pixel;
}
WindowSize - -> ScreenCoordinatePerc
RenderData - -> ScreenCoordinatePixel
RenderData -> Color



@enduml

PlantUML version 1.2022.8(Sun Sep 25 04:00:33 CDT 2022)
(GPL source distribution)
Java Runtime: OpenJDK Runtime Environment
JVM: OpenJDK 64-Bit Server VM
Default Encoding: UTF-8
Language: en
Country: US
--></g></svg>