<?xml version="1.0" encoding="UTF-8" standalone="no"?><svg xmlns="http://www.w3.org/2000/svg" xmlns:xlink="http://www.w3.org/1999/xlink" contentStyleType="text/css" height="397px" preserveAspectRatio="none" style="width:284px;height:397px;background:#FFFFFF;" version="1.1" viewBox="0 0 284 397" width="284px" zoomAndPan="magnify"><defs/><g><rect fill="none" height="26.2969" id="_title" style="stroke:none;stroke-width:1.0;" width="163" x="53.5" y="5"/><text fill="#000000" font-family="sans-serif" font-size="14" font-weight="bold" lengthAdjust="spacing" textLength="153" x="58.5" y="22.9951">Field Class Diagram</text><!--MD5=[95336d68689b637997a71278dd570957]
class IField--><g id="elem_IField"><rect codeLine="2" fill="#F1F1F1" height="80.5938" id="IField" rx="2.5" ry="2.5" style="stroke:#181818;stroke-width:0.5;" width="239" x="22.5" y="44.2969"/><ellipse cx="119.75" cy="60.2969" fill="#B4A7E5" rx="11" ry="11" style="stroke:#181818;stroke-width:1.0;"/><path d="M115.6719,56.0625 L115.6719,53.9063 L123.0625,53.9063 L123.0625,56.0625 L120.5938,56.0625 L120.5938,64.1406 L123.0625,64.1406 L123.0625,66.2969 L115.6719,66.2969 L115.6719,64.1406 L118.1406,64.1406 L118.1406,56.0625 L115.6719,56.0625 Z " fill="#000000"/><text fill="#000000" font-family="sans-serif" font-size="14" font-style="italic" lengthAdjust="spacing" textLength="36" x="140.25" y="65.1436">IField</text><line style="stroke:#181818;stroke-width:0.5;" x1="23.5" x2="260.5" y1="76.2969" y2="76.2969"/><line style="stroke:#181818;stroke-width:0.5;" x1="23.5" x2="260.5" y1="84.2969" y2="84.2969"/><ellipse cx="33.5" cy="97.9453" fill="#84BE84" rx="3" ry="3" style="stroke:#038048;stroke-width:1.0;"/><text fill="#000000" font-family="sans-serif" font-size="14" font-style="italic" lengthAdjust="spacing" textLength="152" x="42.5" y="101.292">RenderData getData()</text><ellipse cx="33.5" cy="114.2422" fill="#84BE84" rx="3" ry="3" style="stroke:#038048;stroke-width:1.0;"/><text fill="#000000" font-family="sans-serif" font-size="14" font-style="italic" lengthAdjust="spacing" textLength="213" x="42.5" y="117.5889">void setData(RenderData data)</text></g><!--MD5=[3639123c1e91bcaa09f071ce5497fbc5]
class BaseField--><g id="elem_BaseField"><rect codeLine="7" fill="#F1F1F1" height="96.8906" id="BaseField" rx="2.5" ry="2.5" style="stroke:#181818;stroke-width:0.5;" width="270" x="7" y="185.2969"/><ellipse cx="104.75" cy="201.2969" fill="#A9DCDF" rx="11" ry="11" style="stroke:#181818;stroke-width:1.0;"/><path d="M104.8594,196.6406 L103.7031,201.7188 L106.0313,201.7188 L104.8594,196.6406 Z M103.375,194.4063 L106.3594,194.4063 L109.7188,206.7969 L107.2656,206.7969 L106.5,203.7344 L103.2188,203.7344 L102.4688,206.7969 L100.0313,206.7969 L103.375,194.4063 Z " fill="#000000"/><text fill="#000000" font-family="sans-serif" font-size="14" font-style="italic" lengthAdjust="spacing" textLength="66" x="125.25" y="206.1436">BaseField</text><line style="stroke:#181818;stroke-width:0.5;" x1="8" x2="276" y1="217.2969" y2="217.2969"/><rect fill="none" height="6" style="stroke:#C82930;stroke-width:1.0;" width="6" x="15" y="227.9453"/><text fill="#000000" font-family="sans-serif" font-size="14" lengthAdjust="spacing" textLength="117" x="27" y="234.292">RenderData data</text><line style="stroke:#181818;stroke-width:0.5;" x1="8" x2="276" y1="241.5938" y2="241.5938"/><ellipse cx="18" cy="255.2422" fill="#84BE84" rx="3" ry="3" style="stroke:#038048;stroke-width:1.0;"/><text fill="#000000" font-family="sans-serif" font-size="14" lengthAdjust="spacing" textLength="152" x="27" y="258.5889">RenderData getData()</text><ellipse cx="18" cy="271.5391" fill="#84BE84" rx="3" ry="3" style="stroke:#038048;stroke-width:1.0;"/><text fill="#000000" font-family="sans-serif" font-size="14" lengthAdjust="spacing" textLength="244" x="27" y="274.8857">void setData(RenderData newData)</text></g><!--MD5=[502d45768c3ca0f57d6c902ab2acde02]
class GenericField--><g id="elem_GenericField"><rect codeLine="14" fill="#F1F1F1" height="48" id="GenericField" rx="2.5" ry="2.5" style="stroke:#181818;stroke-width:0.5;" width="118" x="83" y="342.2969"/><ellipse cx="98" cy="358.2969" fill="#ADD1B2" rx="11" ry="11" style="stroke:#181818;stroke-width:1.0;"/><path d="M100.9688,363.9375 Q100.3906,364.2344 99.75,364.375 Q99.1094,364.5313 98.4063,364.5313 Q95.9063,364.5313 94.5781,362.8906 Q93.2656,361.2344 93.2656,358.1094 Q93.2656,354.9844 94.5781,353.3281 Q95.9063,351.6719 98.4063,351.6719 Q99.1094,351.6719 99.75,351.8281 Q100.4063,351.9844 100.9688,352.2813 L100.9688,355 Q100.3438,354.4219 99.75,354.1563 Q99.1563,353.875 98.5313,353.875 Q97.1875,353.875 96.5,354.9531 Q95.8125,356.0156 95.8125,358.1094 Q95.8125,360.2031 96.5,361.2813 Q97.1875,362.3438 98.5313,362.3438 Q99.1563,362.3438 99.75,362.0781 Q100.3438,361.7969 100.9688,361.2188 L100.9688,363.9375 Z " fill="#000000"/><text fill="#000000" font-family="sans-serif" font-size="14" lengthAdjust="spacing" textLength="86" x="112" y="363.1436">GenericField</text><line style="stroke:#181818;stroke-width:0.5;" x1="84" x2="200" y1="374.2969" y2="374.2969"/><line style="stroke:#181818;stroke-width:0.5;" x1="84" x2="200" y1="382.2969" y2="382.2969"/></g><!--MD5=[d83e787c8115edd050f56caa88131ab7]
reverse link IField to BaseField--><g id="link_IField_BaseField"><path codeLine="13" d="M142,146.0069 C142,159.0469 142,172.6569 142,185.1369 " fill="none" id="IField-backto-BaseField" style="stroke:#181818;stroke-width:1.0;"/><polygon fill="none" points="135,145.5769,142,125.5769,149,145.5769,135,145.5769" style="stroke:#181818;stroke-width:1.0;"/></g><!--MD5=[d37626c409d3d2e7a369bcd727459543]
reverse link BaseField to GenericField--><g id="link_BaseField_GenericField"><path codeLine="17" d="M142,303.0269 C142,317.0569 142,330.8969 142,341.9569 " fill="none" id="BaseField-backto-GenericField" style="stroke:#181818;stroke-width:1.0;"/><polygon fill="none" points="135,302.6469,142,282.6469,149,302.6469,135,302.6469" style="stroke:#181818;stroke-width:1.0;"/></g><!--MD5=[afc8e6b8896f174adcd3af65de24bc34]
@startuml
title "Field Class Diagram"
interface IField {
    +{abstract} RenderData getData()
    +{abstract} void setData(RenderData data)

}
abstract BaseField {
    +RenderData getData()
    +void setData(RenderData newData)
    -RenderData data

}
IField <|- - BaseField
class GenericField {

}
BaseField <|- - GenericField
@enduml

PlantUML version 1.2022.8(Sun Sep 25 04:00:33 CDT 2022)
(GPL source distribution)
Java Runtime: OpenJDK Runtime Environment
JVM: OpenJDK 64-Bit Server VM
Default Encoding: UTF-8
Language: en
Country: US
--></g></svg>