<?xml version="1.0" encoding="UTF-8" standalone="no"?><svg xmlns="http://www.w3.org/2000/svg" xmlns:xlink="http://www.w3.org/1999/xlink" contentStyleType="text/css" height="397px" preserveAspectRatio="none" style="width:332px;height:397px;background:#FFFFFF;" version="1.1" viewBox="0 0 332 397" width="332px" zoomAndPan="magnify"><defs/><g><rect fill="none" height="26.2969" id="_title" style="stroke:none;stroke-width:1.0;" width="182" x="68.25" y="5"/><text fill="#000000" font-family="sans-serif" font-size="14" font-weight="bold" lengthAdjust="spacing" textLength="172" x="73.25" y="22.9951">Record Class Diagram</text><!--MD5=[4e2052982438a94dcb7d69f15a0ee941]
class IRecord--><g id="elem_IRecord"><rect codeLine="2" fill="#F1F1F1" height="80.5938" id="IRecord" rx="2.5" ry="2.5" style="stroke:#181818;stroke-width:0.5;" width="214" x="7.5" y="44.2969"/><ellipse cx="83.25" cy="60.2969" fill="#B4A7E5" rx="11" ry="11" style="stroke:#181818;stroke-width:1.0;"/><path d="M79.1719,56.0625 L79.1719,53.9063 L86.5625,53.9063 L86.5625,56.0625 L84.0938,56.0625 L84.0938,64.1406 L86.5625,64.1406 L86.5625,66.2969 L79.1719,66.2969 L79.1719,64.1406 L81.6406,64.1406 L81.6406,56.0625 L79.1719,56.0625 Z " fill="#000000"/><text fill="#000000" font-family="sans-serif" font-size="14" font-style="italic" lengthAdjust="spacing" textLength="54" x="103.75" y="65.1436">IRecord</text><line style="stroke:#181818;stroke-width:0.5;" x1="8.5" x2="220.5" y1="76.2969" y2="76.2969"/><line style="stroke:#181818;stroke-width:0.5;" x1="8.5" x2="220.5" y1="84.2969" y2="84.2969"/><ellipse cx="18.5" cy="97.9453" fill="#84BE84" rx="3" ry="3" style="stroke:#038048;stroke-width:1.0;"/><text fill="#000000" font-family="sans-serif" font-size="14" font-style="italic" lengthAdjust="spacing" textLength="122" x="27.5" y="101.292">IField[] getFields()</text><ellipse cx="18.5" cy="114.2422" fill="#84BE84" rx="3" ry="3" style="stroke:#038048;stroke-width:1.0;"/><text fill="#000000" font-family="sans-serif" font-size="14" font-style="italic" lengthAdjust="spacing" textLength="188" x="27.5" y="117.5889">void setFields(IField[] fields)</text></g><!--MD5=[03210f0663aa32ac8ef4288f527763d5]
class BaseRecord--><g id="elem_BaseRecord"><rect codeLine="7" fill="#F1F1F1" height="96.8906" id="BaseRecord" rx="2.5" ry="2.5" style="stroke:#181818;stroke-width:0.5;" width="215" x="7" y="185.2969"/><ellipse cx="68.25" cy="201.2969" fill="#A9DCDF" rx="11" ry="11" style="stroke:#181818;stroke-width:1.0;"/><path d="M68.3594,196.6406 L67.2031,201.7188 L69.5313,201.7188 L68.3594,196.6406 Z M66.875,194.4063 L69.8594,194.4063 L73.2188,206.7969 L70.7656,206.7969 L70,203.7344 L66.7188,203.7344 L65.9688,206.7969 L63.5313,206.7969 L66.875,194.4063 Z " fill="#000000"/><text fill="#000000" font-family="sans-serif" font-size="14" font-style="italic" lengthAdjust="spacing" textLength="84" x="88.75" y="206.1436">BaseRecord</text><line style="stroke:#181818;stroke-width:0.5;" x1="8" x2="221" y1="217.2969" y2="217.2969"/><rect fill="none" height="6" style="stroke:#C82930;stroke-width:1.0;" width="6" x="15" y="227.9453"/><text fill="#000000" font-family="sans-serif" font-size="14" lengthAdjust="spacing" textLength="85" x="27" y="234.292">IField[] fields</text><line style="stroke:#181818;stroke-width:0.5;" x1="8" x2="221" y1="241.5938" y2="241.5938"/><ellipse cx="18" cy="255.2422" fill="#84BE84" rx="3" ry="3" style="stroke:#038048;stroke-width:1.0;"/><text fill="#000000" font-family="sans-serif" font-size="14" lengthAdjust="spacing" textLength="122" x="27" y="258.5889">IField[] getFields()</text><ellipse cx="18" cy="271.5391" fill="#84BE84" rx="3" ry="3" style="stroke:#038048;stroke-width:1.0;"/><text fill="#000000" font-family="sans-serif" font-size="14" lengthAdjust="spacing" textLength="189" x="27" y="274.8857">void setFields(IField[] fields)</text></g><!--MD5=[7d318665c3552718c392c4a4705a3c2c]
class GenericRecord--><g id="elem_GenericRecord"><rect codeLine="13" fill="#F1F1F1" height="48" id="GenericRecord" rx="2.5" ry="2.5" style="stroke:#181818;stroke-width:0.5;" width="136" x="46.5" y="342.2969"/><ellipse cx="61.5" cy="358.2969" fill="#ADD1B2" rx="11" ry="11" style="stroke:#181818;stroke-width:1.0;"/><path d="M64.4688,363.9375 Q63.8906,364.2344 63.25,364.375 Q62.6094,364.5313 61.9063,364.5313 Q59.4063,364.5313 58.0781,362.8906 Q56.7656,361.2344 56.7656,358.1094 Q56.7656,354.9844 58.0781,353.3281 Q59.4063,351.6719 61.9063,351.6719 Q62.6094,351.6719 63.25,351.8281 Q63.9063,351.9844 64.4688,352.2813 L64.4688,355 Q63.8438,354.4219 63.25,354.1563 Q62.6563,353.875 62.0313,353.875 Q60.6875,353.875 60,354.9531 Q59.3125,356.0156 59.3125,358.1094 Q59.3125,360.2031 60,361.2813 Q60.6875,362.3438 62.0313,362.3438 Q62.6563,362.3438 63.25,362.0781 Q63.8438,361.7969 64.4688,361.2188 L64.4688,363.9375 Z " fill="#000000"/><text fill="#000000" font-family="sans-serif" font-size="14" lengthAdjust="spacing" textLength="104" x="75.5" y="363.1436">GenericRecord</text><line style="stroke:#181818;stroke-width:0.5;" x1="47.5" x2="181.5" y1="374.2969" y2="374.2969"/><line style="stroke:#181818;stroke-width:0.5;" x1="47.5" x2="181.5" y1="382.2969" y2="382.2969"/></g><!--MD5=[95336d68689b637997a71278dd570957]
class IField--><g id="elem_IField"><rect codeLine="16" fill="#F1F1F1" height="48" id="IField" rx="2.5" ry="2.5" style="stroke:#181818;stroke-width:0.5;" width="68" x="257.5" y="209.7969"/><ellipse cx="272.5" cy="225.7969" fill="#B4A7E5" rx="11" ry="11" style="stroke:#181818;stroke-width:1.0;"/><path d="M268.4219,221.5625 L268.4219,219.4063 L275.8125,219.4063 L275.8125,221.5625 L273.3438,221.5625 L273.3438,229.6406 L275.8125,229.6406 L275.8125,231.7969 L268.4219,231.7969 L268.4219,229.6406 L270.8906,229.6406 L270.8906,221.5625 L268.4219,221.5625 Z " fill="#000000"/><text fill="#000000" font-family="sans-serif" font-size="14" font-style="italic" lengthAdjust="spacing" textLength="36" x="286.5" y="230.6436">IField</text><line style="stroke:#181818;stroke-width:0.5;" x1="258.5" x2="324.5" y1="241.7969" y2="241.7969"/><line style="stroke:#181818;stroke-width:0.5;" x1="258.5" x2="324.5" y1="249.7969" y2="249.7969"/></g><!--MD5=[8780c47470019f4fe85dc528ef8e38a7]
reverse link IRecord to BaseRecord--><g id="link_IRecord_BaseRecord"><path codeLine="17" d="M114.5,146.0069 C114.5,159.0469 114.5,172.6569 114.5,185.1369 " fill="none" id="IRecord-backto-BaseRecord" style="stroke:#181818;stroke-width:1.0;"/><polygon fill="none" points="107.5,145.5769,114.5,125.5769,121.5,145.5769,107.5,145.5769" style="stroke:#181818;stroke-width:1.0;"/></g><!--MD5=[24f2690b5cea8b63529413a11568af43]
link BaseRecord to IField--><g id="link_BaseRecord_IField"><path codeLine="18" d="M222.01,233.7969 C229.36,233.7969 236.72,233.7969 244.07,233.7969 " fill="none" id="BaseRecord-to-IField" style="stroke:#181818;stroke-width:1.0;"/><polygon fill="#181818" points="257.3,233.7969,251.3,229.7969,245.3,233.7969,251.3,237.7969,257.3,233.7969" style="stroke:#181818;stroke-width:1.0;"/><text fill="#000000" font-family="sans-serif" font-size="13" lengthAdjust="spacing" textLength="7" x="242.5244" y="229.3306">*</text></g><!--MD5=[f7b8c1dc848559c6b0b21049d614960b]
reverse link BaseRecord to GenericRecord--><g id="link_BaseRecord_GenericRecord"><path codeLine="19" d="M114.5,303.0269 C114.5,317.0569 114.5,330.8969 114.5,341.9569 " fill="none" id="BaseRecord-backto-GenericRecord" style="stroke:#181818;stroke-width:1.0;"/><polygon fill="none" points="107.5,302.6469,114.5,282.6469,121.5,302.6469,107.5,302.6469" style="stroke:#181818;stroke-width:1.0;"/></g><!--MD5=[e1be38972a46f9945567e21a15acc57f]
@startuml
title "Record Class Diagram"
interface IRecord {
    +{abstract}IField[] getFields()
    +{abstract} void setFields(IField[] fields)
}

abstract BaseRecord {
    +IField[] getFields()
    +void setFields(IField[] fields)
    -IField[] fields

}
class GenericRecord {

}
interface IField {}
IRecord <|- - BaseRecord
BaseRecord -* "*" IField
BaseRecord <|- - GenericRecord
@enduml

PlantUML version 1.2022.8(Sun Sep 25 04:00:33 CDT 2022)
(GPL source distribution)
Java Runtime: OpenJDK Runtime Environment
JVM: OpenJDK 64-Bit Server VM
Default Encoding: UTF-8
Language: en
Country: US
--></g></svg>