<?xml version="1.0" encoding="UTF-8" standalone="no"?><svg xmlns="http://www.w3.org/2000/svg" xmlns:xlink="http://www.w3.org/1999/xlink" contentStyleType="text/css" height="162px" preserveAspectRatio="none" style="width:643px;height:162px;background:#FFFFFF;" version="1.1" viewBox="0 0 643 162" width="643px" zoomAndPan="magnify"><defs/><g><!--MD5=[429f762a80556c7e7ee6e6fa93c31c27]
class SystemMonitor--><g id="elem_SystemMonitor"><rect codeLine="1" fill="#F1F1F1" height="80.5938" id="SystemMonitor" rx="2.5" ry="2.5" style="stroke:#181818;stroke-width:0.5;" width="223" x="7" y="74.8"/><ellipse cx="62.75" cy="90.8" fill="#ADD1B2" rx="11" ry="11" style="stroke:#181818;stroke-width:1.0;"/><path d="M65.7188,96.4406 Q65.1406,96.7375 64.5,96.8781 Q63.8594,97.0344 63.1563,97.0344 Q60.6563,97.0344 59.3281,95.3938 Q58.0156,93.7375 58.0156,90.6125 Q58.0156,87.4875 59.3281,85.8313 Q60.6563,84.175 63.1563,84.175 Q63.8594,84.175 64.5,84.3313 Q65.1563,84.4875 65.7188,84.7844 L65.7188,87.5031 Q65.0938,86.925 64.5,86.6594 Q63.9063,86.3781 63.2813,86.3781 Q61.9375,86.3781 61.25,87.4563 Q60.5625,88.5188 60.5625,90.6125 Q60.5625,92.7063 61.25,93.7844 Q61.9375,94.8469 63.2813,94.8469 Q63.9063,94.8469 64.5,94.5813 Q65.0938,94.3 65.7188,93.7219 L65.7188,96.4406 Z " fill="#000000"/><text fill="#000000" font-family="sans-serif" font-size="14" lengthAdjust="spacing" textLength="103" x="83.25" y="95.6467">SystemMonitor</text><line style="stroke:#181818;stroke-width:0.5;" x1="8" x2="229" y1="106.8" y2="106.8"/><rect fill="none" height="6" style="stroke:#C82930;stroke-width:1.0;" width="6" x="15" y="117.4484"/><text fill="#000000" font-family="sans-serif" font-size="14" lengthAdjust="spacing" textLength="131" x="27" y="123.7951">IWindow[] windows</text><rect fill="none" height="6" style="stroke:#C82930;stroke-width:1.0;" width="6" x="15" y="133.7453"/><text fill="#000000" font-family="sans-serif" font-size="14" lengthAdjust="spacing" textLength="197" x="27" y="140.092">RenderEngine renderEngine</text><line style="stroke:#181818;stroke-width:0.5;" x1="8" x2="229" y1="147.3938" y2="147.3938"/></g><!--MD5=[42b29d70891112948960c3be85523e9d]
class RenderEngine--><g id="elem_RenderEngine"><rect codeLine="5" fill="#F1F1F1" height="64.2969" id="RenderEngine" rx="2.5" ry="2.5" style="stroke:#181818;stroke-width:0.5;" width="246" x="265.5" y="83.3"/><ellipse cx="334.75" cy="99.3" fill="#ADD1B2" rx="11" ry="11" style="stroke:#181818;stroke-width:1.0;"/><path d="M337.7188,104.9406 Q337.1406,105.2375 336.5,105.3781 Q335.8594,105.5344 335.1563,105.5344 Q332.6563,105.5344 331.3281,103.8938 Q330.0156,102.2375 330.0156,99.1125 Q330.0156,95.9875 331.3281,94.3313 Q332.6563,92.675 335.1563,92.675 Q335.8594,92.675 336.5,92.8313 Q337.1563,92.9875 337.7188,93.2844 L337.7188,96.0031 Q337.0938,95.425 336.5,95.1594 Q335.9063,94.8781 335.2813,94.8781 Q333.9375,94.8781 333.25,95.9563 Q332.5625,97.0188 332.5625,99.1125 Q332.5625,101.2063 333.25,102.2844 Q333.9375,103.3469 335.2813,103.3469 Q335.9063,103.3469 336.5,103.0813 Q337.0938,102.8 337.7188,102.2219 L337.7188,104.9406 Z " fill="#000000"/><text fill="#000000" font-family="sans-serif" font-size="14" lengthAdjust="spacing" textLength="99" x="355.25" y="104.1467">RenderEngine</text><line style="stroke:#181818;stroke-width:0.5;" x1="266.5" x2="510.5" y1="115.3" y2="115.3"/><line style="stroke:#181818;stroke-width:0.5;" x1="266.5" x2="510.5" y1="123.3" y2="123.3"/><ellipse cx="276.5" cy="136.9484" fill="#84BE84" rx="3" ry="3" style="stroke:#038048;stroke-width:1.0;"/><text fill="#000000" font-family="sans-serif" font-size="14" lengthAdjust="spacing" textLength="220" x="285.5" y="140.2951">bool update(RenderData[] data)</text></g><!--MD5=[b8f61cfc01756222e76bb30722f1edde]
class IWindow--><g id="elem_IWindow"><rect fill="#F1F1F1" height="48" id="IWindow" rx="2.5" ry="2.5" style="stroke:#181818;stroke-width:0.5;" width="89" x="547" y="91.3"/><ellipse cx="562" cy="107.3" fill="#ADD1B2" rx="11" ry="11" style="stroke:#181818;stroke-width:1.0;"/><path d="M564.9688,112.9406 Q564.3906,113.2375 563.75,113.3781 Q563.1094,113.5344 562.4063,113.5344 Q559.9063,113.5344 558.5781,111.8938 Q557.2656,110.2375 557.2656,107.1125 Q557.2656,103.9875 558.5781,102.3313 Q559.9063,100.675 562.4063,100.675 Q563.1094,100.675 563.75,100.8313 Q564.4063,100.9875 564.9688,101.2844 L564.9688,104.0031 Q564.3438,103.425 563.75,103.1594 Q563.1563,102.8781 562.5313,102.8781 Q561.1875,102.8781 560.5,103.9563 Q559.8125,105.0188 559.8125,107.1125 Q559.8125,109.2063 560.5,110.2844 Q561.1875,111.3469 562.5313,111.3469 Q563.1563,111.3469 563.75,111.0813 Q564.3438,110.8 564.9688,110.2219 L564.9688,112.9406 Z " fill="#000000"/><text fill="#000000" font-family="sans-serif" font-size="14" lengthAdjust="spacing" textLength="57" x="576" y="112.1467">IWindow</text><line style="stroke:#181818;stroke-width:0.5;" x1="548" x2="635" y1="123.3" y2="123.3"/><line style="stroke:#181818;stroke-width:0.5;" x1="548" x2="635" y1="131.3" y2="131.3"/></g><!--MD5=[c1e16cb9c9f96660ba750e7efe953534]
link SystemMonitor to IWindow--><g id="link_SystemMonitor_IWindow"><path codeLine="8" d="M187.07,74.73 C211.19,62.6 239.01,50.92 266,44.8 C372.63,20.63 409.78,6 512,44.8 C531.76,52.3 549.75,67.2 563.61,81.39 " fill="none" id="SystemMonitor-to-IWindow" style="stroke:#181818;stroke-width:1.0;"/><polygon fill="#181818" points="572.51,90.99,571.3658,83.8702,564.3537,82.188,565.4979,89.3078,572.51,90.99" style="stroke:#181818;stroke-width:1.0;"/><text fill="#000000" font-family="sans-serif" font-size="13" lengthAdjust="spacing" textLength="7" x="560.0281" y="80.3194">*</text></g><!--MD5=[05ede1007009c63dace225a333fa1649]
link SystemMonitor to RenderEngine--><g id="link_SystemMonitor_RenderEngine"><path codeLine="9" d="M230.03,115.3 C240.05,115.3 250.06,115.3 260.08,115.3 " fill="none" id="SystemMonitor-to-RenderEngine" style="stroke:#181818;stroke-width:1.0;"/><polygon fill="#181818" points="265.32,115.3,256.32,111.3,260.32,115.3,256.32,119.3,265.32,115.3" style="stroke:#181818;stroke-width:1.0;"/></g><!--MD5=[2449f6a2e6cd0731689cf4b39db4de18]
@startuml
class SystemMonitor {
    -IWindow[] windows
    -RenderEngine renderEngine
}
class RenderEngine {
    +bool update(RenderData[] data)
}
SystemMonitor -* "*" IWindow
SystemMonitor -> RenderEngine

@enduml

PlantUML version 1.2022.8(Sun Sep 25 04:00:33 CDT 2022)
(GPL source distribution)
Java Runtime: OpenJDK Runtime Environment
JVM: OpenJDK 64-Bit Server VM
Default Encoding: UTF-8
Language: en
Country: US
--></g></svg>