<?xml version="1.0" encoding="UTF-8" standalone="no"?><svg xmlns="http://www.w3.org/2000/svg" xmlns:xlink="http://www.w3.org/1999/xlink" contentStyleType="text/css" height="500px" preserveAspectRatio="none" style="width:875px;height:500px;background:#FFFFFF;" version="1.1" viewBox="0 0 875 500" width="875px" zoomAndPan="magnify"><defs/><g><!--MD5=[b8f61cfc01756222e76bb30722f1edde]
class IWindow--><g id="elem_IWindow"><rect codeLine="1" fill="#F1F1F1" height="129.4844" id="IWindow" rx="2.5" ry="2.5" style="stroke:#181818;stroke-width:0.5;" width="268" x="328.5" y="7"/><ellipse cx="428.75" cy="23" fill="#B4A7E5" rx="11" ry="11" style="stroke:#181818;stroke-width:1.0;"/><path d="M424.6719,18.7656 L424.6719,16.6094 L432.0625,16.6094 L432.0625,18.7656 L429.5938,18.7656 L429.5938,26.8438 L432.0625,26.8438 L432.0625,29 L424.6719,29 L424.6719,26.8438 L427.1406,26.8438 L427.1406,18.7656 L424.6719,18.7656 Z " fill="#000000"/><text fill="#000000" font-family="sans-serif" font-size="14" font-style="italic" lengthAdjust="spacing" textLength="59" x="449.25" y="27.8467">IWindow</text><line style="stroke:#181818;stroke-width:0.5;" x1="329.5" x2="595.5" y1="39" y2="39"/><line style="stroke:#181818;stroke-width:0.5;" x1="329.5" x2="595.5" y1="47" y2="47"/><ellipse cx="339.5" cy="60.6484" fill="#84BE84" rx="3" ry="3" style="stroke:#038048;stroke-width:1.0;"/><text fill="#000000" font-family="sans-serif" font-size="14" font-style="italic" lengthAdjust="spacing" textLength="203" x="348.5" y="63.9951">WindowSize getWindowSize()</text><ellipse cx="339.5" cy="76.9453" fill="#84BE84" rx="3" ry="3" style="stroke:#038048;stroke-width:1.0;"/><text fill="#000000" font-family="sans-serif" font-size="14" font-style="italic" lengthAdjust="spacing" textLength="217" x="348.5" y="80.292">WindowType getWindowType()</text><ellipse cx="339.5" cy="93.2422" fill="#84BE84" rx="3" ry="3" style="stroke:#038048;stroke-width:1.0;"/><text fill="#000000" font-family="sans-serif" font-size="14" font-style="italic" lengthAdjust="spacing" textLength="158" x="348.5" y="96.5889">IRecord[] getRecords()</text><ellipse cx="339.5" cy="109.5391" fill="#84BE84" rx="3" ry="3" style="stroke:#038048;stroke-width:1.0;"/><text fill="#000000" font-family="sans-serif" font-size="14" font-style="italic" lengthAdjust="spacing" textLength="242" x="348.5" y="112.8857">bool setRecords(IRecord[] records)</text><ellipse cx="339.5" cy="125.8359" fill="#84BE84" rx="3" ry="3" style="stroke:#038048;stroke-width:1.0;"/><text fill="#000000" font-family="sans-serif" font-size="14" font-style="italic" lengthAdjust="spacing" textLength="207" x="348.5" y="129.1826">bool keyPressed(KeyMap key)</text></g><!--MD5=[0e191ab3be48b109908140ca50562039]
class BaseWindow--><g id="elem_BaseWindow"><rect codeLine="8" fill="#F1F1F1" height="80.5938" id="BaseWindow" rx="2.5" ry="2.5" style="stroke:#181818;stroke-width:0.5;" width="239" x="343" y="196"/><ellipse cx="413.75" cy="212" fill="#A9DCDF" rx="11" ry="11" style="stroke:#181818;stroke-width:1.0;"/><path d="M413.8594,207.3438 L412.7031,212.4219 L415.0313,212.4219 L413.8594,207.3438 Z M412.375,205.1094 L415.3594,205.1094 L418.7188,217.5 L416.2656,217.5 L415.5,214.4375 L412.2188,214.4375 L411.4688,217.5 L409.0313,217.5 L412.375,205.1094 Z " fill="#000000"/><text fill="#000000" font-family="sans-serif" font-size="14" font-style="italic" lengthAdjust="spacing" textLength="89" x="434.25" y="216.8467">BaseWindow</text><line style="stroke:#181818;stroke-width:0.5;" x1="344" x2="581" y1="228" y2="228"/><rect fill="none" height="6" style="stroke:#C82930;stroke-width:1.0;" width="6" x="351" y="238.6484"/><text fill="#000000" font-family="sans-serif" font-size="14" lengthAdjust="spacing" textLength="178" x="363" y="244.9951">WindowType windowType</text><line style="stroke:#181818;stroke-width:0.5;" x1="344" x2="581" y1="252.2969" y2="252.2969"/><ellipse cx="354" cy="265.9453" fill="#84BE84" rx="3" ry="3" style="stroke:#038048;stroke-width:1.0;"/><text fill="#000000" font-family="sans-serif" font-size="14" lengthAdjust="spacing" textLength="213" x="363" y="269.292">WindowType getWindowType()</text></g><!--MD5=[a1093b70d77895ee3f6c9e4650dd0cdf]
class WindowType--><g id="elem_WindowType"><rect codeLine="15" fill="#F1F1F1" height="129.4844" id="WindowType" rx="2.5" ry="2.5" style="stroke:#181818;stroke-width:0.5;" width="148" x="145.5" y="7"/><ellipse cx="173.1" cy="23" fill="#EB937F" rx="11" ry="11" style="stroke:#181818;stroke-width:1.0;"/><path d="M177.2094,29 L169.4906,29 L169.4906,16.6094 L177.2094,16.6094 L177.2094,18.7656 L171.9438,18.7656 L171.9438,21.4375 L176.7094,21.4375 L176.7094,23.5938 L171.9438,23.5938 L171.9438,26.8438 L177.2094,26.8438 L177.2094,29 Z " fill="#000000"/><text fill="#000000" font-family="sans-serif" font-size="14" lengthAdjust="spacing" textLength="88" x="189.9" y="27.8467">WindowType</text><line style="stroke:#181818;stroke-width:0.5;" x1="146.5" x2="292.5" y1="39" y2="39"/><text fill="#000000" font-family="sans-serif" font-size="14" lengthAdjust="spacing" textLength="67" x="151.5" y="55.9951">PROCESS</text><text fill="#000000" font-family="sans-serif" font-size="14" lengthAdjust="spacing" textLength="136" x="151.5" y="72.292">NODEDIAGNOSTICS</text><text fill="#000000" font-family="sans-serif" font-size="14" lengthAdjust="spacing" textLength="51" x="151.5" y="88.5889">DEVICE</text><text fill="#000000" font-family="sans-serif" font-size="14" lengthAdjust="spacing" textLength="55" x="151.5" y="104.8857">STATUS</text><text fill="#000000" font-family="sans-serif" font-size="14" lengthAdjust="spacing" textLength="32" x="151.5" y="121.1826">INFO</text><line style="stroke:#181818;stroke-width:0.5;" x1="146.5" x2="292.5" y1="128.4844" y2="128.4844"/></g><!--MD5=[c58e0bd06874a0c0f3955fe7b23323b6]
class WindowTable--><g id="elem_WindowTable"><rect codeLine="24" fill="#F1F1F1" height="48" id="WindowTable" rx="2.5" ry="2.5" style="stroke:#181818;stroke-width:0.5;" width="125" x="319" y="337"/><ellipse cx="334" cy="353" fill="#A9DCDF" rx="11" ry="11" style="stroke:#181818;stroke-width:1.0;"/><path d="M334.1094,348.3438 L332.9531,353.4219 L335.2813,353.4219 L334.1094,348.3438 Z M332.625,346.1094 L335.6094,346.1094 L338.9688,358.5 L336.5156,358.5 L335.75,355.4375 L332.4688,355.4375 L331.7188,358.5 L329.2813,358.5 L332.625,346.1094 Z " fill="#000000"/><text fill="#000000" font-family="sans-serif" font-size="14" font-style="italic" lengthAdjust="spacing" textLength="93" x="348" y="357.8467">WindowTable</text><line style="stroke:#181818;stroke-width:0.5;" x1="320" x2="443" y1="369" y2="369"/><line style="stroke:#181818;stroke-width:0.5;" x1="320" x2="443" y1="377" y2="377"/></g><!--MD5=[2506e8cbce3968d97a35ac88ada47e1e]
class WindowText--><g id="elem_WindowText"><rect codeLine="28" fill="#F1F1F1" height="48" id="WindowText" rx="2.5" ry="2.5" style="stroke:#181818;stroke-width:0.5;" width="118" x="588.5" y="337"/><ellipse cx="603.5" cy="353" fill="#A9DCDF" rx="11" ry="11" style="stroke:#181818;stroke-width:1.0;"/><path d="M603.6094,348.3438 L602.4531,353.4219 L604.7813,353.4219 L603.6094,348.3438 Z M602.125,346.1094 L605.1094,346.1094 L608.4688,358.5 L606.0156,358.5 L605.25,355.4375 L601.9688,355.4375 L601.2188,358.5 L598.7813,358.5 L602.125,346.1094 Z " fill="#000000"/><text fill="#000000" font-family="sans-serif" font-size="14" font-style="italic" lengthAdjust="spacing" textLength="86" x="617.5" y="357.8467">WindowText</text><line style="stroke:#181818;stroke-width:0.5;" x1="589.5" x2="705.5" y1="369" y2="369"/><line style="stroke:#181818;stroke-width:0.5;" x1="589.5" x2="705.5" y1="377" y2="377"/></g><!--MD5=[458eb4fcef45875e3ab99dd4ceacc1dc]
class DeviceWindow--><g id="elem_DeviceWindow"><rect codeLine="32" fill="#F1F1F1" height="48" id="DeviceWindow" rx="2.5" ry="2.5" style="stroke:#181818;stroke-width:0.5;" width="133" x="7" y="445"/><ellipse cx="22" cy="461" fill="#ADD1B2" rx="11" ry="11" style="stroke:#181818;stroke-width:1.0;"/><path d="M24.9688,466.6406 Q24.3906,466.9375 23.75,467.0781 Q23.1094,467.2344 22.4063,467.2344 Q19.9063,467.2344 18.5781,465.5938 Q17.2656,463.9375 17.2656,460.8125 Q17.2656,457.6875 18.5781,456.0313 Q19.9063,454.375 22.4063,454.375 Q23.1094,454.375 23.75,454.5313 Q24.4063,454.6875 24.9688,454.9844 L24.9688,457.7031 Q24.3438,457.125 23.75,456.8594 Q23.1563,456.5781 22.5313,456.5781 Q21.1875,456.5781 20.5,457.6563 Q19.8125,458.7188 19.8125,460.8125 Q19.8125,462.9063 20.5,463.9844 Q21.1875,465.0469 22.5313,465.0469 Q23.1563,465.0469 23.75,464.7813 Q24.3438,464.5 24.9688,463.9219 L24.9688,466.6406 Z " fill="#000000"/><text fill="#000000" font-family="sans-serif" font-size="14" lengthAdjust="spacing" textLength="101" x="36" y="465.8467">DeviceWindow</text><line style="stroke:#181818;stroke-width:0.5;" x1="8" x2="139" y1="477" y2="477"/><line style="stroke:#181818;stroke-width:0.5;" x1="8" x2="139" y1="485" y2="485"/></g><!--MD5=[83add7b9fa9224330e9e959a72788ec5]
class InfoWindow--><g id="elem_InfoWindow"><rect codeLine="36" fill="#F1F1F1" height="48" id="InfoWindow" rx="2.5" ry="2.5" style="stroke:#181818;stroke-width:0.5;" width="111" x="592" y="445"/><ellipse cx="607" cy="461" fill="#ADD1B2" rx="11" ry="11" style="stroke:#181818;stroke-width:1.0;"/><path d="M609.9688,466.6406 Q609.3906,466.9375 608.75,467.0781 Q608.1094,467.2344 607.4063,467.2344 Q604.9063,467.2344 603.5781,465.5938 Q602.2656,463.9375 602.2656,460.8125 Q602.2656,457.6875 603.5781,456.0313 Q604.9063,454.375 607.4063,454.375 Q608.1094,454.375 608.75,454.5313 Q609.4063,454.6875 609.9688,454.9844 L609.9688,457.7031 Q609.3438,457.125 608.75,456.8594 Q608.1563,456.5781 607.5313,456.5781 Q606.1875,456.5781 605.5,457.6563 Q604.8125,458.7188 604.8125,460.8125 Q604.8125,462.9063 605.5,463.9844 Q606.1875,465.0469 607.5313,465.0469 Q608.1563,465.0469 608.75,464.7813 Q609.3438,464.5 609.9688,463.9219 L609.9688,466.6406 Z " fill="#000000"/><text fill="#000000" font-family="sans-serif" font-size="14" lengthAdjust="spacing" textLength="79" x="621" y="465.8467">InfoWindow</text><line style="stroke:#181818;stroke-width:0.5;" x1="593" x2="702" y1="477" y2="477"/><line style="stroke:#181818;stroke-width:0.5;" x1="593" x2="702" y1="485" y2="485"/></g><!--MD5=[f6fed66d1020c036eff2a6685cac900a]
class NodeDiagnosticsWindow--><g id="elem_NodeDiagnosticsWindow"><rect codeLine="40" fill="#F1F1F1" height="48" id="NodeDiagnosticsWindow" rx="2.5" ry="2.5" style="stroke:#181818;stroke-width:0.5;" width="204" x="175.5" y="445"/><ellipse cx="190.5" cy="461" fill="#ADD1B2" rx="11" ry="11" style="stroke:#181818;stroke-width:1.0;"/><path d="M193.4688,466.6406 Q192.8906,466.9375 192.25,467.0781 Q191.6094,467.2344 190.9063,467.2344 Q188.4063,467.2344 187.0781,465.5938 Q185.7656,463.9375 185.7656,460.8125 Q185.7656,457.6875 187.0781,456.0313 Q188.4063,454.375 190.9063,454.375 Q191.6094,454.375 192.25,454.5313 Q192.9063,454.6875 193.4688,454.9844 L193.4688,457.7031 Q192.8438,457.125 192.25,456.8594 Q191.6563,456.5781 191.0313,456.5781 Q189.6875,456.5781 189,457.6563 Q188.3125,458.7188 188.3125,460.8125 Q188.3125,462.9063 189,463.9844 Q189.6875,465.0469 191.0313,465.0469 Q191.6563,465.0469 192.25,464.7813 Q192.8438,464.5 193.4688,463.9219 L193.4688,466.6406 Z " fill="#000000"/><text fill="#000000" font-family="sans-serif" font-size="14" lengthAdjust="spacing" textLength="172" x="204.5" y="465.8467">NodeDiagnosticsWindow</text><line style="stroke:#181818;stroke-width:0.5;" x1="176.5" x2="378.5" y1="477" y2="477"/><line style="stroke:#181818;stroke-width:0.5;" x1="176.5" x2="378.5" y1="485" y2="485"/></g><!--MD5=[a0f0c4aed4962e578fba1ead3631e8a3]
class ProcessWindow--><g id="elem_ProcessWindow"><rect codeLine="44" fill="#F1F1F1" height="48" id="ProcessWindow" rx="2.5" ry="2.5" style="stroke:#181818;stroke-width:0.5;" width="142" x="414.5" y="445"/><ellipse cx="429.5" cy="461" fill="#ADD1B2" rx="11" ry="11" style="stroke:#181818;stroke-width:1.0;"/><path d="M432.4688,466.6406 Q431.8906,466.9375 431.25,467.0781 Q430.6094,467.2344 429.9063,467.2344 Q427.4063,467.2344 426.0781,465.5938 Q424.7656,463.9375 424.7656,460.8125 Q424.7656,457.6875 426.0781,456.0313 Q427.4063,454.375 429.9063,454.375 Q430.6094,454.375 431.25,454.5313 Q431.9063,454.6875 432.4688,454.9844 L432.4688,457.7031 Q431.8438,457.125 431.25,456.8594 Q430.6563,456.5781 430.0313,456.5781 Q428.6875,456.5781 428,457.6563 Q427.3125,458.7188 427.3125,460.8125 Q427.3125,462.9063 428,463.9844 Q428.6875,465.0469 430.0313,465.0469 Q430.6563,465.0469 431.25,464.7813 Q431.8438,464.5 432.4688,463.9219 L432.4688,466.6406 Z " fill="#000000"/><text fill="#000000" font-family="sans-serif" font-size="14" lengthAdjust="spacing" textLength="110" x="443.5" y="465.8467">ProcessWindow</text><line style="stroke:#181818;stroke-width:0.5;" x1="415.5" x2="555.5" y1="477" y2="477"/><line style="stroke:#181818;stroke-width:0.5;" x1="415.5" x2="555.5" y1="485" y2="485"/></g><!--MD5=[74c9b6806b718f403bafb8cf17b4e40d]
class StatusWindow--><g id="elem_StatusWindow"><rect codeLine="48" fill="#F1F1F1" height="48" id="StatusWindow" rx="2.5" ry="2.5" style="stroke:#181818;stroke-width:0.5;" width="130" x="738.5" y="445"/><ellipse cx="753.5" cy="461" fill="#ADD1B2" rx="11" ry="11" style="stroke:#181818;stroke-width:1.0;"/><path d="M756.4688,466.6406 Q755.8906,466.9375 755.25,467.0781 Q754.6094,467.2344 753.9063,467.2344 Q751.4063,467.2344 750.0781,465.5938 Q748.7656,463.9375 748.7656,460.8125 Q748.7656,457.6875 750.0781,456.0313 Q751.4063,454.375 753.9063,454.375 Q754.6094,454.375 755.25,454.5313 Q755.9063,454.6875 756.4688,454.9844 L756.4688,457.7031 Q755.8438,457.125 755.25,456.8594 Q754.6563,456.5781 754.0313,456.5781 Q752.6875,456.5781 752,457.6563 Q751.3125,458.7188 751.3125,460.8125 Q751.3125,462.9063 752,463.9844 Q752.6875,465.0469 754.0313,465.0469 Q754.6563,465.0469 755.25,464.7813 Q755.8438,464.5 756.4688,463.9219 L756.4688,466.6406 Z " fill="#000000"/><text fill="#000000" font-family="sans-serif" font-size="14" lengthAdjust="spacing" textLength="98" x="767.5" y="465.8467">StatusWindow</text><line style="stroke:#181818;stroke-width:0.5;" x1="739.5" x2="867.5" y1="477" y2="477"/><line style="stroke:#181818;stroke-width:0.5;" x1="739.5" x2="867.5" y1="485" y2="485"/></g><!--MD5=[1fa10fd702e4b085413c7983078d4b2b]
reverse link IWindow to BaseWindow--><g id="link_IWindow_BaseWindow"><path codeLine="13" d="M462.5,156.89 C462.5,170.44 462.5,183.87 462.5,195.7 " fill="none" id="IWindow-backto-BaseWindow" style="stroke:#181818;stroke-width:1.0;"/><polygon fill="none" points="455.5,156.45,462.5,136.45,469.5,156.45,455.5,156.45" style="stroke:#181818;stroke-width:1.0;"/></g><!--MD5=[f1ba3fed7380eeef61e622069926cb25]
link WindowType to IWindow--><g id="link_WindowType_IWindow"><path codeLine="22" d="M293.54,71.5 C300.04,71.5 306.53,71.5 313.03,71.5 " fill="none" id="WindowType-to-IWindow" style="stroke:#181818;stroke-width:1.0;"/><ellipse cx="320.19" cy="71.5" fill="#FFFFFF" rx="8" ry="8" style="stroke:#181818;stroke-width:1.0;"/><line style="stroke:#181818;stroke-width:1.0;" x1="312.19" x2="328.19" y1="71.5" y2="71.5"/><line style="stroke:#181818;stroke-width:1.0;" x1="320.19" x2="320.19" y1="63.5" y2="79.5"/></g><!--MD5=[7bcbf0ac60bc2997677fd8eb149840eb]
reverse link BaseWindow to WindowTable--><g id="link_BaseWindow_WindowTable"><path codeLine="27" d="M425.14,294 C415.14,309.13 404.87,324.66 396.81,336.84 " fill="none" id="BaseWindow-backto-WindowTable" style="stroke:#181818;stroke-width:1.0;"/><polygon fill="none" points="419.33,290.09,436.2,277.27,431.01,297.82,419.33,290.09" style="stroke:#181818;stroke-width:1.0;"/></g><!--MD5=[9181f0c99b831ae49136ae1bcdd525ae]
reverse link BaseWindow to WindowText--><g id="link_BaseWindow_WindowText"><path codeLine="30" d="M539.2,288.29 C564.75,305.2 591.95,323.22 612.7,336.96 " fill="none" id="BaseWindow-backto-WindowText" style="stroke:#181818;stroke-width:1.0;"/><polygon fill="none" points="535.12,293.98,522.31,277.1,542.85,282.31,535.12,293.98" style="stroke:#181818;stroke-width:1.0;"/></g><!--MD5=[cad58ad33ad10b4bc6f6d372f6571f5e]
reverse link WindowTable to DeviceWindow--><g id="link_WindowTable_DeviceWindow"><path codeLine="35" d="M299.7,390.15 C249.84,407.31 186.92,428.97 140.11,445.08 " fill="none" id="WindowTable-backto-DeviceWindow" style="stroke:#181818;stroke-width:1.0;"/><polygon fill="none" points="297.61,383.47,318.8,383.58,302.17,396.71,297.61,383.47" style="stroke:#181818;stroke-width:1.0;"/></g><!--MD5=[5cdb8755b779d3d68a1b6b02431b4e06]
reverse link WindowText to InfoWindow--><g id="link_WindowText_InfoWindow"><path codeLine="39" d="M647.5,405.02 C647.5,418.58 647.5,433.04 647.5,444.68 " fill="none" id="WindowText-backto-InfoWindow" style="stroke:#181818;stroke-width:1.0;"/><polygon fill="none" points="640.5,405,647.5,385,654.5,405,640.5,405" style="stroke:#181818;stroke-width:1.0;"/></g><!--MD5=[43f9edba5abfbfc52cb8581a24d765f1]
reverse link WindowTable to NodeDiagnosticsWindow--><g id="link_WindowTable_NodeDiagnosticsWindow"><path codeLine="43" d="M344.92,399.28 C330.1,414.39 313.43,431.38 300.38,444.68 " fill="none" id="WindowTable-backto-NodeDiagnosticsWindow" style="stroke:#181818;stroke-width:1.0;"/><polygon fill="none" points="339.93,394.37,358.93,385,349.92,404.18,339.93,394.37" style="stroke:#181818;stroke-width:1.0;"/></g><!--MD5=[980623c82e7acf061c2ba345e989597d]
reverse link WindowTable to ProcessWindow--><g id="link_WindowTable_ProcessWindow"><path codeLine="47" d="M418.08,399.28 C432.9,414.39 449.57,431.38 462.62,444.68 " fill="none" id="WindowTable-backto-ProcessWindow" style="stroke:#181818;stroke-width:1.0;"/><polygon fill="none" points="413.08,404.18,404.07,385,423.07,394.37,413.08,404.18" style="stroke:#181818;stroke-width:1.0;"/></g><!--MD5=[1fed8ee891b797ad5668ca8d402c5500]
reverse link WindowText to StatusWindow--><g id="link_WindowText_StatusWindow"><path codeLine="51" d="M697.95,396.28 C721.34,412.17 748.52,430.65 769.45,444.86 " fill="none" id="WindowText-backto-StatusWindow" style="stroke:#181818;stroke-width:1.0;"/><polygon fill="none" points="693.96,402.03,681.35,385,701.83,390.45,693.96,402.03" style="stroke:#181818;stroke-width:1.0;"/></g><!--MD5=[2ecc8e35c53f1e967cc4667f512d2e68]
@startuml
interface IWindow {
    +{abstract} WindowSize getWindowSize()
    +{abstract} WindowType getWindowType()
    +{abstract} IRecord[] getRecords()
    +{abstract} bool setRecords(IRecord[] records)
    +{abstract} bool keyPressed(KeyMap key)
} 
abstract BaseWindow {
    +WindowType getWindowType()
    -WindowType windowType

}
IWindow <|- - BaseWindow

enum WindowType {
    PROCESS
    NODEDIAGNOSTICS
    DEVICE
    STATUS
    INFO
}
WindowType -+ IWindow

abstract WindowTable {

}
BaseWindow <|- - WindowTable
abstract WindowText {
}
BaseWindow <|- - WindowText

class DeviceWindow {

}
WindowTable <|- - DeviceWindow
class InfoWindow {

}
WindowText <|- - InfoWindow
class NodeDiagnosticsWindow {

}
WindowTable <|- - NodeDiagnosticsWindow
class ProcessWindow {

}
WindowTable <|- - ProcessWindow
class StatusWindow {

}
WindowText <|- - StatusWindow
@enduml

PlantUML version 1.2022.8(Sun Sep 25 04:00:33 CDT 2022)
(GPL source distribution)
Java Runtime: OpenJDK Runtime Environment
JVM: OpenJDK 64-Bit Server VM
Default Encoding: UTF-8
Language: en
Country: US
--></g></svg>